<svg width="28" height="31" viewBox="0 0 28 31" fill="none" xmlns="http://www.w3.org/2000/svg">
<path d="M1.31825 23.2403C1.1402 23.2439 0.997508 23.3849 1.00003 23.5563V29.9691C1.00003 30.1417 1.14525 30.2802 1.3233 30.2802H26.9167C27.0947 30.2802 27.24 30.1417 27.24 29.9691V23.5563C27.2412 23.4736 27.2071 23.3934 27.1465 23.3339C27.0859 23.2743 27.0026 23.2403 26.9167 23.2403C26.8296 23.2403 26.7475 23.2743 26.6856 23.3339C26.625 23.3934 26.5922 23.4736 26.5934 23.5563V29.6579H1.64656V23.5563C1.64782 23.4724 1.61373 23.391 1.55185 23.3314C1.48998 23.2719 1.40664 23.2391 1.31824 23.2403L1.31825 23.2403Z" fill="#004990" stroke="#004990" stroke-width="0.5"/>
<path d="M14.0516 1.00752C13.9061 1.04095 13.8033 1.1734 13.807 1.32442V25.5274L7.93509 19.6452C7.81031 19.5226 7.6109 19.5251 7.4898 19.6501C7.36869 19.7764 7.36992 19.9782 7.49469 20.1007L13.8952 26.5081C14.0175 26.6306 14.2133 26.6306 14.3356 26.5081L20.7458 20.1007C20.8057 20.0426 20.84 19.9609 20.84 19.8767C20.8412 19.7925 20.8094 19.7108 20.7507 19.6502C20.692 19.5907 20.6125 19.5561 20.5293 19.5548C20.4461 19.5536 20.3653 19.587 20.3054 19.6452L14.4335 25.5176V1.32443C14.436 1.22788 14.3932 1.1338 14.3185 1.07191C14.2451 1.01001 14.146 0.986493 14.0518 1.00754L14.0516 1.00752Z" fill="#004990" stroke="#004990" stroke-width="0.5"/>
</svg>
