<svg width="140" height="147" viewBox="0 0 140 147" fill="none" xmlns="http://www.w3.org/2000/svg">
<g filter="url(#filter0_d)">
<path d="M70 0.00168602C33.5845 0.00168602 4 30.9803 4 69.1117C4 107.243 33.5845 138.222 70 138.222C106.415 138.222 136 107.243 136 69.1117C136 35.4222 112.938 7.31479 82.4215 1.22839C81.607 0.970703 80.7281 1.08114 79.9957 1.5413C79.2691 2.00146 78.7594 2.76226 78.6012 3.63958C78.4371 4.51694 78.6422 5.41885 79.1519 6.13052C79.6676 6.84223 80.4469 7.29013 81.2965 7.36376C109.028 12.8979 130 38.4209 130 69.1105C130 103.843 103.17 131.938 70 131.938C36.8305 131.938 10 103.843 10 69.1105C10 34.3779 36.8305 6.28313 70 6.28313C70.8027 6.2954 71.5762 5.97022 72.1504 5.38121C72.7188 4.78607 73.041 3.98233 73.041 3.14173C73.041 2.30113 72.7188 1.49738 72.1504 0.902253C71.5762 0.313247 70.8027 -0.0119321 70 0.000334897V0.00168602ZM53.1715 31.3667C51.6247 31.5446 50.4645 32.9312 50.4997 34.557V103.667C50.5114 104.814 51.1149 105.864 52.0817 106.41C53.0485 106.95 54.2205 106.894 55.1404 106.269L106.14 71.7135C106.984 71.1306 107.494 70.1428 107.494 69.0875C107.494 68.0321 106.984 67.0443 106.14 66.4615L66.6724 39.7112C65.9986 39.2633 65.1841 39.1099 64.4107 39.2878C63.6314 39.4719 62.9517 39.9627 62.524 40.6683C62.0963 41.3739 61.9498 42.2267 62.1197 43.0366C62.2955 43.8526 62.7642 44.5643 63.4381 45.0122L98.9701 69.1127L56.5021 97.8751V34.5577C56.5196 33.6558 56.1681 32.7846 55.5294 32.1711C54.8907 31.5636 54.0353 31.2691 53.174 31.3673L53.1715 31.3667Z" fill="white"/>
</g>
<defs>
<filter id="filter0_d" x="0" y="0" width="140" height="146.222" filterUnits="userSpaceOnUse" color-interpolation-filters="sRGB">
<feFlood flood-opacity="0" result="BackgroundImageFix"/>
<feColorMatrix in="SourceAlpha" type="matrix" values="0 0 0 0 0 0 0 0 0 0 0 0 0 0 0 0 0 0 127 0"/>
<feOffset dy="4"/>
<feGaussianBlur stdDeviation="2"/>
<feColorMatrix type="matrix" values="0 0 0 0 0 0 0 0 0 0 0 0 0 0 0 0 0 0 0.1 0"/>
<feBlend mode="normal" in2="BackgroundImageFix" result="effect1_dropShadow"/>
<feBlend mode="normal" in="SourceGraphic" in2="effect1_dropShadow" result="shape"/>
</filter>
</defs>
</svg>
