<svg width="100" height="84" viewBox="0 0 100 84" fill="none" xmlns="http://www.w3.org/2000/svg">
<path fill-rule="evenodd" clip-rule="evenodd" d="M10.875 11.828C18.117 3.9102 28.121 0 40.871 0L40.8708 18.7383C34.0546 18.7383 29.1718 21 26.2148 25.5C23.2538 30 21.746 36.8708 21.746 46.113H42.031V83.855H0V48.914C0 32.094 3.6133 19.7421 10.875 11.828ZM98.5084 0.00330353C98.5096 0.00330353 98.5108 0.00330353 98.512 0.00330353L98.5084 0V0.00330353ZM98.5084 0.00330353C92.1349 0.00365448 86.4601 0.941162 81.473 2.8627C76.4847 4.7846 72.1996 7.7299 68.692 11.7377C65.1842 15.765 62.4967 20.8705 60.6217 27.0777C58.7623 33.3004 57.8209 40.5547 57.8209 48.9137V83.8547H100.001V46.1127H79.7429C79.7429 36.8705 81.2234 29.9997 84.1804 25.4997C87.1374 20.9997 91.9187 18.738 98.5084 18.738V0.00330353Z" fill="#C15867" fill-opacity="0.15"/>
</svg>
