<svg width="100" height="84" viewBox="0 0 100 84" fill="none" xmlns="http://www.w3.org/2000/svg">
<path fill-rule="evenodd" clip-rule="evenodd" d="M89.126 72.172C81.884 80.0898 71.88 84 59.13 84L59.1302 65.2617C65.9464 65.2617 70.8292 63 73.7862 58.5C76.7472 54 78.255 47.1292 78.255 37.887H57.97V0.144997H100.001V35.086C100.001 51.906 96.3877 64.2579 89.126 72.172ZM1.49255 83.9967C1.49136 83.9967 1.49015 83.9967 1.48895 83.9967L1.49255 84V83.9967ZM1.49255 83.9967C7.86609 83.9963 13.5409 83.0588 18.528 81.1373C23.5163 79.2154 27.8014 76.2701 31.309 72.2623C34.8168 68.235 37.5043 63.1295 39.3793 56.9223C41.2387 50.6996 42.1801 43.4453 42.1801 35.0863V0.145302H5.34058e-05V37.8873H20.2581C20.2581 47.1295 18.7775 54.0003 15.8206 58.5003C12.8636 63.0003 8.08225 65.262 1.49255 65.262V83.9967Z" fill="#C15867" fill-opacity="0.15"/>
</svg>
