<svg width="201" height="247" viewBox="0 0 201 247" fill="none" xmlns="http://www.w3.org/2000/svg">
<path d="M91.3636 63.9546H91.5463V107.809H91.3636C65.5991 107.809 44.5854 128.64 44.5854 154.587C44.5854 180.535 65.4163 201.366 91.3636 201.366C114.205 201.366 133.025 185.103 137.228 163.358H181.448C177.063 209.223 138.325 245.22 91.3636 245.22C41.2963 245.22 0.730896 204.655 0.730896 154.587C0.730896 104.52 41.4791 63.9546 91.3636 63.9546Z" fill="#0A9B8D" fill-opacity="0.15"/>
<path d="M120.417 74.0046C120.783 74.0046 121.148 73.8219 121.514 73.6391C122.245 73.091 122.245 71.8119 121.696 71.081L114.753 63.2237C114.205 62.4928 112.925 62.4928 112.195 63.041C111.464 63.5891 111.464 64.8682 112.012 65.5991L118.955 73.4564C119.504 73.8219 119.869 74.0046 120.417 74.0046ZM106.165 73.4564L99.2209 65.5991C98.6727 64.8682 98.6727 63.7719 99.4036 63.041C100.135 62.4928 101.231 62.4928 101.962 63.2237L108.905 71.081C109.454 71.8119 109.454 72.9082 108.723 73.6391C108.357 74.0046 107.992 74.0046 107.626 74.0046C106.895 74.0046 106.53 73.8219 106.165 73.4564ZM94.47 74.0046C94.8354 74.0046 95.2009 73.8219 95.5663 73.6391C96.2972 73.091 96.2972 71.8119 95.7491 71.081L88.8054 63.2237C88.2572 62.4928 86.9782 62.4928 86.2472 63.041C85.5163 63.5891 85.5163 64.8682 86.0645 65.5991L93.0082 73.4564C93.5563 73.8219 93.9218 74.0046 94.47 74.0046ZM80.2172 73.4564L73.2736 65.5991C72.7254 64.8682 72.7254 63.7719 73.4563 63.041C74.1872 62.4928 75.2836 62.4928 76.0145 63.2237L82.9582 71.081C83.5063 71.8119 83.5063 72.9082 82.7754 73.6391C82.41 74.0046 82.0445 74.0046 81.6791 74.0046C80.9482 74.0046 80.5827 73.8219 80.2172 73.4564ZM68.5227 74.0046C68.8882 74.0046 69.2536 73.8219 69.6191 73.6391C70.35 73.091 70.35 71.8119 69.8018 71.081L62.8582 63.2237C62.31 62.4928 61.0309 62.4928 60.3 63.041C59.5691 63.5891 59.5691 64.8682 60.1172 65.5991L67.0609 73.4564C67.6091 73.8219 67.9745 74.0046 68.5227 74.0046ZM119.138 88.6228L112.195 80.7655C111.646 80.0346 111.646 78.9382 112.377 78.2073C113.108 77.6591 114.205 77.6591 114.935 78.3901L121.879 86.2473C122.427 86.9782 122.427 88.0746 121.696 88.8055C121.331 89.171 120.965 89.171 120.6 89.171C119.869 89.171 119.504 88.9882 119.138 88.6228ZM107.444 89.171C107.809 89.171 108.175 88.9882 108.54 88.8055C109.271 88.2573 109.271 86.9782 108.723 86.2473L101.779 78.3901C101.231 77.6591 99.9518 77.6591 99.2209 78.2073C98.49 78.7555 98.49 80.0346 99.0382 80.7655L105.982 88.6228C106.53 88.9882 106.895 89.171 107.444 89.171ZM93.1909 88.6228L86.2472 80.7655C85.6991 80.0346 85.6991 78.9382 86.43 78.2073C87.1609 77.6591 88.2572 77.6591 88.9882 78.3901L95.9318 86.2473C96.48 86.9782 96.48 88.0746 95.7491 88.8055C95.3836 89.171 95.0182 89.171 94.6527 89.171C93.9218 89.171 93.5563 88.9882 93.1909 88.6228ZM81.4963 89.171C81.8618 89.171 82.2272 88.9882 82.5927 88.8055C83.3236 88.2573 83.3236 86.9782 82.7754 86.2473L75.8318 78.3901C75.2836 77.6591 74.0045 77.6591 73.2736 78.2073C72.5427 78.7555 72.5427 80.0346 73.0909 80.7655L80.0345 88.6228C80.5827 88.9882 80.9482 89.171 81.4963 89.171ZM67.2436 88.6228L60.3 80.5828C59.7518 79.8519 59.7518 78.7555 60.4827 78.0246C61.2136 77.4764 62.31 77.4764 63.0409 78.2073L69.9845 86.0646C70.5327 86.7955 70.5327 87.8919 69.8018 88.6228C69.4363 88.9882 69.0709 88.9882 68.7054 88.9882C67.9745 89.171 67.6091 88.9882 67.2436 88.6228ZM120.417 104.155C120.783 104.155 121.148 103.972 121.514 103.789C122.245 103.241 122.245 101.962 121.696 101.231L114.753 93.3737C114.205 92.6428 112.925 92.6428 112.195 93.191C111.464 93.7391 111.464 95.0182 112.012 95.7491L118.955 103.606C119.504 103.972 119.869 104.155 120.417 104.155ZM106.165 103.606L99.2209 95.7491C98.6727 95.0182 98.6727 93.7391 99.4036 93.191C100.135 92.6428 101.231 92.6428 101.962 93.3737L108.905 101.231C109.454 101.962 109.454 103.058 108.723 103.789C108.175 104.155 107.809 104.155 107.444 104.155C106.895 104.155 106.53 103.972 106.165 103.606ZM94.47 104.155C94.8354 104.155 95.2009 103.972 95.5663 103.789C96.2972 103.241 96.2972 101.962 95.7491 101.231L88.8054 93.3737C88.2572 92.6428 86.9782 92.6428 86.2472 93.191C85.5163 93.7391 85.5163 95.0182 86.0645 95.7491L93.0082 103.606C93.5563 103.972 93.9218 104.155 94.47 104.155ZM80.2172 103.606L73.2736 95.7491C72.7254 95.0182 72.7254 93.9219 73.4563 93.191C74.1872 92.6428 75.2836 92.6428 76.0145 93.3737L82.9582 101.231C83.5063 101.962 83.5063 103.058 82.7754 103.789C82.41 104.155 81.8618 104.155 81.4963 104.155C80.9482 104.155 80.5827 103.972 80.2172 103.606ZM68.5227 104.155C68.8882 104.155 69.2536 103.972 69.6191 103.789C70.35 103.241 70.35 101.962 69.8018 101.231L62.8582 93.3737C62.31 92.6428 61.0309 92.6428 60.3 93.191C59.5691 93.7391 59.5691 95.0182 60.1172 95.7491L67.0609 103.606C67.6091 103.972 67.9745 104.155 68.5227 104.155ZM46.0472 39.1037C46.0472 31.0637 52.6254 24.4855 60.6654 24.4855C61.3963 24.4855 61.9445 24.4855 62.6754 24.6682V24.4855C62.6754 16.4455 69.2536 9.86732 77.2936 9.86732C80.0345 9.86732 82.5927 10.5982 84.9682 12.06C88.2572 5.11641 95.3836 0.730957 103.058 0.730957C114.205 0.730957 123.158 9.68459 123.158 20.831C123.158 22.2928 122.975 23.5719 122.793 24.851C129.371 26.3128 134.305 32.16 134.305 39.1037C134.305 45.8646 129.736 51.7119 123.158 53.3564C122.062 53.7219 120.783 53.7219 119.686 53.7219H67.9745C67.7918 53.7219 67.6091 53.7219 67.4263 53.7219C67.2436 53.7219 67.0609 53.7219 66.8782 53.7219H60.4827C52.6254 53.7219 46.0472 47.1437 46.0472 39.1037ZM87.1609 15.3491L86.2472 17.7246L84.2372 16.08C82.2272 14.2528 79.6691 13.3391 76.9282 13.3391C70.7154 13.3391 65.7818 18.2728 65.7818 24.4855C65.7818 25.2164 65.7818 25.9473 65.9645 26.6782L66.5127 29.6019L63.9545 28.5055C62.8582 28.14 61.7618 27.9573 60.6654 27.9573C54.6354 27.9573 49.5191 32.891 49.5191 39.1037C49.5191 45.1337 54.4527 50.25 60.6654 50.25H67.0609C67.2436 50.25 67.4263 50.25 67.6091 50.25C67.7918 50.25 67.9745 50.25 68.1572 50.25H119.504C120.417 50.25 121.331 50.0673 122.245 49.8846C127.178 48.6055 130.65 44.2201 130.65 39.1037C130.65 33.2564 126.082 28.5055 120.417 28.14L118.225 27.9573L118.955 25.7646C119.504 24.12 119.686 22.4755 119.686 20.831C119.686 11.6946 112.195 4.20278 103.058 4.20278C95.7491 4.20278 89.5363 8.58823 87.1609 15.3491Z" fill="#004990"/>
<path d="M181.265 171.033H170.119V159.887H181.265V171.033ZM133.025 163.541H136.68H166.465V174.687H185.103V163.541H196.249V171.033C196.249 179.256 189.671 186.017 181.448 186.017H144.172C135.949 186.017 129.371 179.256 129.371 171.033V163.541H133.025ZM133.025 159.887H125.534V171.033C125.534 181.448 133.939 189.671 144.172 189.671V197.163H147.826V189.671H177.611V197.163H181.265V189.671C191.498 189.671 199.904 181.266 199.904 171.033V159.887H185.103V156.232H166.465V159.887H136.68V146.73C136.68 143.624 139.238 141.066 142.345 141.066C145.451 141.066 148.009 143.624 148.009 146.73V148.557H151.664V146.73C151.664 141.614 147.461 137.411 142.345 137.411C137.228 137.411 133.025 141.614 133.025 146.73V159.887Z" fill="#004990"/>
</svg>
