<svg width="336" height="48" viewBox="0 0 336 48" fill="none" xmlns="http://www.w3.org/2000/svg">
<path d="M0 24C0 10.7452 10.7452 0 24 0C37.2548 0 48 10.7452 48 24C48 37.2548 37.2548 48 24 48C10.7452 48 0 37.2548 0 24Z" fill="#00AD99"/>
<path fill-rule="evenodd" clip-rule="evenodd" d="M17.3188 14.8227C17.3188 16.3918 16.1377 17.6473 14.2412 17.6473H14.2064C12.3805 17.6473 11.2 16.3918 11.2 14.8227C11.2 13.2204 12.4164 12 14.277 12C16.1377 12 17.2835 13.2204 17.3188 14.8227ZM16.9605 19.8779V36.2196H11.5216V19.8779H16.9605ZM36.5752 36.2196L36.5754 26.8497C36.5754 21.8303 33.8922 19.4941 30.3131 19.4941C27.4254 19.4941 26.1325 21.0803 25.4107 22.193V19.8783H19.9711C20.0428 21.4117 19.9711 36.22 19.9711 36.22H25.4107V27.0934C25.4107 26.605 25.446 26.1178 25.5898 25.7682C25.9829 24.7924 26.8779 23.7822 28.3805 23.7822C30.3494 23.7822 31.1365 25.2807 31.1365 27.4767V36.2196H36.5752Z" fill="white"/>
<path d="M72 24C72 10.7452 82.7452 0 96 0C109.255 0 120 10.7452 120 24C120 37.2548 109.255 48 96 48C82.7452 48 72 37.2548 72 24Z" fill="#00AD99"/>
<path d="M95.2812 19.5079L95.3316 20.3383L94.4922 20.2367C91.4369 19.8469 88.7677 18.5249 86.5013 16.3047L85.3934 15.2031L85.108 16.0166C84.5036 17.83 84.8897 19.7452 86.1488 21.0332C86.8203 21.745 86.6692 21.8467 85.5109 21.423C85.108 21.2874 84.7554 21.1857 84.7219 21.2366C84.6044 21.3552 85.0073 22.8975 85.3262 23.5076C85.7627 24.355 86.6524 25.1855 87.6261 25.677L88.4487 26.0668L87.475 26.0837C86.5349 26.0837 86.5013 26.1007 86.6021 26.4566C86.9378 27.5582 88.264 28.7276 89.7413 29.2361L90.7822 29.592L89.8756 30.1343C88.5326 30.9139 86.9546 31.3546 85.3766 31.3885C84.6211 31.4054 84 31.4732 84 31.524C84 31.6935 86.0481 32.6426 87.24 33.0155C90.8157 34.1171 95.063 33.6426 98.2526 31.7613C100.519 30.4224 102.785 27.7616 103.843 25.1855C104.414 23.8127 104.984 21.3044 104.984 20.1011C104.984 19.3215 105.035 19.2198 105.975 18.2876C106.529 17.7453 107.049 17.1521 107.15 16.9826C107.318 16.6606 107.301 16.6606 106.445 16.9487C105.018 17.4572 104.817 17.3894 105.522 16.6267C106.042 16.0844 106.663 15.1014 106.663 14.8133C106.663 14.7624 106.411 14.8472 106.126 14.9997C105.824 15.1692 105.152 15.4234 104.649 15.5759L103.742 15.8641L102.92 15.3048C102.466 14.9997 101.828 14.6608 101.493 14.5591C100.636 14.3218 99.327 14.3557 98.5548 14.6269C96.4563 15.3895 95.1301 17.3555 95.2812 19.5079Z" fill="white"/>
<path d="M216 24C216 10.7452 226.745 0 240 0C253.255 0 264 10.7452 264 24C264 37.2548 253.255 48 240 48C226.745 48 216 37.2548 216 24Z" fill="#00AD99"/>
<path d="M242.502 38.1115V25.0542H246.106L246.584 20.5546H242.502L242.508 18.3025C242.508 17.1289 242.619 16.5001 244.305 16.5001H246.558V12H242.953C238.623 12 237.099 14.1828 237.099 17.8536V20.5551H234.4V25.0547H237.099V38.1115H242.502Z" fill="white"/>
<path fill-rule="evenodd" clip-rule="evenodd" d="M312 0C325.255 0 336 10.7451 336 24C336 37.2549 325.255 48 312 48C298.745 48 288 37.2549 288 24C288 10.7451 298.745 0 312 0ZM306.148 10.276H317.853C322.249 10.276 325.843 13.8261 325.843 18.1631V29.837C325.843 34.175 322.249 37.724 317.853 37.724L306.148 37.7239C301.752 37.7239 298.157 34.1749 298.157 29.8369V18.163C298.157 13.8261 301.752 10.276 306.148 10.276ZM311.926 16.5893C316.197 16.5893 319.663 20.0557 319.663 24.3272C319.663 28.5992 316.197 32.065 311.926 32.065C307.653 32.065 304.187 28.5992 304.187 24.3272C304.187 20.0557 307.653 16.5893 311.926 16.5893ZM311.926 19.2029C314.754 19.2029 317.05 21.4981 317.05 24.3272C317.05 27.1563 314.754 29.452 311.926 29.452C309.096 29.452 306.801 27.1562 306.801 24.3272C306.801 21.4981 309.096 19.2029 311.926 19.2029ZM319.412 15.5168C320.105 15.5168 320.668 16.0794 320.668 16.7727C320.668 17.4666 320.105 18.0292 319.412 18.0292C318.718 18.0292 318.156 17.4666 318.156 16.7727C318.156 16.0793 318.718 15.5168 319.412 15.5168ZM307.104 12.518H316.897C320.575 12.518 323.582 15.5106 323.582 19.1677V29.01C323.582 32.6669 320.575 35.6591 316.897 35.6591L307.104 35.6592C303.427 35.6592 300.419 32.6672 300.419 29.0102V19.1675C300.419 15.5106 303.427 12.518 307.104 12.518Z" fill="#00AD99"/>
<path d="M144 24C144 10.7452 154.745 0 168 0C181.255 0 192 10.7452 192 24C192 37.2548 181.255 48 168 48C154.745 48 144 37.2548 144 24Z" fill="#00AD99"/>
<path d="M180.265 18.0734C179.971 16.9424 179.103 16.0518 178.002 15.7495C176.005 15.2002 168 15.2002 168 15.2002C168 15.2002 159.995 15.2002 157.998 15.7495C156.897 16.0518 156.029 16.9424 155.735 18.0734C155.2 20.1232 155.2 24.4002 155.2 24.4002C155.2 24.4002 155.2 28.677 155.735 30.727C156.029 31.858 156.897 32.7486 157.998 33.051C159.995 33.6002 168 33.6002 168 33.6002C168 33.6002 176.005 33.6002 178.002 33.051C179.103 32.7486 179.971 31.858 180.265 30.727C180.8 28.677 180.8 24.4002 180.8 24.4002C180.8 24.4002 180.8 20.1232 180.265 18.0734Z" fill="white"/>
<path d="M165.6 28.7998V20.7998L172 24.8L165.6 28.7998Z" fill="#00AD99"/>
</svg>
