<svg xmlns="http://www.w3.org/2000/svg" viewBox="0 0 48 48" width="48" height="48">
	<style>
		tspan { white-space:pre }
		.shp0 { fill: #00AD99 }
		.shp1 { fill: #ffffff }
	</style>
	<path id="Layer" class="shp0" d="M-216 24C-216 10.75 -205.25 0 -192 0C-178.75 0 -168 10.75 -168 24C-168 37.25 -178.75 48 -192 48C-205.25 48 -216 37.25 -216 24Z" />
	<path id="Layer" fill-rule="evenodd" class="shp1" d="M-201.72 12C-203.58 12 -204.8 13.22 -204.8 14.82C-204.8 16.39 -203.62 17.65 -201.79 17.65L-201.76 17.65C-199.86 17.65 -198.68 16.39 -198.68 14.82C-198.72 13.22 -199.86 12 -201.72 12ZM-204.48 19.88L-204.48 36.22L-199.04 36.22L-199.04 19.88L-204.48 19.88ZM-179.42 36.22L-179.42 26.85C-179.42 21.83 -182.11 19.49 -185.69 19.49C-188.57 19.49 -189.87 21.08 -190.59 22.19L-190.59 19.88L-196.03 19.88C-195.96 21.41 -196.03 36.22 -196.03 36.22L-190.59 36.22L-190.59 27.09C-190.59 26.61 -190.55 26.12 -190.41 25.77C-190.02 24.79 -189.12 23.78 -187.62 23.78C-185.65 23.78 -184.86 25.28 -184.86 27.48L-184.86 36.22L-179.42 36.22Z" />
	<path id="Layer" class="shp0" d="M-144 24C-144 10.75 -133.25 0 -120 0C-106.75 0 -96 10.75 -96 24C-96 37.25 -106.75 48 -120 48C-133.25 48 -144 37.25 -144 24Z" />
	<path id="Layer" class="shp1" d="M-120.72 19.51L-120.67 20.34L-121.51 20.24C-124.56 19.85 -127.23 18.52 -129.5 16.3L-130.61 15.2L-130.89 16.02C-131.5 17.83 -131.11 19.75 -129.85 21.03C-129.18 21.75 -129.33 21.85 -130.49 21.42C-130.89 21.29 -131.24 21.19 -131.28 21.24C-131.4 21.36 -130.99 22.9 -130.67 23.51C-130.24 24.36 -129.35 25.19 -128.37 25.68L-127.55 26.07L-128.53 26.08C-129.47 26.08 -129.5 26.1 -129.4 26.46C-129.06 27.56 -127.74 28.73 -126.26 29.24L-125.22 29.59L-126.12 30.13C-127.47 30.91 -129.05 31.35 -130.62 31.39C-131.38 31.41 -132 31.47 -132 31.52C-132 31.69 -129.95 32.64 -128.76 33.02C-125.18 34.12 -120.94 33.64 -117.75 31.76C-115.48 30.42 -113.22 27.76 -112.16 25.19C-111.59 23.81 -111.02 21.3 -111.02 20.1C-111.02 19.32 -110.97 19.22 -110.03 18.29C-109.47 17.75 -108.95 17.15 -108.85 16.98C-108.68 16.66 -108.7 16.66 -109.56 16.95C-110.98 17.46 -111.18 17.39 -110.48 16.63C-109.96 16.08 -109.34 15.1 -109.34 14.81C-109.34 14.76 -109.59 14.85 -109.87 15C-110.18 15.17 -110.85 15.42 -111.35 15.58L-112.26 15.86L-113.08 15.3C-113.53 15 -114.17 14.66 -114.51 14.56C-115.36 14.32 -116.67 14.36 -117.45 14.63C-119.54 15.39 -120.87 17.36 -120.72 19.51Z" />
	<path id="Layer" class="shp0" d="M0 24C0 10.75 10.75 0 24 0C37.25 0 48 10.75 48 24C48 37.25 37.25 48 24 48C10.75 48 0 37.25 0 24Z" />
	<path id="Layer" class="shp1" d="M26.5 38.11L26.5 25.05L30.11 25.05L30.58 20.55L26.5 20.55L26.51 18.3C26.51 17.13 26.62 16.5 28.31 16.5L30.56 16.5L30.56 12L26.95 12C22.62 12 21.1 14.18 21.1 17.85L21.1 20.56L18.4 20.56L18.4 25.05L21.1 25.05L21.1 38.11L26.5 38.11Z" />
	<path id="Layer" fill-rule="evenodd" class="shp0" d="M96 0C109.25 0 120 10.75 120 24C120 37.25 109.25 48 96 48C82.75 48 72 37.25 72 24C72 10.75 82.75 0 96 0ZM82.16 18.16L82.16 29.84C82.16 34.17 85.75 37.72 90.15 37.72L101.85 37.72C106.25 37.72 109.84 34.17 109.84 29.84L109.84 18.16C109.84 13.83 106.25 10.28 101.85 10.28L90.15 10.28C85.75 10.28 82.16 13.83 82.16 18.16ZM91.1 12.52L100.9 12.52C104.57 12.52 107.58 15.51 107.58 19.17L107.58 29.01C107.58 32.67 104.57 35.66 100.9 35.66L91.1 35.66C87.43 35.66 84.42 32.67 84.42 29.01L84.42 19.17C84.42 15.51 87.43 12.52 91.1 12.52ZM88.19 24.33C88.19 28.6 91.65 32.06 95.93 32.06C100.2 32.06 103.66 28.6 103.66 24.33C103.66 20.06 100.2 16.59 95.93 16.59C91.65 16.59 88.19 20.06 88.19 24.33ZM102.16 16.77C102.16 17.47 102.72 18.03 103.41 18.03C104.11 18.03 104.67 17.47 104.67 16.77C104.67 16.08 104.11 15.52 103.41 15.52C102.72 15.52 102.16 16.08 102.16 16.77ZM95.93 19.2C98.75 19.2 101.05 21.5 101.05 24.33C101.05 27.16 98.75 29.45 95.93 29.45C93.1 29.45 90.8 27.16 90.8 24.33C90.8 21.5 93.1 19.2 95.93 19.2Z" />
	<path id="Layer" class="shp0" d="M-72 24C-72 10.75 -61.25 0 -48 0C-34.75 0 -24 10.75 -24 24C-24 37.25 -34.75 48 -48 48C-61.25 48 -72 37.25 -72 24Z" />
	<path id="Layer" class="shp1" d="M-35.74 18.07C-36.03 16.94 -36.9 16.05 -38 15.75C-40 15.2 -48 15.2 -48 15.2C-48 15.2 -56 15.2 -58 15.75C-59.1 16.05 -59.97 16.94 -60.26 18.07C-60.8 20.12 -60.8 24.4 -60.8 24.4C-60.8 24.4 -60.8 28.68 -60.26 30.73C-59.97 31.86 -59.1 32.75 -58 33.05C-56 33.6 -48 33.6 -48 33.6C-48 33.6 -40 33.6 -38 33.05C-36.9 32.75 -36.03 31.86 -35.74 30.73C-35.2 28.68 -35.2 24.4 -35.2 24.4C-35.2 24.4 -35.2 20.12 -35.74 18.07Z" />
	<path id="Layer" class="shp0" d="M-50.4 28.8L-50.4 20.8L-44 24.8L-50.4 28.8Z" />
</svg>
