<svg xmlns="http://www.w3.org/2000/svg" viewBox="0 0 48 48" width="48" height="48">
	<style>
		tspan { white-space:pre }
		.shp0 { fill: #00AD99 }
		.shp1 { fill: #ffffff }
	</style>
	<path id="Layer" class="shp0" d="M-144 24C-144 10.75 -133.25 0 -120 0C-106.75 0 -96 10.75 -96 24C-96 37.25 -106.75 48 -120 48C-133.25 48 -144 37.25 -144 24Z" />
	<path id="Layer" fill-rule="evenodd" class="shp1" d="M-129.72 12C-131.58 12 -132.8 13.22 -132.8 14.82C-132.8 16.39 -131.62 17.65 -129.79 17.65L-129.76 17.65C-127.86 17.65 -126.68 16.39 -126.68 14.82C-126.72 13.22 -127.86 12 -129.72 12ZM-132.48 19.88L-132.48 36.22L-127.04 36.22L-127.04 19.88L-132.48 19.88ZM-107.42 36.22L-107.42 26.85C-107.42 21.83 -110.11 19.49 -113.69 19.49C-116.57 19.49 -117.87 21.08 -118.59 22.19L-118.59 19.88L-124.03 19.88C-123.96 21.41 -124.03 36.22 -124.03 36.22L-118.59 36.22L-118.59 27.09C-118.59 26.61 -118.55 26.12 -118.41 25.77C-118.02 24.79 -117.12 23.78 -115.62 23.78C-113.65 23.78 -112.86 25.28 -112.86 27.48L-112.86 36.22L-107.42 36.22Z" />
	<path id="Layer" class="shp0" d="M-72 24C-72 10.75 -61.25 0 -48 0C-34.75 0 -24 10.75 -24 24C-24 37.25 -34.75 48 -48 48C-61.25 48 -72 37.25 -72 24Z" />
	<path id="Layer" class="shp1" d="M-48.72 19.51L-48.67 20.34L-49.51 20.24C-52.56 19.85 -55.23 18.52 -57.5 16.3L-58.61 15.2L-58.89 16.02C-59.5 17.83 -59.11 19.75 -57.85 21.03C-57.18 21.75 -57.33 21.85 -58.49 21.42C-58.89 21.29 -59.24 21.19 -59.28 21.24C-59.4 21.36 -58.99 22.9 -58.67 23.51C-58.24 24.36 -57.35 25.19 -56.37 25.68L-55.55 26.07L-56.53 26.08C-57.47 26.08 -57.5 26.1 -57.4 26.46C-57.06 27.56 -55.74 28.73 -54.26 29.24L-53.22 29.59L-54.12 30.13C-55.47 30.91 -57.05 31.35 -58.62 31.39C-59.38 31.41 -60 31.47 -60 31.52C-60 31.69 -57.95 32.64 -56.76 33.02C-53.18 34.12 -48.94 33.64 -45.75 31.76C-43.48 30.42 -41.22 27.76 -40.16 25.19C-39.59 23.81 -39.02 21.3 -39.02 20.1C-39.02 19.32 -38.97 19.22 -38.03 18.29C-37.47 17.75 -36.95 17.15 -36.85 16.98C-36.68 16.66 -36.7 16.66 -37.56 16.95C-38.98 17.46 -39.18 17.39 -38.48 16.63C-37.96 16.08 -37.34 15.1 -37.34 14.81C-37.34 14.76 -37.59 14.85 -37.87 15C-38.18 15.17 -38.85 15.42 -39.35 15.58L-40.26 15.86L-41.08 15.3C-41.53 15 -42.17 14.66 -42.51 14.56C-43.36 14.32 -44.67 14.36 -45.45 14.63C-47.54 15.39 -48.87 17.36 -48.72 19.51Z" />
	<path id="Layer" class="shp0" d="M72 24C72 10.75 82.75 0 96 0C109.25 0 120 10.75 120 24C120 37.25 109.25 48 96 48C82.75 48 72 37.25 72 24Z" />
	<path id="Layer" class="shp1" d="M98.5 38.11L98.5 25.05L102.11 25.05L102.58 20.55L98.5 20.55L98.51 18.3C98.51 17.13 98.62 16.5 100.31 16.5L102.56 16.5L102.56 12L98.95 12C94.62 12 93.1 14.18 93.1 17.85L93.1 20.56L90.4 20.56L90.4 25.05L93.1 25.05L93.1 38.11L98.5 38.11Z" />
	<path id="Layer" fill-rule="evenodd" class="shp0" d="M168 0C181.25 0 192 10.75 192 24C192 37.25 181.25 48 168 48C154.75 48 144 37.25 144 24C144 10.75 154.75 0 168 0ZM154.16 18.16L154.16 29.84C154.16 34.17 157.75 37.72 162.15 37.72L173.85 37.72C178.25 37.72 181.84 34.17 181.84 29.84L181.84 18.16C181.84 13.83 178.25 10.28 173.85 10.28L162.15 10.28C157.75 10.28 154.16 13.83 154.16 18.16ZM163.1 12.52L172.9 12.52C176.57 12.52 179.58 15.51 179.58 19.17L179.58 29.01C179.58 32.67 176.57 35.66 172.9 35.66L163.1 35.66C159.43 35.66 156.42 32.67 156.42 29.01L156.42 19.17C156.42 15.51 159.43 12.52 163.1 12.52ZM160.19 24.33C160.19 28.6 163.65 32.06 167.93 32.06C172.2 32.06 175.66 28.6 175.66 24.33C175.66 20.06 172.2 16.59 167.93 16.59C163.65 16.59 160.19 20.06 160.19 24.33ZM174.16 16.77C174.16 17.47 174.72 18.03 175.41 18.03C176.11 18.03 176.67 17.47 176.67 16.77C176.67 16.08 176.11 15.52 175.41 15.52C174.72 15.52 174.16 16.08 174.16 16.77ZM167.93 19.2C170.75 19.2 173.05 21.5 173.05 24.33C173.05 27.16 170.75 29.45 167.93 29.45C165.1 29.45 162.8 27.16 162.8 24.33C162.8 21.5 165.1 19.2 167.93 19.2Z" />
	<path id="Layer" class="shp0" d="M0 24C0 10.75 10.75 0 24 0C37.25 0 48 10.75 48 24C48 37.25 37.25 48 24 48C10.75 48 0 37.25 0 24Z" />
	<path id="Layer" class="shp1" d="M36.26 18.07C35.97 16.94 35.1 16.05 34 15.75C32 15.2 24 15.2 24 15.2C24 15.2 16 15.2 14 15.75C12.9 16.05 12.03 16.94 11.74 18.07C11.2 20.12 11.2 24.4 11.2 24.4C11.2 24.4 11.2 28.68 11.74 30.73C12.03 31.86 12.9 32.75 14 33.05C16 33.6 24 33.6 24 33.6C24 33.6 32 33.6 34 33.05C35.1 32.75 35.97 31.86 36.26 30.73C36.8 28.68 36.8 24.4 36.8 24.4C36.8 24.4 36.8 20.12 36.26 18.07Z" />
	<path id="Layer" class="shp0" d="M21.6 28.8L21.6 20.8L28 24.8L21.6 28.8Z" />
</svg>
