<svg width="201" height="250" viewBox="0 0 201 250" fill="none" xmlns="http://www.w3.org/2000/svg">
<path d="M155.108 57.7438C155.819 58.6332 156.531 59.5226 157.243 60.2341L124.691 88.1606C124.158 87.627 123.802 86.9155 123.268 86.3819C106.548 67.7049 77.7319 66.2819 59.0549 83.0022C40.3779 99.7226 38.9549 128.539 55.6752 147.215C62.2567 154.508 70.6168 159.133 79.3328 161.09L73.9965 203.602C55.3195 200.223 37.5319 190.973 24.0133 175.854C-8.53803 139.745 -5.69201 83.8916 30.5947 51.3403C66.8814 18.7889 122.557 21.635 155.108 57.7438Z" fill="#0A9B8D" fill-opacity="0.15"/>
<path d="M200.289 46.8936C200.289 45.8263 199.577 45.1148 198.51 45.1148H187.837C186.77 45.1148 186.058 46.0042 186.058 46.8936C186.058 47.9608 186.77 48.6723 187.837 48.6723H198.51C199.577 48.8502 200.289 47.9608 200.289 46.8936ZM191.395 26.0821C190.861 25.1927 189.794 24.8369 188.904 25.3706L182.679 28.9281C181.789 29.4617 181.612 30.529 181.967 31.4183C182.323 31.952 182.857 32.3077 183.568 32.3077C183.924 32.3077 184.102 32.3077 184.458 32.1298L190.683 28.5723C191.573 28.0387 191.751 26.9714 191.395 26.0821ZM180.366 36.5768C176.987 28.2166 170.05 22.1688 161.689 20.39C153.329 18.4334 144.613 20.9237 138.032 26.9714C131.628 33.0192 128.427 41.7352 129.494 50.2732C130.561 59.7006 136.609 68.0608 145.147 71.7962C148.527 73.3971 152.262 74.1086 155.82 74.1086C162.223 74.1086 168.449 71.7962 173.429 67.3493C174.141 66.6378 174.319 65.5705 173.607 64.859C172.896 64.1475 171.828 63.9697 171.117 64.6812C164.358 70.729 154.752 72.152 146.57 68.4166C139.099 65.0369 133.941 57.9219 133.051 49.7396C132.162 42.0909 134.83 34.798 140.522 29.4617C146.214 24.1254 153.685 21.9909 160.978 23.7697C168.271 25.3706 174.319 30.7068 177.165 37.8219C180.011 45.1148 179.477 53.1192 175.386 59.5228C174.852 60.4121 175.03 61.4794 175.92 62.013C176.809 62.5467 177.876 62.3688 178.41 61.4794C183.035 54.3644 183.746 44.9369 180.366 36.5768ZM176.987 13.275C177.52 12.3856 177.165 11.3183 176.275 10.7847C175.386 10.2511 174.319 10.6068 173.785 11.4962L170.227 17.7219C169.694 18.6113 170.05 19.6785 170.939 20.2121C171.295 20.39 171.473 20.39 171.828 20.39C172.362 20.39 173.074 20.0343 173.429 19.5006L176.987 13.275ZM157.776 14.3422V3.31392C157.776 2.24666 157.065 1.53516 155.997 1.53516C154.93 1.53516 154.219 2.42454 154.219 3.31392V14.1644C154.219 15.2316 154.93 15.9431 155.997 15.9431C156.887 16.121 157.776 15.2316 157.776 14.3422ZM141.412 17.7219L137.854 11.4962C137.32 10.6068 136.253 10.2511 135.364 10.7847C134.474 11.3183 134.297 12.3856 134.652 13.275L138.21 19.5006C138.566 20.0343 139.099 20.39 139.811 20.39C140.166 20.39 140.344 20.39 140.7 20.2121C141.589 19.6785 141.945 18.6113 141.412 17.7219ZM129.85 31.5962C130.383 30.7068 130.027 29.6396 129.138 29.106L122.912 25.5484C122.023 25.0148 120.956 25.3706 120.422 26.2599C119.889 27.1493 120.244 28.2166 121.134 28.7502L127.359 32.3077C127.715 32.4856 127.893 32.4856 128.249 32.4856C128.782 32.4856 129.494 32.1298 129.85 31.5962ZM123.98 45.1148H113.307C112.24 45.1148 111.528 46.0042 111.528 46.8936C111.528 47.9608 112.24 48.6723 113.307 48.6723H123.98C125.047 48.6723 125.758 47.7829 125.758 46.8936C125.758 46.0042 124.869 45.1148 123.98 45.1148ZM120.6 67.8829C120.956 68.4166 121.489 68.7723 122.201 68.7723C122.557 68.7723 122.735 68.7723 123.09 68.5944L129.316 65.0369C130.205 64.5033 130.383 63.436 130.027 62.5467C129.494 61.6573 128.427 61.3015 127.537 61.8352L121.312 65.3927C120.244 65.9263 120.066 66.9936 120.6 67.8829ZM134.83 80.69C134.297 81.5794 134.652 82.6467 135.542 83.1803C135.897 83.3582 136.075 83.3582 136.431 83.3582C136.965 83.3582 137.676 83.0024 138.032 82.4688L141.589 76.2431C142.123 75.3537 141.767 74.2865 140.878 73.7529C139.989 73.2192 138.921 73.575 138.388 74.4644L134.83 80.69ZM154.219 79.6228V90.4732C154.219 91.5405 154.93 92.252 155.997 92.252C157.065 92.252 157.776 91.3626 157.776 90.4732V79.6228C157.776 78.5555 157.065 77.844 155.997 77.844C154.93 77.844 154.219 78.7334 154.219 79.6228ZM170.405 76.2431L173.963 82.4688C174.319 83.0024 174.852 83.3582 175.564 83.3582C175.92 83.3582 176.097 83.3582 176.453 83.1803C177.343 82.6467 177.52 81.5794 177.165 80.69L173.607 74.4644C173.074 73.575 172.006 73.2192 171.117 73.7529C170.227 74.2865 169.872 75.3537 170.405 76.2431ZM182.145 62.3688C181.612 63.2582 181.967 64.3254 182.857 64.859L189.082 68.4166C189.438 68.5944 189.616 68.5944 189.972 68.5944C190.505 68.5944 191.217 68.2387 191.573 67.7051C192.106 66.8157 191.751 65.7484 190.861 65.2148L184.635 61.6573C183.746 61.3015 182.501 61.4794 182.145 62.3688Z" fill="#004990"/>
<path d="M118.288 206.804C117.22 206.804 116.331 207.693 116.331 208.761V244.158H73.9965C72.9293 244.158 72.0399 245.047 72.0399 246.115C72.0399 247.182 72.9293 248.071 73.9965 248.071H118.466C119.533 248.071 120.422 247.182 120.422 246.115V208.939C120.422 207.871 119.533 206.804 118.288 206.804ZM61.901 206.448C68.6602 206.448 74.1744 211.785 74.1744 218.366C74.1744 222.101 72.5735 224.414 70.9726 226.548C70.0833 227.616 69.1939 228.683 68.3045 229.75C67.4151 230.817 66.7036 232.24 66.7036 233.841V240.778C66.7036 241.134 66.5257 241.134 66.5257 241.312C66.5257 241.312 66.5257 241.312 66.3479 241.312C65.2806 241.312 64.3912 242.201 64.3912 243.269V244.336H59.4107V243.269C59.4107 242.201 58.5213 241.312 57.4541 241.312C57.2762 241.312 57.2762 241.312 57.2762 241.312C57.2762 241.312 57.0983 241.134 57.0983 240.778V239.355H62.7903C63.8576 239.355 64.747 238.466 64.747 237.399C64.747 236.331 63.8576 235.442 62.7903 235.442H57.0983V233.841C57.0983 232.24 56.3868 230.817 55.4974 229.75C54.608 228.683 53.7187 227.616 52.8293 226.548C51.0505 224.414 49.6275 222.101 49.6275 218.366C49.6275 211.785 55.1417 206.448 61.901 206.448ZM61.901 202.357C53.0071 202.357 45.7142 209.472 45.7142 218.366C45.7142 223.169 47.8487 226.726 49.9833 229.039C51.0505 230.284 51.9399 231.173 52.4735 232.062C53.0072 232.952 53.3629 233.485 53.3629 233.841V240.778C53.3629 241.846 53.7187 242.913 54.4302 243.802C54.7859 244.158 55.1417 244.514 55.6753 244.692V245.047C55.6753 246.115 56.2089 247.004 56.9204 247.538C57.6319 248.071 58.3434 248.427 59.2328 248.427H65.2806C66.17 248.427 66.8815 248.071 67.593 247.538C68.3045 247.004 68.8381 246.115 68.8381 245.047V244.692C69.1939 244.514 69.7275 244.158 69.9054 243.802C70.6169 242.913 70.9726 241.846 70.9726 240.778V233.841C70.9726 233.485 71.1505 232.952 71.6841 232.062C72.2178 231.173 73.1072 230.284 74.1744 229.039C76.131 226.726 78.4434 223.169 78.4434 218.366C78.0877 209.472 70.7948 202.357 61.901 202.357ZM84.847 168.383C84.4912 168.383 83.9576 168.561 83.7797 168.916L43.7576 203.78C42.8682 204.492 42.8682 205.737 43.5797 206.626C44.2912 207.516 45.5364 207.516 46.4257 206.804L85.0248 173.008L102.101 187.949C102.99 188.661 104.235 188.661 104.947 187.771C105.303 187.416 105.481 186.882 105.481 186.526V182.257H116.509V199.689C116.509 200.223 116.687 200.756 117.22 201.112L123.802 206.804C124.691 207.516 125.936 207.516 126.648 206.626C127.359 205.737 127.359 204.492 126.47 203.78L120.6 198.622V180.123C120.6 179.055 119.711 178.166 118.643 178.166H103.524C102.457 178.166 101.567 179.055 101.567 180.123V181.901L86.4479 168.739C85.7364 168.561 85.2027 168.383 84.847 168.383Z" fill="#004990"/>
</svg>
