<svg xmlns="http://www.w3.org/2000/svg" viewBox="0 0 48 48" width="48" height="48">
	<style>
		tspan { white-space:pre }
		.shp0 { fill: #004990 !important }
		.shp1 { fill: #ffffff } 
	</style>
	<path id="Layer" class="shp0" d="M24 48C37.25 48 48 37.25 48 24C48 10.75 37.25 0 24 0C10.75 0 0 10.75 0 24C0 37.25 10.75 48 24 48Z" />
	<path id="Layer" class="shp1" d="M34.21 15C34.57 15 34.91 15.1 35.21 15.3L25.12 25.54C24.75 25.9 24.26 26.08 23.79 26.01C23.77 26.01 23.75 26.01 23.73 26C23.41 25.93 23.13 25.77 22.92 25.54L12.98 15.19C13.23 15.07 13.51 15 13.79 15L34.21 15ZM12 16.76C12 16.41 12.11 16.07 12.31 15.77L21.16 24.99L12.41 31.37L12.42 31.37C12.15 31.05 12 30.65 12 30.24L12 16.76ZM13.79 32C13.58 32 13.38 31.97 13.19 31.9L21.78 25.63L22.27 26.15C22.61 26.51 23.06 26.76 23.55 26.87C23.59 26.87 23.63 26.88 23.66 26.89C23.77 26.9 23.88 26.91 24 26.91C24.66 26.9 25.3 26.63 25.76 26.15L26.24 25.66L34.94 31.85C34.71 31.95 34.46 32 34.21 32L13.79 32ZM36 30.24C36 30.61 35.88 30.97 35.66 31.27L26.87 25.03L35.8 15.96L35.8 15.96C35.93 16.21 36 16.48 36 16.76L36 30.24Z" />
</svg>