<svg width="121" height="61" viewBox="0 0 121 61" fill="none" xmlns="http://www.w3.org/2000/svg">
<path d="M61.7688 0.00653916C62.3377 0.0719307 62.9131 0.124244 63.482 0.202714C63.8809 0.255027 64.2733 0.340036 64.6656 0.418506C64.7637 0.438123 64.8553 0.490437 64.9337 0.595063C64.8356 0.595063 64.731 0.601602 64.6329 0.595063C63.7501 0.523133 62.9655 0.758542 62.2265 1.24898C61.3307 1.84404 60.4152 2.41295 59.4866 2.96224C58.0545 3.81233 56.4525 4.06736 54.8242 4.17852C53.948 4.23737 53.0652 4.24391 52.1824 4.29623C51.5677 4.32892 51.0642 4.63626 50.5934 4.99592C50.0049 5.44712 49.5733 6.0291 49.3117 6.72879C49.2921 6.78764 49.2855 6.85304 49.2594 6.9969C49.619 6.91189 49.9329 6.86611 50.2403 6.76803C50.6719 6.6307 51.0904 6.44107 51.5285 6.31682C51.6789 6.27105 51.9077 6.29721 52.032 6.38876C52.9279 6.98382 53.8106 7.5985 54.7 8.20664C54.8569 8.31127 54.9811 8.42243 54.8307 8.61207C54.3207 8.36358 53.8303 8.08894 53.3071 7.87968C51.6854 7.21923 50.0768 7.21269 48.4616 7.95815C47.5134 8.39628 46.5456 8.78863 45.5844 9.20059C45.5255 9.22675 45.4798 9.26598 45.3882 9.32484C45.6498 9.45562 45.8917 9.55371 46.1075 9.68449C46.4149 9.86759 46.4149 9.99183 46.1337 10.2011C46.0029 10.2992 45.8852 10.4234 45.7413 10.4953C45.4013 10.6719 45.3555 10.9139 45.4667 11.2735C45.7152 12.0647 46.0748 12.7579 46.8203 13.196C47.0034 13.3072 47.1603 13.3268 47.3565 13.2222C47.8796 12.941 48.4224 12.6794 48.9586 12.4179C49.0371 12.3786 49.2005 12.3721 49.2332 12.4179C49.6583 13.0325 50.1095 13.6341 50.4757 14.2815C50.7896 14.8373 50.7896 15.4389 50.5149 16.0406C50.2926 16.5441 50.1029 17.0607 49.9133 17.5184C50.443 17.9042 50.9203 18.2573 51.4042 18.6039C51.7573 18.8524 52.1235 18.9439 52.5747 18.8393C52.8363 18.7805 53.1567 18.8785 53.4248 18.9701C54.0395 19.1924 54.5496 19.5782 54.9746 20.0752C55.0335 20.1406 55.0923 20.206 55.1577 20.2779C55.1839 20.2583 55.2166 20.2452 55.2427 20.2256C54.5103 18.5843 53.7845 16.943 53.0521 15.3016C55.6154 16.871 57.5249 19.0682 59.2512 21.3765C58.7346 18.7674 58.2049 16.119 57.6753 13.4641C57.7211 13.451 57.7668 13.438 57.8126 13.4249C57.9041 13.6211 58.0088 13.8107 58.0938 14.0134C58.8327 15.7201 59.5455 17.4334 60.3171 19.127C60.8991 20.4152 61.6707 21.5858 62.6973 22.5732C62.9262 22.789 63.1878 22.9655 63.4101 23.1878C63.6324 23.4102 63.8286 23.6652 64.0379 23.9072C64.0117 23.9399 63.9856 23.9791 63.9594 24.0118C63.7371 23.9333 63.5082 23.8614 63.2859 23.7829C61.8146 23.2467 60.3629 22.6843 58.8785 22.1874C57.8649 21.8473 56.8121 21.6904 55.7397 21.6185C55.2754 21.5858 54.8046 21.3569 54.3795 21.1411C53.9937 20.9449 53.6799 20.618 53.3071 20.4022C52.5028 19.951 51.6723 19.5521 50.8746 19.0943C49.1678 18.12 47.4742 17.1195 45.774 16.1256C45.4798 15.9555 45.1724 15.8117 44.9043 15.6155C44.4531 15.282 43.9823 15.3801 43.5049 15.5043C43.2434 15.5763 43.1911 15.7332 43.3545 15.9359C43.7469 16.4133 44.1458 16.8841 44.5447 17.3615C44.597 17.4269 44.6558 17.4857 44.7539 17.6034C44.3027 17.6099 44.0085 17.3942 43.7142 17.198C43.3218 16.943 42.9622 16.6422 42.5633 16.4002C41.5628 15.7855 41.0135 16.191 40.5492 17.1784C40.4839 17.3157 40.5558 17.5773 40.6539 17.7211C41.092 18.3685 41.7394 18.6497 42.5045 18.7216C42.7856 18.7478 43.0603 18.8655 43.3349 18.9374C43.3349 18.9897 43.3349 19.0486 43.3349 19.1009C43.1649 19.1336 42.9949 19.2055 42.8314 19.1859C42.3279 19.1205 41.8244 18.9963 41.3209 18.9439C41.0135 18.9112 40.6866 18.9243 40.3858 18.9962C39.4964 19.2317 39.2022 20.2125 39.7972 21.0168C40.1177 21.4484 40.5166 21.8277 40.9024 22.2135C41.1312 22.4358 41.5301 22.4162 41.8636 22.1874C41.6151 22.0762 41.3732 21.9977 41.1639 21.8604C40.9678 21.7296 40.8174 21.54 40.68 21.3242C41.6544 21.3307 42.5698 21.5334 43.4657 21.8015C44.355 22.0697 45.2313 22.4097 46.1598 22.7301C46.0683 22.3574 45.9833 22.0108 45.8852 21.6054C45.9571 21.6577 45.9964 21.6708 46.0094 21.6969C47.9581 24.4172 50.5607 26.379 53.4379 28.0007C54.6738 28.6938 56.0078 29.2235 57.3025 29.8055C58.9112 30.5248 60.5002 31.2768 61.8538 32.4473C61.9257 32.5061 62.1023 32.5192 62.1873 32.4734C63.7305 31.6691 65.3261 30.976 67.0066 30.5248C68.3799 30.1586 69.7662 29.8774 71.1525 29.5635C71.2571 29.5374 71.3617 29.5504 71.4663 29.5439C71.5317 30.054 71.4075 30.4463 71.0609 30.7994C71.5448 31.2441 71.6691 31.8457 71.7606 32.4669C71.8718 33.2058 72.3164 33.6963 73.0096 33.9644C76.0372 35.1414 79.1302 36.1419 82.2494 37.0509C82.7137 37.1882 83.2172 37.162 83.688 37.2797C84.1261 37.3909 84.5381 37.5936 84.9631 37.744C85.2966 37.8683 85.6301 37.999 85.9767 38.0906C87.5526 38.5026 89.1351 38.9014 90.7699 39.3199C90.8222 39.0191 90.8876 38.751 90.9007 38.4764C90.9072 38.2606 91.0119 38.1952 91.1819 38.1494C92.4243 37.829 93.6537 37.3974 94.9223 37.1947C96.8971 36.8743 98.8392 37.0836 100.651 38.0383C101.991 38.7445 102.717 39.8889 102.992 41.3405C103.083 41.8179 103.122 42.3083 103.122 42.7922C103.135 45.4275 103.129 48.0628 103.129 50.6981C103.129 51.934 103.397 52.4571 104.424 53.1764C104.306 53.183 104.227 53.196 104.149 53.196C102.795 53.196 101.448 53.2026 100.095 53.1895C99.8135 53.1895 99.5258 53.1633 99.2512 53.1241C98.7673 53.0522 98.4469 52.6991 98.3684 52.1628C98.3292 51.8751 98.303 51.5809 98.303 51.2866C98.2965 49.4687 98.303 47.6508 98.303 45.8329C98.303 45.7087 98.303 45.5779 98.303 45.421C97.3417 45.421 96.5309 45.7545 95.792 46.2711C94.8307 46.9381 94.3403 47.8928 94.3337 49.0371C94.3337 49.5406 94.5038 50.0572 94.6803 50.5411C94.8503 50.9989 95.2819 51.1493 95.7658 51.182C96.4263 51.2212 97.0606 51.0904 97.6883 50.8943C97.7995 50.8616 97.9107 50.8289 98.0741 50.7766C97.9695 51.4828 97.878 52.1432 97.7733 52.8037C97.7668 52.856 97.6883 52.9214 97.6295 52.941C96.5113 53.3857 95.3604 53.6865 94.1441 53.6472C93.0455 53.608 91.9862 53.3988 91.0642 52.7579C89.776 51.862 89.3117 50.5869 89.4555 49.0764C89.6386 47.18 90.8745 46.0422 92.4243 45.179C93.8172 44.4009 95.3408 43.9693 96.9036 43.6685C97.3614 43.5835 97.8191 43.5181 98.2965 43.4396C98.2965 42.8249 98.3095 42.1972 98.2769 41.576C98.2769 41.5106 98.048 41.4125 97.9107 41.3929C97.0148 41.2686 96.1124 41.1901 95.2231 41.0397C92.8428 40.6539 90.4691 40.242 88.0954 39.8365C87.775 39.7842 87.4611 39.7254 87.1211 39.66C87.3761 40.2354 87.6246 40.7586 87.8404 41.3013C88.37 42.6091 88.4289 43.9824 88.3635 45.3687C88.2916 47.0231 87.8796 48.5794 87.0361 50.0049C85.9244 51.8882 84.2962 53.0653 82.1317 53.438C80.9023 53.6472 79.673 53.6407 78.4828 53.196C78.3913 53.1633 78.2671 53.0849 78.2474 53.0064C78.1101 52.3983 77.9924 51.7836 77.8616 51.1493C78.339 51.2801 78.751 51.4239 79.1825 51.5089C80.6538 51.8032 81.8244 51.0839 82.439 49.9657C82.9229 49.096 83.1649 48.1543 83.2499 47.1735C83.3284 46.2972 83.3611 45.4144 83.3153 44.5382C83.2433 43.3415 82.9883 42.1841 82.4129 41.1117C81.9159 40.1766 80.5688 39.4769 79.4049 39.83C78.8883 39.9869 78.3978 40.2223 77.9074 40.4381C77.6655 40.5428 77.5674 40.7259 77.5674 41.0267C77.587 47.2192 77.5935 53.4184 77.6066 59.6109C77.6066 59.9052 77.6066 60.1929 77.6066 60.5134C76.0176 60.5134 74.4547 60.5134 72.8461 60.5134C72.8461 60.376 72.8461 60.2518 72.8461 60.1275C72.8461 52.7579 72.8461 45.3817 72.8396 38.0121C72.8396 37.7375 72.9376 37.6786 73.1861 37.6459C74.2259 37.5086 75.2656 37.3386 76.2988 37.1816C76.3511 37.1751 76.3969 37.1359 76.4884 37.0966C75.7822 36.8874 75.1217 36.6847 74.4547 36.4819C70.8909 35.3965 67.3859 34.1409 63.9659 32.6369C63.6848 32.5127 63.469 32.48 63.1943 32.6762C62.7954 32.9573 62.3573 33.1862 61.9388 33.4282C61.6968 33.5655 61.4353 33.5263 61.383 33.2712C61.2326 32.5715 60.6441 32.3361 60.1471 32.0157C59.0158 31.2899 57.7734 30.7929 56.5178 30.3155C56.1713 30.1847 55.8247 30.0605 55.4847 29.9101C55.2493 29.8055 55.0858 29.8774 55.0204 30.0997C54.8961 30.4921 54.6607 30.5575 54.2749 30.5052C52.4963 30.2828 50.783 30.6163 49.109 31.1787C47.4742 31.7345 45.859 32.3557 44.2373 32.9443C44.015 33.0227 43.7861 33.0881 43.518 33.1797C43.6096 32.3296 43.0472 31.9961 42.4521 31.6495C40.595 30.5575 38.7379 29.4458 37.3124 27.7914C36.495 26.8498 35.7822 25.8231 35.0302 24.8226C34.3305 23.8941 33.5589 23.0571 32.5584 22.4358C32.3819 22.3247 32.2511 22.3116 32.0614 22.4358C31.2964 22.9132 30.5051 22.9721 29.727 22.4816C29.5046 22.3443 29.3019 22.1285 29.1711 21.9062C28.5107 20.7618 28.5434 19.6109 29.23 18.4797C29.2692 18.4143 29.3215 18.3554 29.3477 18.2835C29.57 17.7603 29.9885 17.5707 30.5247 17.5969C30.9563 17.6165 31.2964 17.5053 31.4402 17.041C31.4598 16.9691 31.571 16.9103 31.656 16.871C33.0815 16.2629 34.4286 16.5179 35.7495 17.2176C36.7369 17.7407 37.6524 18.3489 38.4894 19.0878C38.5613 19.1532 38.6464 19.199 38.7837 19.3036C38.8491 18.7543 39.248 18.4927 39.6076 18.1985C39.6599 18.1527 39.6795 18.0415 39.6861 17.9631C39.6926 17.9173 39.6599 17.8584 39.6403 17.8061C39.261 16.8579 39.7907 16.2433 40.5492 15.8182C40.85 15.6482 41.2032 15.5959 41.5236 15.4586C41.8309 15.3212 42.1252 15.1643 42.4064 14.9877C42.9687 14.6281 43.59 14.5365 44.185 14.7523C44.9566 15.0401 45.6759 15.4455 46.4214 15.7986C46.8595 16.0079 47.2976 16.2106 47.7685 16.4329C47.9189 15.8182 47.7619 15.3474 47.52 14.8897C47.1145 14.105 46.4018 13.7322 45.6171 13.4576C45.3948 13.3791 45.1724 13.2876 44.9566 13.1895C44.5185 12.9868 44.2112 12.6925 44.0673 12.189C43.9169 11.6789 43.6096 11.2147 43.3938 10.7177C43.3349 10.5869 43.3545 10.4234 43.3284 10.2403C43.8254 10.3123 44.0804 10.5934 44.2439 10.94C44.4008 11.2735 44.5381 11.6201 44.6297 11.9797C44.7081 12.2871 44.8912 12.3917 45.2509 12.4244C45.1659 12.1301 45.1005 11.862 45.0155 11.607C44.7801 10.9008 44.4858 10.2272 44.015 9.64526C43.8188 9.40331 43.93 9.05673 44.2308 8.93903C45.5517 8.43551 46.8726 7.92546 48.1935 7.42848C48.4028 7.35001 48.527 7.23885 48.5924 7.01651C48.8867 5.99641 49.5537 5.23133 50.4691 4.76705C51.9077 4.03466 53.0259 2.96878 53.9937 1.7198C54.8046 0.673533 55.9097 0.359654 57.1587 0.333497C57.5772 0.326958 57.9892 0.333497 58.4077 0.333497C58.4142 0.366193 58.4273 0.392349 58.4338 0.425045C58.1657 0.634298 57.8911 0.843551 57.623 1.05934C56.969 1.59555 56.3086 2.11869 55.6678 2.67451C54.9615 3.2892 54.0984 3.59 53.2417 3.91042C52.9605 4.01504 52.6728 4.10005 52.3851 4.19814C52.3916 4.22429 52.3982 4.25699 52.4047 4.28315C52.9802 4.17198 53.5556 4.06736 54.1311 3.95619C55.5958 3.66847 56.7271 2.79876 57.8518 1.88328C58.5384 1.32091 59.2904 0.837012 60.0424 0.359654C60.3367 0.176557 60.7094 0.117705 61.0429 0C61.2914 0.00653916 61.5334 0.00653916 61.7688 0.00653916ZM45.3294 25.8035C45.264 25.8231 45.1986 25.8297 45.1463 25.8558C44.4204 26.1566 43.6946 26.1239 43.021 25.7381C41.8636 25.0711 40.7258 24.3649 39.5749 23.6783C37.9859 22.7301 36.3969 21.7885 34.8144 20.8403C34.3763 20.5787 33.9251 20.5133 33.5066 20.8534C33.2385 21.0757 33.0161 21.3569 32.7611 21.6315C32.8788 21.7362 32.9442 21.795 33.0096 21.8408C35.0106 23.3121 36.8677 24.9534 38.6398 26.6928C39.2741 27.3141 39.9542 27.8633 40.7389 28.2819C41.5955 28.7396 42.4456 29.1973 43.2826 29.6747C43.4461 29.7662 43.5507 29.9559 43.6815 30.0997C43.6619 30.1455 43.6423 30.1847 43.6226 30.2305C44.1327 30.1521 44.6493 30.0997 45.1593 29.9886C46.513 29.6943 47.8208 29.2954 48.9521 28.4192C49.3248 28.1315 49.8218 27.9876 50.2795 27.8241C50.5541 27.726 50.8615 27.7195 51.2015 27.6672C50.0049 26.7255 48.8409 25.8101 47.6311 24.8619C47.4742 25.5746 47.1342 26.0912 46.4999 26.379C45.8656 26.6601 45.0155 26.6601 44.6558 26.379C45.1528 26.2547 45.2901 26.1435 45.3294 25.8035ZM34.8537 19.6109C36.7565 20.6507 38.6333 21.6708 40.51 22.6974C40.4969 22.6778 40.4773 22.6451 40.4512 22.6189C39.503 21.6315 38.5548 20.6507 37.6001 19.6632C36.5015 18.532 35.2983 17.5707 33.6701 17.3418C33.0619 17.2568 32.4669 17.2111 32.0287 17.7734C31.4925 18.4666 31.3814 19.2774 31.486 20.1144C31.5318 20.4806 31.8391 20.7422 32.153 20.7814C32.5257 20.8338 32.7415 20.6049 32.8461 20.3106C33.0554 19.7548 33.5197 19.5063 34.0036 19.2774C34.3632 19.1074 34.7359 19.0747 35.1021 19.2709C35.161 19.3036 35.2133 19.4017 35.2198 19.4736C35.2198 19.5128 35.1218 19.5717 35.0564 19.5913C34.9975 19.6175 34.9321 19.6044 34.8537 19.6109ZM98.1068 40.9286C97.8387 40.3074 97.4398 39.9085 96.8905 39.6796C96.1189 39.3526 95.3146 39.4115 94.5168 39.4965C94.0199 39.5488 93.5294 39.6469 93.039 39.7254C93.039 39.7581 93.039 39.7908 93.039 39.8169C94.6999 40.1766 96.3674 40.5493 98.1068 40.9286ZM29.4654 20.2125C29.4458 21.0495 29.7727 21.455 30.2762 21.7427C30.4005 21.8146 30.6228 21.8669 30.7078 21.8015C30.8648 21.6838 30.9432 21.5204 30.8648 21.2457C30.6817 20.6441 30.577 20.0098 30.4855 19.3821C30.4463 19.1466 30.5313 18.8916 30.5313 18.6431C30.5313 18.5712 30.4463 18.4666 30.3743 18.4339C30.3286 18.4143 30.1978 18.4731 30.1716 18.5254C29.8512 19.1336 29.485 19.7221 29.4654 20.2125ZM57.6884 21.213C56.8186 19.9313 56.0209 18.6039 54.8896 17.538C55.3408 18.5189 55.877 19.454 56.3151 20.4349C56.6029 21.0757 57.126 21.1346 57.6884 21.213ZM42.2233 22.6778C42.8576 23.1159 43.0995 22.9982 44.0542 22.4882C43.603 22.3835 43.2238 22.2854 42.8379 22.207C42.7987 22.2004 42.7399 22.2397 42.7006 22.2658C42.5437 22.3966 42.3933 22.5274 42.2233 22.6778ZM78.9537 37.7375C78.4698 37.6132 78.0774 37.5151 77.6655 37.404C77.6655 37.744 77.6655 38.0317 77.6655 38.3456C78.084 38.1494 78.4828 37.9663 78.9537 37.7375ZM48.7951 15.8117C48.7559 15.8182 48.7232 15.8182 48.6839 15.8248C48.6382 16.1125 48.5793 16.3937 48.5597 16.6814C48.5401 17.0476 48.7166 17.1522 49.109 17.0083C49.0305 16.6029 49.0763 16.1583 48.7951 15.8117Z" fill="white"/>
<path d="M0.00653915 31.5579C0.0915481 31.5383 0.170018 31.5056 0.255027 31.5056C1.67402 31.5056 3.08648 31.5056 4.50548 31.5056C4.55779 31.5056 4.6101 31.5187 4.70165 31.5318C4.70165 34.9517 4.70165 38.3586 4.70165 41.7655C4.72127 41.7721 4.74743 41.7786 4.76704 41.7852C5.2117 41.249 5.66291 40.7127 6.10757 40.17C7.91891 37.9728 9.7368 35.7691 11.5481 33.572C12.0647 32.9442 12.5813 32.3099 13.111 31.6887C13.1895 31.5972 13.3399 31.5121 13.4576 31.5056C14.7458 31.4925 16.0275 31.4991 17.3157 31.4991C17.3549 31.4991 17.3941 31.5056 17.5119 31.5187C14.7916 34.7425 12.1171 37.9271 9.42946 41.1116C12.3263 45.1071 15.2297 49.1025 18.1592 53.1502C17.9957 53.1568 17.9042 53.1698 17.8127 53.1698C16.0667 53.1698 14.3273 53.1633 12.5813 53.1764C12.2871 53.1764 12.1171 53.0914 11.9536 52.8429C9.66487 49.4098 7.36963 45.9833 5.06784 42.5502C4.97629 42.4129 4.87821 42.2756 4.70165 42.1579C4.70165 42.2821 4.70165 42.4064 4.70165 42.5306C4.70165 45.9245 4.70165 49.3248 4.70165 52.7186C4.70165 53.1698 4.70165 53.1698 4.23737 53.1698C2.94916 53.1698 1.66748 53.1698 0.379271 53.1698C0.255027 53.1698 0.124244 53.1306 0 53.1175C0.00653915 45.931 0.00653915 38.7445 0.00653915 31.5579Z" fill="white"/>
<path d="M46.3101 47.9255C45.4992 47.4024 44.7669 46.8334 44.2045 46.088C42.8247 44.257 42.8574 41.6675 44.296 39.8562C45.4077 38.4633 46.8856 37.6721 48.6053 37.319C49.1089 37.2144 49.6385 37.1882 50.1551 37.1882C52.4307 37.1751 54.7064 37.1817 56.982 37.1817C57.0997 37.1817 57.2174 37.1817 57.3547 37.1817C57.3547 38.0252 57.3547 38.8295 57.3547 39.6665C56.6943 39.5684 56.0534 39.4704 55.3537 39.3657C55.5892 39.7058 55.7919 39.9804 55.9815 40.2681C57.8059 43.0407 56.6354 46.2122 54.1767 47.762C53.0781 48.4552 51.8553 48.7887 50.5671 48.8017C49.8543 48.8083 49.1416 48.7233 48.4288 48.6906C48.3503 48.684 48.2261 48.7625 48.1868 48.8344C48.0364 49.1221 47.8926 49.4164 47.7814 49.7172C47.631 50.103 47.7226 50.3254 48.128 50.43C48.6184 50.5542 49.1219 50.6523 49.6255 50.6981C51.2864 50.855 52.967 50.8943 54.5952 51.2997C55.5368 51.5351 56.4392 51.8751 57.1586 52.5683C57.9236 53.3072 58.1525 54.2358 58.0936 55.2428C58.0086 56.6749 57.4594 57.8912 56.3477 58.8263C55.3864 59.6306 54.2552 60.0948 53.0454 60.3695C51.3191 60.7618 49.5731 60.7553 47.8403 60.4937C46.8725 60.3499 45.9243 60.0818 44.9696 59.8529C44.865 59.8267 44.7276 59.7483 44.7015 59.6698C44.4857 58.9832 44.2895 58.29 44.0737 57.5577C44.8715 57.7669 45.6104 57.9631 46.3493 58.1527C47.3956 58.4143 48.4549 58.532 49.5339 58.5647C50.6456 58.5974 51.7114 58.4012 52.7119 57.9304C53.0716 57.7604 53.4116 57.4792 53.6666 57.1784C54.0721 56.701 54.0067 56.2041 53.5686 55.7528C53.0258 55.1905 52.3065 54.9355 51.5807 54.7785C50.6848 54.5823 49.7628 54.5039 48.8538 54.3665C47.873 54.2161 46.8725 54.1246 45.9047 53.8957C44.7407 53.6211 43.8841 52.5029 43.9364 51.4435C43.9626 50.8158 44.2176 50.2534 44.6034 49.7761C45.0677 49.2006 45.5908 48.6775 46.0943 48.1347C46.1532 48.0693 46.2186 48.0105 46.3101 47.9255ZM47.5133 43.1781C47.5264 43.335 47.546 43.6293 47.5918 43.917C47.7226 44.7736 47.9776 45.5845 48.5138 46.2842C49.2789 47.2781 51.1491 47.4874 51.8553 46.0161C51.9076 45.9114 51.9599 45.8003 52.0057 45.6956C52.7708 43.8254 52.7708 41.9814 51.803 40.1831C51.4564 39.5358 50.9594 39.0388 50.1617 39.0126C49.22 38.9799 48.4615 39.49 48.0561 40.4185C47.6899 41.249 47.5329 42.1318 47.5133 43.1781Z" fill="white"/>
<path d="M120 53.1634C118.385 53.1634 116.815 53.1634 115.2 53.1634C115.2 52.9933 115.2 52.8364 115.2 52.6729C115.2 49.7891 115.207 46.9054 115.2 44.0216C115.2 43.2434 115.187 42.4652 114.919 41.7067C114.618 40.8435 114.049 40.3008 113.14 40.2092C112.5 40.1438 111.904 40.3923 111.349 40.6997C110.322 41.2686 110.329 41.2686 110.329 42.426C110.329 45.8656 110.329 49.3052 110.329 52.7448C110.329 52.8756 110.329 52.9999 110.329 53.1503C108.733 53.1503 107.177 53.1503 105.581 53.1503C105.575 53.026 105.568 52.9083 105.568 52.7972C105.568 47.8666 105.568 42.9361 105.562 38.0055C105.562 37.7832 105.627 37.7113 105.843 37.6786C107.118 37.4824 108.386 37.2601 109.655 37.0508C109.864 37.0181 110.08 36.9919 110.315 36.9593C110.315 37.6459 110.315 38.2932 110.315 38.9995C110.688 38.7771 111.022 38.5875 111.355 38.3848C112.284 37.8224 113.265 37.3974 114.35 37.2731C115.808 37.1097 117.227 37.1816 118.372 38.2802C119.189 39.0583 119.621 40.0523 119.797 41.1443C119.921 41.9094 119.987 42.6941 119.993 43.4723C120.013 46.5653 120 49.6518 120 52.7448C120 52.8822 120 53.0064 120 53.1634Z" fill="white"/>
<path d="M41.4518 53.1634C39.8562 53.1634 38.2803 53.1634 36.6717 53.1634C36.6717 53.0326 36.6717 52.9149 36.6717 52.7972C36.6717 49.7368 36.6978 46.6765 36.6521 43.6227C36.6455 42.923 36.4559 42.2103 36.2662 41.5237C35.9851 40.5036 34.9584 40.0393 33.9448 40.2616C33.1863 40.4251 32.5324 40.8109 31.9439 41.3013C31.8523 41.3733 31.8065 41.5433 31.8065 41.6741C31.8 45.3425 31.8 49.011 31.8 52.6795C31.8 52.8364 31.8 52.9933 31.8 53.1634C30.2044 53.1634 28.6612 53.1634 27.0918 53.1634C27.0918 48.0236 27.0918 42.8838 27.0918 37.7113C28.622 37.4628 30.1652 37.2078 31.7542 36.9463C31.7542 37.6394 31.7542 38.2999 31.7542 39.0192C32.1793 38.7707 32.552 38.568 32.9182 38.3391C34.3437 37.4563 35.8935 37.077 37.5545 37.2471C38.7773 37.3713 39.7516 37.9533 40.4317 38.9865C41.1118 40.0197 41.4126 41.1902 41.4322 42.4064C41.478 45.8787 41.4649 49.351 41.4714 52.8233C41.4714 52.941 41.4583 53.0457 41.4518 53.1634Z" fill="white"/>
<path d="M58.833 50.4234C59.3627 50.613 59.8727 50.7961 60.3828 50.9662C61.4617 51.3323 62.5668 51.5351 63.7046 51.4762C64.3389 51.4435 64.9471 51.28 65.4898 50.9335C66.778 50.1095 66.7846 48.5205 65.4571 47.7489C64.5678 47.2323 63.6196 46.8269 62.6911 46.3822C61.6252 45.8722 60.6312 45.264 59.8008 44.4074C59.2123 43.8058 58.9572 43.08 58.8984 42.2691C58.7218 39.7712 60.4155 38.2214 62.3249 37.5805C64.509 36.8416 66.6734 36.9724 68.8052 37.829C69.0602 37.9337 69.1975 38.0841 69.2629 38.3587C69.4133 38.9995 69.5899 39.6273 69.7795 40.3466C69.5964 40.2616 69.4722 40.2158 69.3545 40.157C68.1447 39.5881 66.9088 39.1499 65.5487 39.2023C64.9667 39.2219 64.4109 39.3592 63.927 39.7123C63.2404 40.2158 63.0115 41.3275 63.8812 41.9356C64.4566 42.341 65.0844 42.668 65.7056 43.0015C66.7257 43.5573 67.7785 44.0412 68.7725 44.6428C69.7337 45.2248 70.4923 46.0422 70.78 47.1604C71.3489 49.3575 70.5119 51.8947 67.8701 52.9279C66.8042 53.3464 65.6991 53.4968 64.5613 53.5491C62.8676 53.621 61.2394 53.2941 59.6373 52.7775C59.4346 52.7121 59.3234 52.6009 59.2711 52.3786C59.1403 51.7901 58.9768 51.2016 58.833 50.613C58.8264 50.5607 58.833 50.5084 58.833 50.4234Z" fill="white"/>
<path d="M101.494 23.1355C100.553 23.1747 99.6112 23.2597 98.6695 23.2467C95.655 23.2205 92.6339 23.2401 89.6259 23.0963C87.1606 22.9786 84.7019 22.6908 82.2497 22.4227C80.1376 22.1873 78.0712 21.7361 76.031 21.1411C73.8404 20.5002 71.9244 19.369 70.1393 17.9892C67.1182 15.6547 64.4175 12.9802 61.8476 10.1618C61.8345 10.1488 61.828 10.1226 61.7822 10.0311C62.0699 10.2011 62.3054 10.3319 62.5342 10.4757C65.3591 12.2348 68.4064 13.523 71.5255 14.6608C75.3575 16.0601 79.0652 17.7538 82.6682 19.6763C84.1069 20.4479 85.5389 21.2391 87.1541 21.5792C88.6843 21.8931 90.221 22.2004 91.7707 22.4097C94.5564 22.7889 97.3617 22.9001 100.167 22.9655C100.612 22.9786 101.05 23.0047 101.494 23.0309C101.494 23.0636 101.494 23.0963 101.494 23.1355Z" fill="white"/>
<path d="M19.5 37.7048C21.0825 37.4432 22.6388 37.1882 24.2213 36.9332C24.2213 42.3607 24.2213 47.7489 24.2213 53.1568C22.6388 53.1568 21.0759 53.1568 19.5 53.1568C19.5 48.0105 19.5 42.8773 19.5 37.7048Z" fill="white"/>
<path d="M90.9463 17.8126C89.8477 18.2442 88.7361 18.2181 87.631 18.1331C84.5707 17.9042 81.7196 16.956 78.9863 15.6024C76.0633 14.1507 73.0487 12.9214 69.9034 12.0255C68.6021 11.6528 67.3008 11.2473 66.0388 10.7634C64.7309 10.2665 62.7169 9.0371 61.5464 8.11508C61.6641 8.15431 61.7883 8.18701 61.906 8.23278C63.5866 8.82785 65.326 9.12865 67.085 9.35752C70.9954 9.87411 74.8928 10.5084 78.7051 11.5678C80.778 12.1432 82.6547 13.0914 84.3614 14.3861C84.9499 14.8308 85.5123 15.3081 86.042 15.8182C87.0163 16.7729 88.2064 17.2307 89.5273 17.453C89.8804 17.5118 90.2336 17.5838 90.5801 17.6688C90.6978 17.7015 90.8155 17.7669 90.9463 17.8126Z" fill="white"/>
<path d="M61.7885 11.7443C61.9846 11.9601 62.1808 12.1694 62.377 12.3852C64.6722 14.8896 66.9871 17.368 69.5112 19.6502C70.6163 20.6506 71.8849 21.4026 73.2058 22.0762C75.8607 23.4167 78.6007 24.5545 81.406 25.5223C82.7988 25.9997 84.2636 26.1697 85.7153 26.3332C87.1866 26.5032 88.6579 26.6405 90.1292 26.7974C90.2469 26.8105 90.3581 26.8432 90.4823 26.9478C90.3646 26.9871 90.2535 27.0329 90.1358 27.059C87.9321 27.5102 85.7153 27.7849 83.4658 27.7783C82.2168 27.7783 80.9613 27.8633 79.7123 27.8241C77.659 27.7652 75.658 27.4187 73.8467 26.3855C72.6173 25.6858 71.5907 24.718 70.5836 23.7371C67.0198 20.2583 64.221 16.204 61.7885 11.8882C61.7688 11.8555 61.7558 11.8162 61.7427 11.7836C61.7558 11.7705 61.7754 11.7574 61.7885 11.7443Z" fill="white"/>
<path d="M82.923 10.7634C82.6615 10.783 82.3999 10.8223 82.1383 10.8157C80.8043 10.7896 79.5488 10.4299 78.3325 9.88064C75.7365 8.71013 72.9966 8.11507 70.1586 7.96467C68.89 7.89928 67.6149 7.81427 66.3397 7.82735C64.7638 7.85351 63.2402 7.60502 61.7492 7.14728C60.7226 6.8334 59.709 6.46721 58.6889 6.12717C58.5974 6.09448 58.5189 6.0487 58.4404 5.96369C58.8524 6.00293 59.2644 6.02255 59.6698 6.09448C60.7226 6.29065 61.7296 6.12717 62.7497 5.83945C64.718 5.28362 66.6994 4.80627 68.7396 4.56432C70.1259 4.40084 71.5122 4.30929 72.892 4.61009C74.4875 4.95667 75.8607 5.75444 77.0966 6.79417C77.8094 7.39577 78.5156 8.01045 79.1761 8.6709C80.0066 9.49483 80.994 9.99181 82.0926 10.3188C82.3672 10.4038 82.6418 10.5019 82.9165 10.5934C82.923 10.6653 82.923 10.7111 82.923 10.7634Z" fill="white"/>
<path d="M47.3501 22.0631C48.6318 22.8674 49.8219 23.639 51.0382 24.3714C52.9215 25.5027 54.8636 26.5163 56.9365 27.2683C58.8525 27.9549 60.7881 28.1118 62.7694 27.6214C62.861 27.6018 62.9525 27.5887 63.0833 27.5691C63.116 28.563 62.3771 28.89 61.7166 29.2758C61.7232 29.3085 61.7362 29.3477 61.7428 29.3804C62.1417 29.2954 62.5536 29.2562 62.9329 29.1189C64.5677 28.5434 65.2805 27.5233 65.3001 25.7708C65.3066 25.3392 65.3001 24.9076 65.3001 24.3845C66.8956 25.6269 68.4389 26.8367 70.054 28.0922C69.4655 28.3145 68.9751 28.4715 68.5108 28.6873C66.6733 29.5243 64.8423 30.3809 63.0114 31.231C62.9198 31.2702 62.8217 31.3029 62.7498 31.3683C62.2398 31.7999 61.8016 31.6626 61.285 31.3226C59.1729 29.9363 56.8776 28.8834 54.6282 27.7456C52.3787 26.6013 50.3058 25.1888 48.5337 23.3775C48.4291 23.2663 48.3179 23.1617 48.2198 23.0505C47.9452 22.7366 47.6771 22.4293 47.3501 22.0631Z" fill="white"/>
<path d="M73.8337 3.89078C73.6114 3.9104 73.3891 3.97579 73.1798 3.94964C72.4147 3.84501 71.6496 3.74692 70.8976 3.5769C68.7724 3.09955 66.7387 3.44612 64.7051 4.08696C63.4103 4.49239 62.0959 4.8455 60.7881 5.18554C59.3822 5.55173 56.76 5.33594 55.4849 4.73433C55.5895 4.7278 55.7007 4.72126 55.8053 4.71472C56.8123 4.61009 57.8193 4.53816 58.8198 4.40084C59.7615 4.27659 60.5265 3.72077 61.3243 3.25649C62.5929 2.51102 63.8681 1.79172 65.2413 1.26204C66.621 0.732373 67.9943 0.843538 69.3021 1.41898C70.2633 1.84403 71.1592 2.41294 72.0616 2.94915C72.6044 3.2761 73.1275 3.62922 73.7683 3.73384C73.7945 3.74038 73.8141 3.77308 73.8337 3.7927C73.8272 3.82539 73.8272 3.85809 73.8337 3.89078Z" fill="white"/>
<path d="M19.1596 32.4669C19.1335 30.9891 20.2517 29.7074 22.0107 29.7858C23.3643 29.8447 24.5414 31.0152 24.5414 32.4211C24.5414 33.8925 23.3185 35.1088 21.8276 35.0826C20.1863 35.0564 19.1138 33.7813 19.1596 32.4669Z" fill="white"/>
<path d="M47.5527 10.7177C48.344 9.65179 49.2398 8.87363 50.4496 8.5336C50.685 8.4682 50.9727 8.60553 51.2408 8.63822C51.9536 8.71669 52.6598 8.80824 53.3726 8.85402C53.8696 8.88671 53.9742 8.99134 53.8957 9.54717C53.523 9.54717 53.1503 9.54717 52.7775 9.54717C52.7514 9.86105 52.9345 9.97221 53.1503 10.0768C53.7976 10.3842 54.4515 10.6784 55.0728 11.025C55.694 11.3716 56.1256 11.8882 56.2237 12.6337C56.2564 12.8887 56.3479 13.1372 56.4264 13.4576C55.8444 12.9083 55.3213 12.3982 54.7785 11.9209C54.2358 11.4435 53.6407 11.0381 52.9868 10.7242C52.9672 10.7438 52.9475 10.77 52.9279 10.7896C53.0064 10.8812 53.0849 10.9792 53.1633 11.0643C53.6538 11.6005 54.1507 12.1367 54.6281 12.686C54.772 12.856 54.8766 13.0718 54.9616 13.281C55.0205 13.4249 55.0008 13.5949 54.9747 13.7715C52.8495 11.9143 50.5869 10.4692 47.5527 10.7177Z" fill="white"/>
<path d="M28.3996 20.2256C28.4323 20.7814 28.4127 21.2719 28.5042 21.7492C28.7135 22.8413 29.9363 23.4821 30.9826 23.0767C31.1199 23.0244 31.3095 22.8609 31.388 23.0963C31.4272 23.214 31.3422 23.456 31.2376 23.5279C30.4595 24.0641 29.5113 24.2734 28.707 23.6391C28.0596 23.129 27.7195 22.4751 27.7719 21.6315C27.798 21.2065 27.7522 20.7749 28.1184 20.4545C28.1969 20.3825 28.2885 20.3171 28.3996 20.2256Z" fill="white"/>
<path d="M50.8027 17.3418C51.4174 16.5571 51.6398 15.6417 51.6398 14.6608C51.6398 14.3927 51.7836 14.36 51.9733 14.445C52.1956 14.5431 52.3525 14.6869 52.3591 14.9812C52.3656 15.6874 52.2806 16.3675 51.8621 16.9626C51.7509 17.1195 51.6332 17.283 51.4959 17.4138C51.2278 17.6623 51.0512 17.6361 50.8027 17.3418Z" fill="white"/>
</svg>
