<svg xmlns="http://www.w3.org/2000/svg" viewBox="0 0 1393 1263" width="1393" height="1263">
	<defs>
		<clipPath clipPathUnits="userSpaceOnUse" id="cp1">
			<path d="M1351 155L1351 235L111 235L111 155L1351 155Z" />
		</clipPath>
		<clipPath clipPathUnits="userSpaceOnUse" id="cp2">
			<path d="M1350 346L1350 426L112.86 426L112.86 346L1350 346Z" />
		</clipPath>
		<clipPath clipPathUnits="userSpaceOnUse" id="cp3">
			<path d="M799.22 537L799.22 617L112.86 617L112.86 537L799.22 537Z" />
		</clipPath>
		<clipPath clipPathUnits="userSpaceOnUse" id="cp4">
			<path d="M916.22 554L916.22 586L113.22 586L113.22 554L916.22 554Z" />
		</clipPath>
		<clipPath clipPathUnits="userSpaceOnUse" id="cp5">
			<path d="M916.22 586L916.22 617L112.22 617L112.22 586L916.22 586Z" />
		</clipPath>
		<clipPath clipPathUnits="userSpaceOnUse" id="cp6">
			<path d="M1381 235L1381 315L113 315L113 235L1381 235Z" />
		</clipPath>
		<clipPath clipPathUnits="userSpaceOnUse" id="cp7">
			<path d="M1319.87 252L1319.87 284L112.87 284L112.87 252L1319.87 252Z" />
		</clipPath>
		<clipPath clipPathUnits="userSpaceOnUse" id="cp8">
			<path d="M1319.87 284L1319.87 315L111.87 315L111.87 284L1319.87 284Z" />
		</clipPath>
		<clipPath clipPathUnits="userSpaceOnUse" id="cp9">
			<path d="M1204 426L1204 506L112 506L112 426L1204 426Z" />
		</clipPath>
		<clipPath clipPathUnits="userSpaceOnUse" id="cp10">
			<path d="M1318.87 443L1318.87 475L111.87 475L111.87 443L1318.87 443Z" />
		</clipPath>
		<clipPath clipPathUnits="userSpaceOnUse" id="cp11">
			<path d="M1318.87 475L1318.87 506L110.87 506L110.87 475L1318.87 475Z" />
		</clipPath>
		<clipPath clipPathUnits="userSpaceOnUse" id="cp12">
			<path d="M1108 617L1108 697L112 697L112 617L1108 617Z" />
		</clipPath>
		<clipPath clipPathUnits="userSpaceOnUse" id="cp13">
			<path d="M1318.87 634L1318.87 666L111.87 666L111.87 634L1318.87 634Z" />
		</clipPath>
		<clipPath clipPathUnits="userSpaceOnUse" id="cp14">
			<path d="M1318.87 666L1318.87 697L110.87 697L110.87 666L1318.87 666Z" />
		</clipPath>
		<clipPath clipPathUnits="userSpaceOnUse" id="cp15">
			<path d="M465 728L465 808L126.85 808L126.85 728L465 728Z" />
		</clipPath>
		<clipPath clipPathUnits="userSpaceOnUse" id="cp16">
			<path d="M1041 808L1041 888L126 888L126 808L1041 808Z" />
		</clipPath>
		<clipPath clipPathUnits="userSpaceOnUse" id="cp17">
			<path d="M1332.87 825L1332.87 857L125.87 857L125.87 825L1332.87 825Z" />
		</clipPath>
		<clipPath clipPathUnits="userSpaceOnUse" id="cp18">
			<path d="M1332.87 857L1332.87 888L124.87 888L124.87 857L1332.87 857Z" />
		</clipPath>
		<clipPath clipPathUnits="userSpaceOnUse" id="cp19">
			<path d="M454.6 728L454.6 808L112.86 808L112.86 728L454.6 728Z" />
		</clipPath>
		<clipPath clipPathUnits="userSpaceOnUse" id="cp20">
			<path d="M915.6 745L915.6 777L112.6 777L112.6 745L915.6 745Z" />
		</clipPath>
		<clipPath clipPathUnits="userSpaceOnUse" id="cp21">
			<path d="M915.6 777L915.6 808L111.6 808L111.6 777L915.6 777Z" />
		</clipPath>
		<clipPath clipPathUnits="userSpaceOnUse" id="cp22">
			<path d="M1036.71 808L1036.71 888L112 888L112 808L1036.71 808Z" />
		</clipPath>
		<clipPath clipPathUnits="userSpaceOnUse" id="cp23">
			<path d="M1318.58 825L1318.58 857L111.58 857L111.58 825L1318.58 825Z" />
		</clipPath>
		<clipPath clipPathUnits="userSpaceOnUse" id="cp24">
			<path d="M1318.58 857L1318.58 888L110.58 888L110.58 857L1318.58 857Z" />
		</clipPath>
		<clipPath clipPathUnits="userSpaceOnUse" id="cp25">
			<path d="M399.01 919L399.01 999L112.86 999L112.86 919L399.01 919Z" />
		</clipPath>
		<clipPath clipPathUnits="userSpaceOnUse" id="cp26">
			<path d="M916.01 936L916.01 968L113.01 968L113.01 936L916.01 936Z" />
		</clipPath>
		<clipPath clipPathUnits="userSpaceOnUse" id="cp27">
			<path d="M916.01 968L916.01 999L112.01 999L112.01 968L916.01 968Z" />
		</clipPath>
		<clipPath clipPathUnits="userSpaceOnUse" id="cp28">
			<path d="M1037 999L1037 1079L112 1079L112 999L1037 999Z" />
		</clipPath>
		<clipPath clipPathUnits="userSpaceOnUse" id="cp29">
			<path d="M1318.87 1016L1318.87 1048L111.87 1048L111.87 1016L1318.87 1016Z" />
		</clipPath>
		<clipPath clipPathUnits="userSpaceOnUse" id="cp30">
			<path d="M1318.87 1048L1318.87 1079L110.87 1079L110.87 1048L1318.87 1048Z" />
		</clipPath>
	</defs>
	<style>
		tspan { white-space:pre }
		.shp0 { fill: #00ad99 } 
		.shp1 { opacity: 0.302;fill: #00ad99 } 
		.shp2 { fill: #ffffff } 
		.shp3 { fill: #004990 } 
		.shp4 { fill: none;stroke: #00ad99;stroke-width: 3 } 
		.shp5 { opacity: 0.149;fill: #00ad99 } 
		.shp6 { opacity: 0.149;fill: #004990 } 
	</style>
	<g id="Clip-Path" clip-path="url(#cp1)">
		<g id="Layer">
			<path id="Layer" class="shp0" d="M1096 172L1096 204L111 204L111 172L1096 172Z" />
			<path id="Layer" class="shp1" d="M1096 204L1096 235L110 235L110 204L1096 204Z" />
			<path id="Layer" fill-rule="evenodd" class="shp0" d="M1136.08 194.2L1147.12 194.2L1147.12 196.12L1139.9 211L1136.46 211L1143.26 197.08L1136.08 197.08L1136.08 194.2ZM1150.78 207.02C1151.5 207.78 1152.53 208.36 1153.66 208.36C1154.4 208.36 1155.12 208.1 1155.67 207.59C1156.25 207.06 1156.61 206.3 1156.61 205.43C1156.61 204.52 1156.23 203.7 1155.58 203.15C1155.05 202.7 1154.33 202.48 1153.54 202.48C1152.72 202.48 1151.79 202.79 1151.07 203.39L1149.05 203.1L1150.13 194.2L1159.01 194.2L1159.01 197.08L1152.77 197.08L1152.51 199.72C1152.84 199.65 1153.35 199.6 1153.8 199.6C1155.1 199.6 1156.54 199.91 1157.71 200.87C1159.03 201.93 1159.85 203.63 1159.85 205.43C1159.85 208.74 1157.04 211.24 1153.66 211.24C1151.71 211.24 1150.03 210.54 1148.57 209.08L1150.78 207.02ZM1166.94 193.96C1169.53 193.96 1171.5 195.95 1171.5 198.4C1171.5 200.85 1169.53 202.84 1166.94 202.84C1164.35 202.84 1162.38 200.85 1162.38 198.4C1162.38 195.95 1164.35 193.96 1166.94 193.96ZM1166.94 196.6C1165.91 196.6 1165.26 197.42 1165.26 198.4C1165.26 199.38 1165.91 200.2 1166.94 200.2C1167.97 200.2 1168.62 199.38 1168.62 198.4C1168.62 197.42 1167.97 196.6 1166.94 196.6ZM1178.58 202.36C1181.17 202.36 1183.14 204.35 1183.14 206.8C1183.14 209.25 1181.17 211.24 1178.58 211.24C1175.99 211.24 1174.02 209.25 1174.02 206.8C1174.02 204.35 1175.99 202.36 1178.58 202.36ZM1178.58 205C1177.55 205 1176.9 205.82 1176.9 206.8C1176.9 207.78 1177.55 208.6 1178.58 208.6C1179.61 208.6 1180.26 207.78 1180.26 206.8C1180.26 205.82 1179.61 205 1178.58 205ZM1166.56 211L1176.37 194.2L1179.04 194.2L1169.22 211L1166.56 211Z" />
			<path id="Layer" fill-rule="evenodd" class="shp2" d="M149.65 212.8L135.45 212.8L135.45 211.32L150.45 192L152.05 192L152.05 210.52L156.65 210.52L156.65 212.8L152.05 212.8L152.05 220L149.65 220L149.65 212.8ZM149.65 210.52L149.65 196.8L139.01 210.52L149.65 210.52ZM175.9 192L175.9 194.28L164.7 194.28L163.54 202.52C164.7 201.96 166.02 201.6 167.46 201.6C172.78 201.6 176.86 205.8 176.86 211C176.86 216.16 172.82 220.4 167.54 220.4C164.26 220.4 161.34 218.76 159.66 216.28L161.54 215C162.82 216.84 164.98 218.12 167.5 218.12C171.58 218.12 174.46 214.84 174.46 211C174.46 207.08 171.38 203.88 167.34 203.88C165.42 203.88 163.66 204.68 162.38 205.84L160.78 205.6L162.7 192L175.9 192ZM192.92 209.64C192.08 209.92 191.12 210.08 190.04 210.08C184.68 210.08 180.88 205.92 180.88 200.84C180.88 195.6 184.88 191.6 190.2 191.6C195.52 191.64 199.48 195.72 199.48 200.68C199.48 203.2 198.48 205.24 197.52 206.72L188.92 220L186.2 220L192.92 209.64ZM195.36 205.8C196.12 204.56 197.08 203 197.08 200.84C197.08 196.96 194.16 193.88 190.12 193.88C186.24 193.88 183.28 196.92 183.28 200.84C183.28 204.8 186.16 207.8 190.2 207.8C192.2 207.8 194 207.04 195.36 205.8Z" />
		</g>
	</g>
	<g id="Clip-Path" clip-path="url(#cp2)">
		<g id="Layer">
			<path id="Layer" class="shp0" d="M916 363L916 395L113 395L113 363L916 363Z" />
			<path id="Layer" class="shp1" d="M916 395L916 426L112 426L112 395L916 395Z" />
			<path id="Layer" fill-rule="evenodd" class="shp0" d="M970.27 386.2L967.1 391.55L967.32 391.55C970.51 391.55 973.2 393.98 973.2 397.34C973.2 400.6 970.49 403.24 967.22 403.24C964.08 403.24 961.08 401.01 961.08 397.5C961.08 395.85 961.85 394.36 962.74 392.87L966.7 386.2L970.27 386.2ZM964.2 397.5C964.2 399.09 965.54 400.36 967.18 400.36C968.83 400.36 970.01 399.04 970.01 397.43C970.01 395.82 968.81 394.43 967.01 394.43C966.41 394.43 965.83 394.55 965.21 394.84C964.75 395.46 964.2 396.38 964.2 397.5ZM977.58 403L980.74 397.65L980.53 397.65C977.34 397.65 974.65 395.22 974.65 391.86C974.65 388.6 977.36 385.96 980.62 385.96C983.77 385.96 986.77 388.19 986.77 391.7C986.77 393.35 986 394.84 985.11 396.33L981.15 403L977.58 403ZM983.65 391.7C983.65 390.11 982.3 388.84 980.67 388.84C979.02 388.84 977.84 390.16 977.84 391.77C977.84 393.38 979.04 394.77 980.84 394.77C981.44 394.77 982.02 394.65 982.64 394.36C983.1 393.74 983.65 392.82 983.65 391.7ZM993.6 385.96C996.2 385.96 998.16 387.95 998.16 390.4C998.16 392.85 996.2 394.84 993.6 394.84C991.01 394.84 989.04 392.85 989.04 390.4C989.04 387.95 991.01 385.96 993.6 385.96ZM993.6 388.6C992.57 388.6 991.92 389.42 991.92 390.4C991.92 391.38 992.57 392.2 993.6 392.2C994.64 392.2 995.28 391.38 995.28 390.4C995.28 389.42 994.64 388.6 993.6 388.6ZM1005.24 394.36C1007.84 394.36 1009.8 396.35 1009.8 398.8C1009.8 401.25 1007.84 403.24 1005.24 403.24C1002.65 403.24 1000.68 401.25 1000.68 398.8C1000.68 396.35 1002.65 394.36 1005.24 394.36ZM1005.24 397C1004.21 397 1003.56 397.82 1003.56 398.8C1003.56 399.78 1004.21 400.6 1005.24 400.6C1006.28 400.6 1006.92 399.78 1006.92 398.8C1006.92 397.82 1006.28 397 1005.24 397ZM993.22 403L1003.04 386.2L1005.7 386.2L995.88 403L993.22 403Z" />
		</g>
	</g>
	<g id="Clip-Path" clip-path="url(#cp3)">
		<g id="Layer">
			<g id="Clip-Path" clip-path="url(#cp4)">
				<g id="Layer">
					<path id="Layer" class="shp0" d="M916.22 554L916.22 586L113.22 586L113.22 554L916.22 554Z" />
				</g>
			</g>
			<g id="Clip-Path" clip-path="url(#cp5)">
				<g id="Layer">
					<path id="Layer" class="shp1" d="M916.22 586L916.22 617L112.22 617L112.22 586L916.22 586Z" />
				</g>
			</g>
		</g>
	</g>
	<g id="Clip-Path" clip-path="url(#cp6)">
		<g id="Layer">
			<g id="Clip-Path" clip-path="url(#cp7)">
				<g id="Layer">
					<path id="Layer" class="shp3" d="M1319.87 252L1319.87 284L112.87 284L112.87 252L1319.87 252Z" />
				</g>
			</g>
			<g id="Clip-Path" clip-path="url(#cp8)">
				<g id="Layer" style="opacity: 0.302">
					<path id="Layer" class="shp3" d="M1319.87 284L1319.87 315L111.87 315L111.87 284L1319.87 284Z" />
				</g>
			</g>
			<path id="Layer" fill-rule="evenodd" class="shp2" d="M143.76 280.36C144.6 280.08 145.56 279.92 146.64 279.92C152 279.92 155.8 284.08 155.8 289.16C155.8 294.4 151.8 298.4 146.48 298.4C141.16 298.36 137.2 294.28 137.2 289.32C137.2 286.8 138.2 284.76 139.16 283.28L147.76 270L150.48 270L143.76 280.36ZM141.32 284.2C140.56 285.44 139.6 287 139.6 289.16C139.6 293.04 142.52 296.12 146.56 296.12C150.44 296.12 153.4 293.08 153.4 289.16C153.4 285.2 150.52 282.2 146.48 282.2C144.48 282.2 142.68 282.96 141.32 284.2ZM159.43 273.76L165.63 270L167.23 270L167.23 298L164.83 298L164.83 273.16L159.43 276.16L159.43 273.76ZM175.44 273.76L181.64 270L183.24 270L183.24 298L180.84 298L180.84 273.16L175.44 276.16L175.44 273.76Z" />
		</g>
	</g>
	<g id="Clip-Path" clip-path="url(#cp9)">
		<g id="Layer">
			<g id="Clip-Path" clip-path="url(#cp10)">
				<g id="Layer">
					<path id="Layer" class="shp3" d="M1318.87 443L1318.87 475L111.87 475L111.87 443L1318.87 443Z" />
				</g>
			</g>
			<g id="Clip-Path" clip-path="url(#cp11)">
				<g id="Layer" style="opacity: 0.302">
					<path id="Layer" class="shp3" d="M1318.87 475L1318.87 506L110.87 506L110.87 475L1318.87 475Z" />
				</g>
			</g>
		</g>
	</g>
	<g id="Clip-Path" clip-path="url(#cp12)">
		<g id="Layer">
			<g id="Clip-Path" clip-path="url(#cp13)">
				<g id="Layer">
					<path id="Layer" class="shp3" d="M1318.87 634L1318.87 666L111.87 666L111.87 634L1318.87 634Z" />
				</g>
			</g>
			<g id="Clip-Path" clip-path="url(#cp14)">
				<g id="Layer" style="opacity: 0.302">
					<path id="Layer" class="shp3" d="M1318.87 666L1318.87 697L110.87 697L110.87 666L1318.87 666Z" />
				</g>
			</g>
		</g>
	</g>
	<path id="Layer" fill-rule="evenodd" class="shp2" d="M133.8 581C134.6 577.44 137.52 574.6 141.6 574.6C146.28 574.6 149.6 577.96 149.6 582.48C149.6 584.96 148.64 587.04 146.32 589.84L137.32 600.72L150 600.72L150 603L133.6 603L133.6 601.52L144.32 588.64C146.6 585.92 147.2 584.2 147.2 582.56C147.2 579.28 144.88 576.88 141.68 576.88C138.68 576.88 136.64 578.84 135.96 581.76L133.8 581ZM167 595.8L152.79 595.8L152.79 594.32L167.79 575L169.4 575L169.4 593.52L174 593.52L174 595.8L169.4 595.8L169.4 603L167 603L167 595.8ZM167 593.52L167 579.8L156.35 593.52L167 593.52ZM178.14 597.76C179.42 599.8 181.7 601.12 184.62 601.12C188.82 601.12 191.54 597.8 191.54 594C191.54 589.92 188.34 586.88 184.1 586.88C182.58 586.88 181.62 587.16 181.26 587.28L181.26 585.8L188.66 577.28L177.54 577.28L177.54 575L192.34 575L192.34 576.48L185.22 584.72C190.26 585.08 193.94 589.08 193.94 594C193.94 599.04 190.14 603.4 184.62 603.4C180.94 603.4 177.9 601.76 176.22 599L178.14 597.76Z" />
	<path id="Layer" fill-rule="evenodd" class="shp2" d="M146.8 673.8L132.6 673.8L132.6 672.32L147.6 653L149.2 653L149.2 671.52L153.8 671.52L153.8 673.8L149.2 673.8L149.2 681L146.8 681L146.8 673.8ZM146.8 671.52L146.8 657.8L136.16 671.52L146.8 671.52ZM156.03 659C156.83 655.44 159.75 652.6 163.83 652.6C168.51 652.6 171.83 655.96 171.83 660.48C171.83 662.96 170.87 665.04 168.55 667.84L159.55 678.72L172.23 678.72L172.23 681L155.83 681L155.83 679.52L166.55 666.64C168.83 663.92 169.43 662.2 169.43 660.56C169.43 657.28 167.11 654.88 163.91 654.88C160.91 654.88 158.87 656.84 158.19 659.76L156.03 659ZM189.22 673.8L175.02 673.8L175.02 672.32L190.02 653L191.62 653L191.62 671.52L196.22 671.52L196.22 673.8L191.62 673.8L191.62 681L189.22 681L189.22 673.8ZM189.22 671.52L189.22 657.8L178.58 671.52L189.22 671.52Z" />
	<path id="Layer" class="shp4" d="M0 92.5L1381 92.5" />
	<path id="Layer" class="shp4" d="M12 1135.5L1393 1135.5" />
	<path id="Layer" fill-rule="evenodd" class="shp3" d="M19.64 248L2.72 248C2.68 247.64 2.68 247.32 2.68 247.2C2.68 245.04 3.32 242.92 4.48 241.32C5.68 239.6 7.24 238.4 11.2 236.08C15.72 233.44 16.96 231.88 16.96 228.8C16.96 225.48 15 223.52 11.64 223.52C7.92 223.52 6.04 225.68 6 230L3.28 230C3.32 224.36 6.48 221.04 11.76 221.04C16.56 221.04 19.76 224.04 19.76 228.64C19.76 230.76 19.04 232.68 17.64 234.24C16.6 235.4 15.24 236.4 12.68 237.92C7.28 241 5.92 242.44 5.36 245.72L19.64 245.72L19.64 248ZM40.58 225.12C41.86 227.56 42.34 230.32 42.34 234.96C42.34 239.2 41.78 242.08 40.58 244.44C39.22 247 36.62 248.52 33.58 248.52C30.58 248.52 27.98 247 26.62 244.44C25.38 242.04 24.86 239.2 24.86 234.8C24.86 230.36 25.42 227.44 26.62 225.12C28.02 222.56 30.58 221.04 33.58 221.04C36.66 221.04 39.22 222.52 40.58 225.12ZM28.9 226.28C27.98 228.28 27.54 230.92 27.54 234.76C27.54 238.64 27.98 241.28 28.9 243.28C29.78 245.08 31.58 246.24 33.62 246.24C37.7 246.24 39.66 242.56 39.66 234.92C39.66 230.88 39.22 228.24 38.3 226.28C37.38 224.44 35.62 223.32 33.58 223.32C31.58 223.32 29.78 224.44 28.9 226.28ZM64.41 248L47.49 248C47.45 247.64 47.45 247.32 47.45 247.2C47.45 245.04 48.09 242.92 49.25 241.32C50.45 239.6 52.01 238.4 55.97 236.08C60.49 233.44 61.73 231.88 61.73 228.8C61.73 225.48 59.77 223.52 56.41 223.52C52.69 223.52 50.81 225.68 50.77 230L48.05 230C48.09 224.36 51.25 221.04 56.53 221.04C61.33 221.04 64.53 224.04 64.53 228.64C64.53 230.76 63.81 232.68 62.41 234.24C61.37 235.4 60.01 236.4 57.45 237.92C52.05 241 50.69 242.44 50.13 245.72L64.41 245.72L64.41 248ZM85.35 225.12C86.63 227.56 87.11 230.32 87.11 234.96C87.11 239.2 86.55 242.08 85.35 244.44C83.99 247 81.39 248.52 78.35 248.52C75.35 248.52 72.75 247 71.39 244.44C70.15 242.04 69.63 239.2 69.63 234.8C69.63 230.36 70.19 227.44 71.39 225.12C72.79 222.56 75.35 221.04 78.35 221.04C81.43 221.04 83.99 222.52 85.35 225.12ZM73.67 226.28C72.75 228.28 72.31 230.92 72.31 234.76C72.31 238.64 72.75 241.28 73.67 243.28C74.55 245.08 76.35 246.24 78.39 246.24C82.47 246.24 84.43 242.56 84.43 234.92C84.43 230.88 83.99 228.24 83.07 226.28C82.15 224.44 80.39 223.32 78.35 223.32C76.35 223.32 74.55 224.44 73.67 226.28Z" />
	<path id="Layer" fill-rule="evenodd" class="shp3" d="M19.64 439L2.72 439C2.68 438.64 2.68 438.32 2.68 438.2C2.68 436.04 3.32 433.92 4.48 432.32C5.68 430.6 7.24 429.4 11.2 427.08C15.72 424.44 16.96 422.88 16.96 419.8C16.96 416.48 15 414.52 11.64 414.52C7.92 414.52 6.04 416.68 6 421L3.28 421C3.32 415.36 6.48 412.04 11.76 412.04C16.56 412.04 19.76 415.04 19.76 419.64C19.76 421.76 19.04 423.68 17.64 425.24C16.6 426.4 15.24 427.4 12.68 428.92C7.28 432 5.92 433.44 5.36 436.72L19.64 436.72L19.64 439ZM40.58 416.12C41.86 418.56 42.34 421.32 42.34 425.96C42.34 430.2 41.78 433.08 40.58 435.44C39.22 438 36.62 439.52 33.58 439.52C30.58 439.52 27.98 438 26.62 435.44C25.38 433.04 24.86 430.2 24.86 425.8C24.86 421.36 25.42 418.44 26.62 416.12C28.02 413.56 30.58 412.04 33.58 412.04C36.66 412.04 39.22 413.52 40.58 416.12ZM28.9 417.28C27.98 419.28 27.54 421.92 27.54 425.76C27.54 429.64 27.98 432.28 28.9 434.28C29.78 436.08 31.58 437.24 33.62 437.24C37.7 437.24 39.66 433.56 39.66 425.92C39.66 421.88 39.22 419.24 38.3 417.28C37.38 415.44 35.62 414.32 33.58 414.32C31.58 414.32 29.78 415.44 28.9 417.28ZM58.77 439L56.17 439L56.17 419.04L49.97 419.04L49.97 417.32C54.41 417.28 56.41 415.84 56.77 412.32L58.77 412.32L58.77 439ZM72.63 432.72C72.99 435.64 74.79 437.24 77.59 437.24C80.11 437.24 82.07 435.88 83.19 433.32C84.11 431.24 84.63 428.68 84.63 426.16L84.63 425.32C82.87 428.16 80.63 429.48 77.55 429.48C72.79 429.48 69.51 426 69.51 420.92C69.51 415.72 73.03 412.04 78.07 412.04C80.75 412.04 83.11 413.12 84.63 415.12C86.35 417.4 87.19 420.56 87.19 424.92C87.19 434.16 83.67 439.52 77.55 439.52C73.39 439.52 70.47 436.88 70.03 432.72L72.63 432.72ZM72.31 420.76C72.31 424.64 74.55 427.2 77.99 427.2C81.35 427.2 83.87 424.48 83.87 420.84C83.87 417 81.43 414.32 77.95 414.32C74.55 414.32 72.31 416.88 72.31 420.76Z" />
	<path id="Layer" fill-rule="evenodd" class="shp3" d="M19.64 630L2.72 630C2.68 629.64 2.68 629.32 2.68 629.2C2.68 627.04 3.32 624.92 4.48 623.32C5.68 621.6 7.24 620.4 11.2 618.08C15.72 615.44 16.96 613.88 16.96 610.8C16.96 607.48 15 605.52 11.64 605.52C7.92 605.52 6.04 607.68 6 612L3.28 612C3.32 606.36 6.48 603.04 11.76 603.04C16.56 603.04 19.76 606.04 19.76 610.64C19.76 612.76 19.04 614.68 17.64 616.24C16.6 617.4 15.24 618.4 12.68 619.92C7.28 623 5.92 624.44 5.36 627.72L19.64 627.72L19.64 630ZM40.58 607.12C41.86 609.56 42.34 612.32 42.34 616.96C42.34 621.2 41.78 624.08 40.58 626.44C39.22 629 36.62 630.52 33.58 630.52C30.58 630.52 27.98 629 26.62 626.44C25.38 624.04 24.86 621.2 24.86 616.8C24.86 612.36 25.42 609.44 26.62 607.12C28.02 604.56 30.58 603.04 33.58 603.04C36.66 603.04 39.22 604.52 40.58 607.12ZM28.9 608.28C27.98 610.28 27.54 612.92 27.54 616.76C27.54 620.64 27.98 623.28 28.9 625.28C29.78 627.08 31.58 628.24 33.62 628.24C37.7 628.24 39.66 624.56 39.66 616.92C39.66 612.88 39.22 610.24 38.3 608.28C37.38 606.44 35.62 605.32 33.58 605.32C31.58 605.32 29.78 606.44 28.9 608.28ZM58.77 630L56.17 630L56.17 610.04L49.97 610.04L49.97 608.32C54.41 608.28 56.41 606.84 56.77 603.32L58.77 603.32L58.77 630ZM87.23 622.6C87.23 627.28 83.63 630.52 78.35 630.52C73.07 630.52 69.47 627.28 69.47 622.56C69.47 619.24 71.07 616.92 74.23 615.56C71.71 614.28 70.55 612.56 70.55 610C70.55 605.92 73.79 603.04 78.35 603.04C82.91 603.04 86.15 605.92 86.15 610C86.15 612.56 85.03 614.28 82.47 615.56C85.63 616.92 87.23 619.24 87.23 622.6ZM73.07 610C73.07 612.68 75.31 614.68 78.35 614.68C81.35 614.68 83.63 612.68 83.63 610.04C83.63 607.32 81.43 605.32 78.35 605.32C75.31 605.32 73.07 607.32 73.07 610ZM72.15 622.48C72.15 625.8 74.79 628.24 78.35 628.24C81.91 628.24 84.55 625.8 84.55 622.56C84.55 619.16 81.99 616.76 78.35 616.76C74.75 616.76 72.15 619.2 72.15 622.48Z" />
	<path id="Layer" fill-rule="evenodd" class="shp0" d="M842.17 590.02C842.89 590.78 843.92 591.36 845.05 591.36C845.79 591.36 846.51 591.1 847.06 590.59C847.64 590.06 848 589.3 848 588.43C848 587.52 847.62 586.7 846.97 586.15C846.44 585.7 845.72 585.48 844.93 585.48C844.11 585.48 843.18 585.79 842.46 586.39L840.44 586.1L841.52 577.2L850.4 577.2L850.4 580.08L844.16 580.08L843.9 582.72C844.23 582.65 844.74 582.6 845.19 582.6C846.49 582.6 847.93 582.91 849.1 583.87C850.42 584.93 851.24 586.63 851.24 588.43C851.24 591.74 848.43 594.24 845.05 594.24C843.1 594.24 841.42 593.54 839.96 592.08L842.17 590.02ZM853.42 577.2L864.46 577.2L864.46 579.12L857.23 594L853.8 594L860.59 580.08L853.42 580.08L853.42 577.2ZM870.94 576.96C873.53 576.96 875.5 578.95 875.5 581.4C875.5 583.85 873.53 585.84 870.94 585.84C868.35 585.84 866.38 583.85 866.38 581.4C866.38 578.95 868.35 576.96 870.94 576.96ZM870.94 579.6C869.91 579.6 869.26 580.42 869.26 581.4C869.26 582.38 869.91 583.2 870.94 583.2C871.97 583.2 872.62 582.38 872.62 581.4C872.62 580.42 871.97 579.6 870.94 579.6ZM882.58 585.36C885.17 585.36 887.14 587.35 887.14 589.8C887.14 592.25 885.17 594.24 882.58 594.24C879.99 594.24 878.02 592.25 878.02 589.8C878.02 587.35 879.99 585.36 882.58 585.36ZM882.58 588C881.55 588 880.9 588.82 880.9 589.8C880.9 590.78 881.55 591.6 882.58 591.6C883.61 591.6 884.26 590.78 884.26 589.8C884.26 588.82 883.61 588 882.58 588ZM870.56 594L880.37 577.2L883.04 577.2L873.22 594L870.56 594Z" />
	<g id="Clip-Path" clip-path="url(#cp15)">
		<g id="Layer">
			<path id="Layer" class="shp0" d="M930 745L930 777L127 777L127 745L930 745Z" />
			<path id="Layer" class="shp5" d="M930 777L930 808L126 808L126 777L930 777Z" />
		</g>
	</g>
	<g id="Clip-Path" clip-path="url(#cp16)">
		<g id="Layer">
			<g id="Clip-Path" clip-path="url(#cp17)">
				<g id="Layer">
					<path id="Layer" class="shp3" d="M1332.87 825L1332.87 857L125.87 857L125.87 825L1332.87 825Z" />
				</g>
			</g>
			<g id="Clip-Path" clip-path="url(#cp18)">
				<g id="Layer" style="opacity: 0.149">
					<path id="Layer" class="shp3" d="M1332.87 857L1332.87 888L124.87 888L124.87 857L1332.87 857Z" />
				</g>
			</g>
		</g>
	</g>
	<path id="Layer" fill-rule="evenodd" class="shp3" d="M19.64 821L2.72 821C2.68 820.64 2.68 820.32 2.68 820.2C2.68 818.04 3.32 815.92 4.48 814.32C5.68 812.6 7.24 811.4 11.2 809.08C15.72 806.44 16.96 804.88 16.96 801.8C16.96 798.48 15 796.52 11.64 796.52C7.92 796.52 6.04 798.68 6 803L3.28 803C3.32 797.36 6.48 794.04 11.76 794.04C16.56 794.04 19.76 797.04 19.76 801.64C19.76 803.76 19.04 805.68 17.64 807.24C16.6 808.4 15.24 809.4 12.68 810.92C7.28 814 5.92 815.44 5.36 818.72L19.64 818.72L19.64 821ZM40.58 798.12C41.86 800.56 42.34 803.32 42.34 807.96C42.34 812.2 41.78 815.08 40.58 817.44C39.22 820 36.62 821.52 33.58 821.52C30.58 821.52 27.98 820 26.62 817.44C25.38 815.04 24.86 812.2 24.86 807.8C24.86 803.36 25.42 800.44 26.62 798.12C28.02 795.56 30.58 794.04 33.58 794.04C36.66 794.04 39.22 795.52 40.58 798.12ZM28.9 799.28C27.98 801.28 27.54 803.92 27.54 807.76C27.54 811.64 27.98 814.28 28.9 816.28C29.78 818.08 31.58 819.24 33.62 819.24C37.7 819.24 39.66 815.56 39.66 807.92C39.66 803.88 39.22 801.24 38.3 799.28C37.38 797.44 35.62 796.32 33.58 796.32C31.58 796.32 29.78 797.44 28.9 799.28ZM58.77 821L56.17 821L56.17 801.04L49.97 801.04L49.97 799.32C54.41 799.28 56.41 797.84 56.77 794.32L58.77 794.32L58.77 821ZM86.95 796.88C82.03 801.88 77.55 812.32 76.59 821L73.71 821C75.15 811.76 78.79 803.48 84.11 797.12L70.11 797.12L70.11 794.6L86.95 794.6L86.95 796.88Z" />
	<path id="Layer" fill-rule="evenodd" class="shp0" d="M492.93 776.68C493.62 777.66 494.78 778.36 496.05 778.36C497.63 778.36 499.19 777.11 499.19 775.31C499.19 773.56 497.75 772.24 495.88 772.24C495.21 772.24 494.49 772.41 493.86 772.72L493.86 770.8L497.01 767.08L491.39 767.08L491.39 764.2L501.59 764.2L501.59 766.12L498.54 769.86C500.85 770.75 502.43 772.77 502.43 775.31C502.43 778.86 499.65 781.24 496.17 781.24C494.08 781.24 492.09 780.3 490.6 778.62L492.93 776.68ZM506.69 776.68C507.38 777.66 508.53 778.36 509.81 778.36C511.39 778.36 512.95 777.11 512.95 775.31C512.95 773.56 511.51 772.24 509.64 772.24C508.97 772.24 508.25 772.41 507.62 772.72L507.62 770.8L510.77 767.08L505.15 767.08L505.15 764.2L515.35 764.2L515.35 766.12L512.3 769.86C514.61 770.75 516.19 772.77 516.19 775.31C516.19 778.86 513.41 781.24 509.93 781.24C507.84 781.24 505.85 780.3 504.36 778.62L506.69 776.68ZM523.28 763.96C525.87 763.96 527.84 765.95 527.84 768.4C527.84 770.85 525.87 772.84 523.28 772.84C520.68 772.84 518.72 770.85 518.72 768.4C518.72 765.95 520.68 763.96 523.28 763.96ZM523.28 766.6C522.24 766.6 521.6 767.42 521.6 768.4C521.6 769.38 522.24 770.2 523.28 770.2C524.31 770.2 524.96 769.38 524.96 768.4C524.96 767.42 524.31 766.6 523.28 766.6ZM534.92 772.36C537.51 772.36 539.48 774.35 539.48 776.8C539.48 779.25 537.51 781.24 534.92 781.24C532.32 781.24 530.36 779.25 530.36 776.8C530.36 774.35 532.32 772.36 534.92 772.36ZM534.92 775C533.88 775 533.24 775.82 533.24 776.8C533.24 777.78 533.88 778.6 534.92 778.6C535.95 778.6 536.6 777.78 536.6 776.8C536.6 775.82 535.95 775 534.92 775ZM522.89 781L532.71 764.2L535.37 764.2L525.56 781L522.89 781Z" />
	<g id="Clip-Path" clip-path="url(#cp19)">
		<g id="Layer">
			<g id="Clip-Path" clip-path="url(#cp20)">
				<g id="Layer">
					<path id="Layer" class="shp0" d="M915.6 745L915.6 777L112.6 777L112.6 745L915.6 745Z" />
				</g>
			</g>
			<g id="Clip-Path" clip-path="url(#cp21)">
				<g id="Layer">
					<path id="Layer" class="shp1" d="M915.6 777L915.6 808L111.6 808L111.6 777L915.6 777Z" />
				</g>
			</g>
		</g>
	</g>
	<g id="Clip-Path" clip-path="url(#cp22)">
		<g id="Layer">
			<g id="Clip-Path" clip-path="url(#cp23)">
				<g id="Layer">
					<path id="Layer" class="shp3" d="M1318.58 825L1318.58 857L111.58 857L111.58 825L1318.58 825Z" />
				</g>
			</g>
			<g id="Clip-Path" clip-path="url(#cp24)">
				<g id="Layer" style="opacity: 0.302">
					<path id="Layer" class="shp3" d="M1318.58 857L1318.58 888L110.58 888L110.58 857L1318.58 857Z" />
				</g>
			</g>
		</g>
	</g>
	<g id="Clip-Path" clip-path="url(#cp25)">
		<g id="Layer">
			<g id="Clip-Path" clip-path="url(#cp26)">
				<g id="Layer">
					<path id="Layer" class="shp0" d="M916.01 936L916.01 968L113.01 968L113.01 936L916.01 936Z" />
				</g>
			</g>
			<g id="Clip-Path" clip-path="url(#cp27)">
				<g id="Layer">
					<path id="Layer" class="shp1" d="M916.01 968L916.01 999L112.01 999L112.01 968L916.01 968Z" />
				</g>
			</g>
		</g>
	</g>
	<g id="Clip-Path" clip-path="url(#cp28)">
		<g id="Layer">
			<g id="Clip-Path" clip-path="url(#cp29)">
				<g id="Layer">
					<path id="Layer" class="shp3" d="M1318.87 1016L1318.87 1048L111.87 1048L111.87 1016L1318.87 1016Z" />
				</g>
			</g>
			<g id="Clip-Path" clip-path="url(#cp30)">
				<g id="Layer" style="opacity: 0.302">
					<path id="Layer" class="shp3" d="M1318.87 1048L1318.87 1079L110.87 1079L110.87 1048L1318.87 1048Z" />
				</g>
			</g>
		</g>
	</g>
	<path id="Layer" fill-rule="evenodd" class="shp3" d="M19.64 1012L2.72 1012C2.68 1011.64 2.68 1011.32 2.68 1011.2C2.68 1009.04 3.32 1006.92 4.48 1005.32C5.68 1003.6 7.24 1002.4 11.2 1000.08C15.72 997.44 16.96 995.88 16.96 992.8C16.96 989.48 15 987.52 11.64 987.52C7.92 987.52 6.04 989.68 6 994L3.28 994C3.32 988.36 6.48 985.04 11.76 985.04C16.56 985.04 19.76 988.04 19.76 992.64C19.76 994.76 19.04 996.68 17.64 998.24C16.6 999.4 15.24 1000.4 12.68 1001.92C7.28 1005 5.92 1006.44 5.36 1009.72L19.64 1009.72L19.64 1012ZM40.58 989.12C41.86 991.56 42.34 994.32 42.34 998.96C42.34 1003.2 41.78 1006.08 40.58 1008.44C39.22 1011 36.62 1012.52 33.58 1012.52C30.58 1012.52 27.98 1011 26.62 1008.44C25.38 1006.04 24.86 1003.2 24.86 998.8C24.86 994.36 25.42 991.44 26.62 989.12C28.02 986.56 30.58 985.04 33.58 985.04C36.66 985.04 39.22 986.52 40.58 989.12ZM28.9 990.28C27.98 992.28 27.54 994.92 27.54 998.76C27.54 1002.64 27.98 1005.28 28.9 1007.28C29.78 1009.08 31.58 1010.24 33.62 1010.24C37.7 1010.24 39.66 1006.56 39.66 998.92C39.66 994.88 39.22 992.24 38.3 990.28C37.38 988.44 35.62 987.32 33.58 987.32C31.58 987.32 29.78 988.44 28.9 990.28ZM58.77 1012L56.17 1012L56.17 992.04L49.97 992.04L49.97 990.32C54.41 990.28 56.41 988.84 56.77 985.32L58.77 985.32L58.77 1012ZM84.03 991.88C83.67 988.96 81.91 987.32 79.11 987.32C76.59 987.32 74.63 988.68 73.51 991.28C72.59 993.32 72.07 995.92 72.07 998.44L72.07 999.28C73.83 996.44 76.03 995.12 79.15 995.12C83.91 995.12 87.19 998.6 87.19 1003.64C87.19 1008.84 83.67 1012.52 78.63 1012.52C75.95 1012.52 73.59 1011.4 72.07 1009.44C70.35 1007.2 69.51 1004 69.51 999.64C69.51 990.4 73.03 985.04 79.15 985.04C83.31 985.04 86.23 987.72 86.67 991.88L84.03 991.88ZM72.83 1003.76C72.83 1007.56 75.27 1010.24 78.75 1010.24C82.15 1010.24 84.39 1007.68 84.39 1003.8C84.39 999.96 82.15 997.4 78.71 997.4C75.35 997.4 72.83 1000.08 72.83 1003.76Z" />
	<path id="Layer" fill-rule="evenodd" class="shp0" d="M440.08 961.85C440.8 959.54 442.91 957.96 445.38 957.96C448.26 957.96 450.76 960.12 450.76 963.14C450.76 965.18 449.73 966.67 448.6 967.97L445.02 972.12L450.88 972.12L450.88 975L439.96 975L439.96 973.08L445.86 966.38C447.16 964.92 447.52 963.96 447.52 963.1C447.52 961.92 446.61 960.84 445.34 960.84C444.21 960.84 443.39 961.61 443.06 962.74L440.08 961.85ZM453.16 969.79C453.16 967.82 454.19 966.46 455.58 965.54C454.87 964.9 454.24 963.96 454.24 962.59C454.24 960.02 456.33 957.96 459.16 957.96C461.99 957.96 464.08 960.02 464.08 962.59C464.08 963.96 463.46 964.9 462.74 965.54C464.13 966.46 465.16 967.82 465.16 969.79C465.16 972.84 462.52 975.24 459.16 975.24C455.8 975.24 453.16 972.84 453.16 969.79ZM461.92 969.79C461.92 968.35 460.75 967.2 459.16 967.2C457.58 967.2 456.4 968.35 456.4 969.79C456.4 971.23 457.58 972.36 459.16 972.36C460.75 972.36 461.92 971.23 461.92 969.79ZM460.84 962.59C460.84 961.63 460.17 960.84 459.16 960.84C458.15 960.84 457.48 961.63 457.48 962.59C457.48 963.55 458.15 964.32 459.16 964.32C460.17 964.32 460.84 963.55 460.84 962.59ZM472.11 957.96C474.7 957.96 476.67 959.95 476.67 962.4C476.67 964.85 474.7 966.84 472.11 966.84C469.52 966.84 467.55 964.85 467.55 962.4C467.55 959.95 469.52 957.96 472.11 957.96ZM472.11 960.6C471.08 960.6 470.43 961.42 470.43 962.4C470.43 963.38 471.08 964.2 472.11 964.2C473.14 964.2 473.79 963.38 473.79 962.4C473.79 961.42 473.14 960.6 472.11 960.6ZM483.75 966.36C486.34 966.36 488.31 968.35 488.31 970.8C488.31 973.25 486.34 975.24 483.75 975.24C481.16 975.24 479.19 973.25 479.19 970.8C479.19 968.35 481.16 966.36 483.75 966.36ZM483.75 969C482.72 969 482.07 969.82 482.07 970.8C482.07 971.78 482.72 972.6 483.75 972.6C484.78 972.6 485.43 971.78 485.43 970.8C485.43 969.82 484.78 969 483.75 969ZM471.73 975L481.54 958.2L484.21 958.2L474.39 975L471.73 975Z" />
	<path id="Layer" class="shp1" d="M136 1181L186 1181L186 1231L136 1231L136 1181Z" />
	<path id="Layer" class="shp0" d="M136 1181L186 1181L186 1206L136 1206L136 1181Z" />
	<path id="Layer" class="shp6" d="M628 1181L678 1181L678 1231L628 1231L628 1181Z" />
	<path id="Layer" class="shp3" d="M628 1181L678 1181L678 1206L628 1206L628 1181Z" />
	<path id="Layer" fill-rule="evenodd" class="shp0" d="M221.52 1219.2L221.52 1220.57L216.72 1220.57L216.72 1236L215.28 1236L215.28 1220.57L210.48 1220.57L210.48 1219.2L221.52 1219.2ZM227.03 1236.24C223.77 1236.24 221.39 1233.67 221.39 1230.53C221.39 1227.38 223.77 1224.82 227.03 1224.82C230.3 1224.82 232.67 1227.38 232.67 1230.53C232.67 1233.67 230.3 1236.24 227.03 1236.24ZM227.03 1226.11C224.56 1226.11 222.76 1228.08 222.76 1230.53C222.76 1232.98 224.56 1234.94 227.03 1234.94C229.5 1234.94 231.31 1232.98 231.31 1230.53C231.31 1228.08 229.5 1226.11 227.03 1226.11ZM241.91 1226.35L238.19 1226.35L238.19 1232.35C238.19 1233.34 238.38 1233.82 238.66 1234.18C239.05 1234.66 239.67 1234.94 240.49 1234.94C240.8 1234.94 241.26 1234.92 241.66 1234.8L241.91 1236.05C241.54 1236.17 240.92 1236.24 240.49 1236.24C239.48 1236.24 238.31 1235.93 237.56 1234.99C237.08 1234.39 236.82 1233.6 236.82 1232.3L236.82 1226.35L233.75 1226.35L233.75 1225.06L236.82 1225.06L236.82 1222.08L238.19 1222.08L238.19 1225.06L241.91 1225.06L241.91 1226.35ZM253.49 1236L253.49 1234.39C252.68 1235.5 251.26 1236.24 249.56 1236.24C248.52 1236.24 247.37 1235.98 246.29 1235.21C244.85 1234.2 243.96 1232.5 243.96 1230.53C243.96 1228.7 244.75 1227.1 246 1226.04C246.91 1225.3 248.16 1224.82 249.48 1224.82C251.07 1224.82 252.51 1225.46 253.49 1226.57L253.49 1225.06L254.81 1225.06L254.81 1236L253.49 1236ZM253.44 1228.32C252.96 1227.5 251.52 1226.11 249.51 1226.11C248.59 1226.11 247.63 1226.42 246.87 1227.05C245.91 1227.84 245.33 1229.11 245.33 1230.53C245.33 1232.04 246 1233.38 247.06 1234.13C247.75 1234.61 248.59 1234.94 249.53 1234.94C251.14 1234.94 252.58 1234.03 253.44 1232.54L253.44 1228.32ZM258.89 1218.96L260.26 1218.96L260.26 1236L258.89 1236L258.89 1218.96ZM281.67 1236L275.19 1227.41L272.36 1227.41L272.36 1236L270.92 1236L270.92 1219.2L276.65 1219.2C278.19 1219.2 279.17 1219.61 279.92 1220.28C280.73 1221.02 281.24 1222.1 281.24 1223.3C281.24 1224.5 280.73 1225.58 279.92 1226.33C279.22 1226.98 278.31 1227.36 276.92 1227.41L283.4 1236L281.67 1236ZM276.58 1226.04C277.78 1226.04 278.43 1225.78 278.91 1225.32C279.46 1224.82 279.8 1224.1 279.8 1223.3C279.8 1222.51 279.46 1221.79 278.91 1221.29C278.43 1220.83 277.78 1220.57 276.58 1220.57L272.36 1220.57L272.36 1226.04L276.58 1226.04ZM294.21 1234.22C293.4 1235.26 291.84 1236.24 289.75 1236.24C286.68 1236.24 284.25 1233.94 284.25 1230.53C284.25 1227.38 286.39 1224.82 289.48 1224.82C292.41 1224.82 294.57 1227.12 294.57 1230.17C294.57 1230.26 294.57 1230.43 294.55 1230.65L285.62 1230.65C285.72 1232.98 287.23 1234.94 289.75 1234.94C291.19 1234.94 292.39 1234.37 293.25 1233.31L294.21 1234.22ZM285.69 1229.4L293.16 1229.4C292.87 1227.48 291.38 1226.11 289.48 1226.11C287.54 1226.11 286.1 1227.5 285.69 1229.4ZM299 1226.59C299.89 1225.42 301.33 1224.82 302.87 1224.82C304.45 1224.82 305.87 1225.46 306.75 1226.66C307.35 1227.46 307.69 1228.37 307.69 1230.17L307.69 1236L306.32 1236L306.32 1230.26C306.32 1228.82 306.08 1228.13 305.7 1227.58C305.07 1226.66 304.04 1226.11 302.84 1226.11C301.26 1226.11 299.89 1226.95 299.05 1228.39L299.05 1236L297.68 1236L297.68 1225.06L299 1225.06L299 1226.59ZM320.53 1234.22C319.72 1235.26 318.16 1236.24 316.07 1236.24C313 1236.24 310.57 1233.94 310.57 1230.53C310.57 1227.38 312.71 1224.82 315.8 1224.82C318.73 1224.82 320.89 1227.12 320.89 1230.17C320.89 1230.26 320.89 1230.43 320.87 1230.65L311.94 1230.65C312.04 1232.98 313.55 1234.94 316.07 1234.94C317.51 1234.94 318.71 1234.37 319.57 1233.31L320.53 1234.22ZM312.01 1229.4L319.48 1229.4C319.19 1227.48 317.7 1226.11 315.8 1226.11C313.86 1226.11 312.42 1227.5 312.01 1229.4ZM327.55 1236L326.67 1236L322.44 1225.06L323.86 1225.06L327.17 1233.65L330.67 1225.06L331.54 1225.06L335.04 1233.65L338.35 1225.06L339.77 1225.06L335.55 1236L334.66 1236L331.11 1227.29L327.55 1236ZM350.85 1236L350.85 1234.39C350.03 1235.5 348.62 1236.24 346.91 1236.24C345.88 1236.24 344.73 1235.98 343.65 1235.21C342.21 1234.2 341.32 1232.5 341.32 1230.53C341.32 1228.7 342.11 1227.1 343.36 1226.04C344.27 1225.3 345.52 1224.82 346.84 1224.82C348.43 1224.82 349.87 1225.46 350.85 1226.57L350.85 1225.06L352.17 1225.06L352.17 1236L350.85 1236ZM350.8 1228.32C350.32 1227.5 348.88 1226.11 346.87 1226.11C345.95 1226.11 344.99 1226.42 344.23 1227.05C343.27 1227.84 342.69 1229.11 342.69 1230.53C342.69 1232.04 343.36 1233.38 344.42 1234.13C345.11 1234.61 345.95 1234.94 346.89 1234.94C348.5 1234.94 349.94 1234.03 350.8 1232.54L350.8 1228.32ZM357.57 1234.39L357.57 1236L356.25 1236L356.25 1218.96L357.62 1218.96L357.62 1226.52C358.65 1225.42 360.07 1224.82 361.58 1224.82C362.9 1224.82 364.15 1225.3 365.06 1226.04C366.31 1227.1 367.1 1228.7 367.1 1230.53C367.1 1232.5 366.21 1234.2 364.77 1235.21C363.69 1235.98 362.54 1236.24 361.51 1236.24C359.8 1236.24 358.39 1235.5 357.57 1234.39ZM357.62 1232.54C358.48 1234.03 359.92 1234.94 361.53 1234.94C362.47 1234.94 363.31 1234.61 364 1234.13C365.06 1233.38 365.73 1232.04 365.73 1230.53C365.73 1229.11 365.15 1227.84 364.19 1227.05C363.43 1226.42 362.47 1226.11 361.56 1226.11C359.54 1226.11 358.1 1227.5 357.62 1228.32L357.62 1232.54ZM370.22 1218.96L371.59 1218.96L371.59 1236L370.22 1236L370.22 1218.96ZM384.66 1234.22C383.84 1235.26 382.28 1236.24 380.19 1236.24C377.12 1236.24 374.7 1233.94 374.7 1230.53C374.7 1227.38 376.83 1224.82 379.93 1224.82C382.86 1224.82 385.02 1227.12 385.02 1230.17C385.02 1230.26 385.02 1230.43 384.99 1230.65L376.06 1230.65C376.16 1232.98 377.67 1234.94 380.19 1234.94C381.63 1234.94 382.83 1234.37 383.7 1233.31L384.66 1234.22ZM376.14 1229.4L383.6 1229.4C383.31 1227.48 381.82 1226.11 379.93 1226.11C377.99 1226.11 376.55 1227.5 376.14 1229.4ZM396.15 1220.57L396.15 1226.04L402.15 1226.04L402.15 1227.41L396.15 1227.41L396.15 1234.63L404.07 1234.63L404.07 1236L394.71 1236L394.71 1219.2L403.83 1219.2L403.83 1220.57L396.15 1220.57ZM408.38 1226.59C409.27 1225.42 410.71 1224.82 412.25 1224.82C413.83 1224.82 415.25 1225.46 416.13 1226.66C416.74 1227.46 417.07 1228.37 417.07 1230.17L417.07 1236L415.7 1236L415.7 1230.26C415.7 1228.82 415.46 1228.13 415.08 1227.58C414.45 1226.66 413.42 1226.11 412.22 1226.11C410.64 1226.11 409.27 1226.95 408.43 1228.39L408.43 1236L407.06 1236L407.06 1225.06L408.38 1225.06L408.38 1226.59ZM429.92 1234.22C429.1 1235.26 427.54 1236.24 425.45 1236.24C422.38 1236.24 419.95 1233.94 419.95 1230.53C419.95 1227.38 422.09 1224.82 425.19 1224.82C428.12 1224.82 430.27 1227.12 430.27 1230.17C430.27 1230.26 430.27 1230.43 430.25 1230.65L421.32 1230.65C421.42 1232.98 422.93 1234.94 425.45 1234.94C426.89 1234.94 428.09 1234.37 428.95 1233.31L429.92 1234.22ZM421.39 1229.4L428.86 1229.4C428.57 1227.48 427.08 1226.11 425.19 1226.11C423.24 1226.11 421.8 1227.5 421.39 1229.4ZM438.83 1226.14C438.69 1226.11 438.26 1226.11 438.18 1226.11C436.7 1226.11 435.33 1227.12 434.75 1228.54L434.75 1236L433.38 1236L433.38 1225.06L434.75 1225.06L434.75 1226.5C435.26 1225.73 436.5 1224.82 438.21 1224.82C438.4 1224.82 438.88 1224.84 439.02 1224.86L438.83 1226.14ZM450.71 1239.48C449.92 1240.97 448.36 1242 445.96 1242C443.87 1242 442.1 1241.04 440.99 1239.38L442.07 1238.59C442.89 1239.89 444.23 1240.7 445.98 1240.7C447.83 1240.7 448.96 1239.91 449.51 1238.83C449.85 1238.16 449.94 1237.37 449.94 1236L449.94 1234.44C449.13 1235.5 447.76 1236.24 446.06 1236.24C445.02 1236.24 443.87 1235.98 442.79 1235.21C441.35 1234.2 440.46 1232.5 440.46 1230.53C440.46 1228.7 441.25 1227.1 442.5 1226.04C443.42 1225.3 444.66 1224.82 445.98 1224.82C447.57 1224.82 449.01 1225.46 449.99 1226.57L449.99 1225.06L451.31 1225.06L451.31 1235.95C451.31 1237.56 451.17 1238.62 450.71 1239.48ZM449.94 1228.32C449.46 1227.5 448.02 1226.11 446.01 1226.11C445.1 1226.11 444.13 1226.42 443.37 1227.05C442.41 1227.84 441.83 1229.11 441.83 1230.53C441.83 1232.04 442.5 1233.38 443.56 1234.13C444.25 1234.61 445.1 1234.94 446.03 1234.94C447.64 1234.94 449.08 1234.03 449.94 1232.54L449.94 1228.32ZM455.66 1241.76L458.66 1235.11L453.71 1225.06L455.25 1225.06L459.35 1233.55L463.22 1225.06L464.68 1225.06L457.1 1241.76L455.66 1241.76ZM485.57 1227.41L480.05 1227.41L480.05 1226.04L487.01 1226.04L487.01 1233.12C485.57 1234.97 483.12 1236.24 480.53 1236.24C475.51 1236.24 471.89 1232.57 471.89 1227.6C471.89 1222.75 475.46 1218.96 480.31 1218.96C482.71 1218.96 484.94 1219.92 486.41 1221.53L485.42 1222.51C484.25 1221.22 482.4 1220.33 480.31 1220.33C476.28 1220.33 473.33 1223.57 473.33 1227.6C473.33 1231.68 476.28 1234.87 480.45 1234.87C482.5 1234.87 484.34 1234.03 485.57 1232.76L485.57 1227.41ZM500.13 1219.2L504.62 1233.1L509.13 1219.2L510.59 1219.2L505.07 1236L504.11 1236L499.65 1222.2L495.18 1236L494.22 1236L488.7 1219.2L490.17 1219.2L494.68 1233.1L499.17 1219.2L500.13 1219.2ZM514.37 1226.52C515.23 1225.37 516.72 1224.82 518.18 1224.82C519.77 1224.82 521.18 1225.46 522.07 1226.66C522.67 1227.46 523.01 1228.37 523.01 1230.17L523.01 1236L521.64 1236L521.64 1230.26C521.64 1228.82 521.4 1228.13 521.02 1227.58C520.39 1226.66 519.36 1226.11 518.16 1226.11C516.58 1226.11 515.21 1226.95 514.37 1228.39L514.37 1236L513 1236L513 1218.96L514.37 1218.96L514.37 1226.52Z" />
	<path id="Layer" fill-rule="evenodd" class="shp0" d="M211.92 1187.2L214.2 1187.2L223.56 1198.14L223.56 1187.2L226.8 1187.2L226.8 1204L224.52 1204L215.16 1193.06L215.16 1204L211.92 1204L211.92 1187.2ZM229.69 1202.08L237.85 1190.08L230.41 1190.08L230.41 1187.2L242.17 1187.2L242.17 1189.12L233.98 1201.12L242.65 1201.12L242.65 1204L229.69 1204L229.69 1202.08ZM248.65 1190.08L248.65 1193.56L253.81 1193.56L253.81 1196.44L248.65 1196.44L248.65 1201.12L255.73 1201.12L255.73 1204L245.41 1204L245.41 1187.2L255.49 1187.2L255.49 1190.08L248.65 1190.08ZM268.92 1186.96C271.51 1186.96 273.48 1188.95 273.48 1191.4C273.48 1193.85 271.51 1195.84 268.92 1195.84C266.32 1195.84 264.36 1193.85 264.36 1191.4C264.36 1188.95 266.32 1186.96 268.92 1186.96ZM268.92 1189.6C267.88 1189.6 267.24 1190.42 267.24 1191.4C267.24 1192.38 267.88 1193.2 268.92 1193.2C269.95 1193.2 270.6 1192.38 270.6 1191.4C270.6 1190.42 269.95 1189.6 268.92 1189.6ZM280.56 1195.36C283.15 1195.36 285.12 1197.35 285.12 1199.8C285.12 1202.25 283.15 1204.24 280.56 1204.24C277.96 1204.24 276 1202.25 276 1199.8C276 1197.35 277.96 1195.36 280.56 1195.36ZM280.56 1198C279.52 1198 278.88 1198.82 278.88 1199.8C278.88 1200.78 279.52 1201.6 280.56 1201.6C281.59 1201.6 282.24 1200.78 282.24 1199.8C282.24 1198.82 281.59 1198 280.56 1198ZM268.53 1204L278.35 1187.2L281.01 1187.2L271.2 1204L268.53 1204Z" />
	<path id="Layer" fill-rule="evenodd" class="shp3" d="M709.52 1195.2L709.52 1196.57L704.72 1196.57L704.72 1212L703.28 1212L703.28 1196.57L698.48 1196.57L698.48 1195.2L709.52 1195.2ZM715.03 1212.24C711.77 1212.24 709.39 1209.67 709.39 1206.53C709.39 1203.38 711.77 1200.82 715.03 1200.82C718.3 1200.82 720.67 1203.38 720.67 1206.53C720.67 1209.67 718.3 1212.24 715.03 1212.24ZM715.03 1202.11C712.56 1202.11 710.76 1204.08 710.76 1206.53C710.76 1208.98 712.56 1210.94 715.03 1210.94C717.5 1210.94 719.3 1208.98 719.3 1206.53C719.3 1204.08 717.5 1202.11 715.03 1202.11ZM729.9 1202.35L726.18 1202.35L726.18 1208.35C726.18 1209.34 726.38 1209.82 726.66 1210.18C727.05 1210.66 727.67 1210.94 728.49 1210.94C728.8 1210.94 729.26 1210.92 729.66 1210.8L729.9 1212.05C729.54 1212.17 728.92 1212.24 728.49 1212.24C727.48 1212.24 726.3 1211.93 725.56 1210.99C725.08 1210.39 724.82 1209.6 724.82 1208.3L724.82 1202.35L721.75 1202.35L721.75 1201.06L724.82 1201.06L724.82 1198.08L726.18 1198.08L726.18 1201.06L729.9 1201.06L729.9 1202.35ZM741.49 1212L741.49 1210.39C740.67 1211.5 739.26 1212.24 737.55 1212.24C736.52 1212.24 735.37 1211.98 734.29 1211.21C732.85 1210.2 731.96 1208.5 731.96 1206.53C731.96 1204.7 732.75 1203.1 734 1202.04C734.91 1201.3 736.16 1200.82 737.48 1200.82C739.07 1200.82 740.51 1201.46 741.49 1202.57L741.49 1201.06L742.81 1201.06L742.81 1212L741.49 1212ZM741.44 1204.32C740.96 1203.5 739.52 1202.11 737.51 1202.11C736.6 1202.11 735.63 1202.42 734.87 1203.05C733.91 1203.84 733.33 1205.11 733.33 1206.53C733.33 1208.04 734 1209.38 735.06 1210.13C735.75 1210.61 736.6 1210.94 737.53 1210.94C739.14 1210.94 740.58 1210.03 741.44 1208.54L741.44 1204.32ZM746.89 1194.96L748.26 1194.96L748.26 1212L746.89 1212L746.89 1194.96ZM760.36 1196.57L760.36 1202.04L766.36 1202.04L766.36 1203.41L760.36 1203.41L760.36 1210.63L768.28 1210.63L768.28 1212L758.92 1212L758.92 1195.2L768.04 1195.2L768.04 1196.57L760.36 1196.57ZM772.59 1202.59C773.48 1201.42 774.91 1200.82 776.45 1200.82C778.03 1200.82 779.45 1201.46 780.34 1202.66C780.94 1203.46 781.27 1204.37 781.27 1206.17L781.27 1212L779.91 1212L779.91 1206.26C779.91 1204.82 779.67 1204.13 779.28 1203.58C778.66 1202.66 777.63 1202.11 776.43 1202.11C774.84 1202.11 773.48 1202.95 772.63 1204.39L772.63 1212L771.27 1212L771.27 1201.06L772.59 1201.06L772.59 1202.59ZM794.12 1210.22C793.3 1211.26 791.74 1212.24 789.65 1212.24C786.58 1212.24 784.16 1209.94 784.16 1206.53C784.16 1203.38 786.29 1200.82 789.39 1200.82C792.32 1200.82 794.48 1203.12 794.48 1206.17C794.48 1206.26 794.48 1206.43 794.45 1206.65L785.53 1206.65C785.62 1208.98 787.13 1210.94 789.65 1210.94C791.09 1210.94 792.29 1210.37 793.16 1209.31L794.12 1210.22ZM785.6 1205.4L793.06 1205.4C792.77 1203.48 791.29 1202.11 789.39 1202.11C787.45 1202.11 786.01 1203.5 785.6 1205.4ZM803.03 1202.14C802.89 1202.11 802.46 1202.11 802.39 1202.11C800.9 1202.11 799.53 1203.12 798.96 1204.54L798.96 1212L797.59 1212L797.59 1201.06L798.96 1201.06L798.96 1202.5C799.46 1201.73 800.71 1200.82 802.41 1200.82C802.6 1200.82 803.08 1200.84 803.23 1200.86L803.03 1202.14ZM814.91 1215.48C814.12 1216.97 812.56 1218 810.16 1218C808.07 1218 806.3 1217.04 805.19 1215.38L806.27 1214.59C807.09 1215.89 808.43 1216.7 810.19 1216.7C812.03 1216.7 813.16 1215.91 813.71 1214.83C814.05 1214.16 814.15 1213.37 814.15 1212L814.15 1210.44C813.33 1211.5 811.96 1212.24 810.26 1212.24C809.23 1212.24 808.07 1211.98 806.99 1211.21C805.55 1210.2 804.67 1208.5 804.67 1206.53C804.67 1204.7 805.46 1203.1 806.71 1202.04C807.62 1201.3 808.87 1200.82 810.19 1200.82C811.77 1200.82 813.21 1201.46 814.19 1202.57L814.19 1201.06L815.51 1201.06L815.51 1211.95C815.51 1213.56 815.37 1214.62 814.91 1215.48ZM814.15 1204.32C813.67 1203.5 812.23 1202.11 810.21 1202.11C809.3 1202.11 808.34 1202.42 807.57 1203.05C806.61 1203.84 806.03 1205.11 806.03 1206.53C806.03 1208.04 806.71 1209.38 807.76 1210.13C808.46 1210.61 809.3 1210.94 810.23 1210.94C811.84 1210.94 813.28 1210.03 814.15 1208.54L814.15 1204.32ZM819.86 1217.76L822.86 1211.11L817.91 1201.06L819.45 1201.06L823.55 1209.55L827.42 1201.06L828.88 1201.06L821.3 1217.76L819.86 1217.76ZM838.15 1209.19C837.53 1208.21 837.17 1207.06 837.17 1205.28L837.17 1195.2L838.61 1195.2L838.61 1205.35C838.61 1206.82 838.87 1207.7 839.35 1208.47C840.29 1209.94 841.97 1210.87 843.89 1210.87C845.81 1210.87 847.49 1209.94 848.43 1208.47C848.91 1207.7 849.17 1206.82 849.17 1205.35L849.17 1195.2L850.61 1195.2L850.61 1205.28C850.61 1207.06 850.25 1208.21 849.63 1209.19C848.45 1211.04 846.31 1212.24 843.89 1212.24C841.47 1212.24 839.33 1211.04 838.15 1209.19ZM854.32 1209.62C855.26 1210.42 856.41 1210.94 857.63 1210.94C859 1210.94 860.15 1210.18 860.15 1209.02C860.15 1206.22 853.84 1207.75 853.84 1204.01C853.84 1202.02 855.72 1200.82 857.56 1200.82C859.05 1200.82 860.27 1201.32 861.09 1201.87L860.37 1203C859.43 1202.4 858.76 1202.11 857.63 1202.11C856.48 1202.11 855.21 1202.71 855.21 1203.98C855.21 1206.41 861.52 1205.11 861.52 1208.95C861.52 1210.99 859.79 1212.24 857.73 1212.24C855.91 1212.24 854.44 1211.57 853.48 1210.68L854.32 1209.62ZM873.76 1210.22C872.94 1211.26 871.38 1212.24 869.29 1212.24C866.22 1212.24 863.8 1209.94 863.8 1206.53C863.8 1203.38 865.93 1200.82 869.03 1200.82C871.96 1200.82 874.12 1203.12 874.12 1206.17C874.12 1206.26 874.12 1206.43 874.1 1206.65L865.17 1206.65C865.26 1208.98 866.77 1210.94 869.29 1210.94C870.74 1210.94 871.93 1210.37 872.8 1209.31L873.76 1210.22ZM865.24 1205.4L872.7 1205.4C872.41 1203.48 870.93 1202.11 869.03 1202.11C867.09 1202.11 865.65 1203.5 865.24 1205.4ZM896.18 1203.41L890.66 1203.41L890.66 1202.04L897.62 1202.04L897.62 1209.12C896.18 1210.97 893.73 1212.24 891.14 1212.24C886.12 1212.24 882.5 1208.57 882.5 1203.6C882.5 1198.75 886.07 1194.96 890.92 1194.96C893.32 1194.96 895.55 1195.92 897.02 1197.53L896.03 1198.51C894.86 1197.22 893.01 1196.33 890.92 1196.33C886.89 1196.33 883.94 1199.57 883.94 1203.6C883.94 1207.68 886.89 1210.87 891.06 1210.87C893.1 1210.87 894.95 1210.03 896.18 1208.76L896.18 1203.41ZM910.74 1195.2L915.23 1209.1L919.74 1195.2L921.2 1195.2L915.68 1212L914.72 1212L910.26 1198.2L905.79 1212L904.83 1212L899.31 1195.2L900.78 1195.2L905.29 1209.1L909.78 1195.2L910.74 1195.2ZM924.98 1202.52C925.84 1201.37 927.33 1200.82 928.79 1200.82C930.38 1200.82 931.79 1201.46 932.68 1202.66C933.28 1203.46 933.62 1204.37 933.62 1206.17L933.62 1212L932.25 1212L932.25 1206.26C932.25 1204.82 932.01 1204.13 931.63 1203.58C931 1202.66 929.97 1202.11 928.77 1202.11C927.19 1202.11 925.82 1202.95 924.98 1204.39L924.98 1212L923.61 1212L923.61 1194.96L924.98 1194.96L924.98 1202.52Z" />
	<path id="Layer" fill-rule="evenodd" class="shp2" d="M138.52 403.76C139.8 405.8 142.08 407.12 145 407.12C149.2 407.12 151.92 403.8 151.92 400C151.92 395.92 148.72 392.88 144.48 392.88C142.96 392.88 142 393.16 141.64 393.28L141.64 391.8L149.04 383.28L137.92 383.28L137.92 381L152.72 381L152.72 382.48L145.6 390.72C150.64 391.08 154.32 395.08 154.32 400C154.32 405.04 150.52 409.4 145 409.4C141.32 409.4 138.28 407.76 136.6 405L138.52 403.76ZM158.32 387C159.12 383.44 162.04 380.6 166.12 380.6C170.8 380.6 174.12 383.96 174.12 388.48C174.12 390.96 173.16 393.04 170.84 395.84L161.84 406.72L174.52 406.72L174.52 409L158.12 409L158.12 407.52L168.84 394.64C171.12 391.92 171.72 390.2 171.72 388.56C171.72 385.28 169.4 382.88 166.2 382.88C163.2 382.88 161.16 384.84 160.48 387.76L158.32 387ZM179.11 400.88C179.11 397.6 180.99 394.72 183.95 393.28C182.07 392.04 180.91 390 180.91 387.64C180.91 383.76 184.03 380.6 188.31 380.6C192.59 380.6 195.71 383.76 195.71 387.64C195.71 390 194.55 392.04 192.67 393.28C195.63 394.72 197.51 397.6 197.51 400.88C197.51 405.8 193.59 409.4 188.31 409.4C183.03 409.4 179.11 405.8 179.11 400.88ZM183.31 387.64C183.31 390.24 185.35 392.28 188.31 392.36C191.27 392.28 193.31 390.24 193.31 387.64C193.31 385 191.23 382.88 188.31 382.88C185.39 382.88 183.31 385 183.31 387.64ZM195.11 400.88C195.11 397.44 192.31 394.64 188.31 394.64C184.31 394.64 181.51 397.44 181.51 400.88C181.51 404.32 184.31 407.12 188.31 407.12C192.31 407.12 195.11 404.32 195.11 400.88Z" />
	<path id="Layer" fill-rule="evenodd" class="shp2" d="M149.8 479.8L135.6 479.8L135.6 478.32L150.6 459L152.2 459L152.2 477.52L156.8 477.52L156.8 479.8L152.2 479.8L152.2 487L149.8 487L149.8 479.8ZM149.8 477.52L149.8 463.8L139.16 477.52L149.8 477.52ZM159.03 459L176.23 459L176.23 460.48L163.55 487L161.03 487L173.35 461.28L159.03 461.28L159.03 459ZM195.47 459L195.47 461.28L184.27 461.28L183.11 469.52C184.27 468.96 185.59 468.6 187.03 468.6C192.35 468.6 196.43 472.8 196.43 478C196.43 483.16 192.39 487.4 187.11 487.4C183.83 487.4 180.91 485.76 179.23 483.28L181.11 482C182.39 483.84 184.55 485.12 187.07 485.12C191.15 485.12 194.03 481.84 194.03 478C194.03 474.08 190.95 470.88 186.91 470.88C184.99 470.88 183.23 471.68 181.95 472.84L180.35 472.6L182.27 459L195.47 459Z" />
	<path id="Layer" fill-rule="evenodd" class="shp2" d="M134.2 767.76L140.4 764L142 764L142 792L139.6 792L139.6 767.16L134.2 770.16L134.2 767.76ZM148.8 770C149.6 766.44 152.52 763.6 156.6 763.6C161.28 763.6 164.6 766.96 164.6 771.48C164.6 773.96 163.64 776.04 161.32 778.84L152.32 789.72L165 789.72L165 792L148.6 792L148.6 790.52L159.32 777.64C161.6 774.92 162.2 773.2 162.2 771.56C162.2 768.28 159.88 765.88 156.68 765.88C153.68 765.88 151.64 767.84 150.96 770.76L148.8 770ZM175.76 774.36C176.6 774.08 177.56 773.92 178.64 773.92C184 773.92 187.8 778.08 187.8 783.16C187.8 788.4 183.8 792.4 178.48 792.4C173.16 792.36 169.2 788.28 169.2 783.32C169.2 780.8 170.2 778.76 171.16 777.28L179.76 764L182.48 764L175.76 774.36ZM173.32 778.2C172.56 779.44 171.6 781 171.6 783.16C171.6 787.04 174.52 790.12 178.56 790.12C182.44 790.12 185.4 787.08 185.4 783.16C185.4 779.2 182.52 776.2 178.48 776.2C176.48 776.2 174.68 776.96 173.32 778.2Z" />
	<path id="Layer" fill-rule="evenodd" class="shp2" d="M135.52 864.76C136.8 866.8 139.08 868.12 142 868.12C146.2 868.12 148.92 864.8 148.92 861C148.92 856.92 145.72 853.88 141.48 853.88C139.96 853.88 139 854.16 138.64 854.28L138.64 852.8L146.04 844.28L134.92 844.28L134.92 842L149.72 842L149.72 843.48L142.6 851.72C147.64 852.08 151.32 856.08 151.32 861C151.32 866.04 147.52 870.4 142 870.4C138.32 870.4 135.28 868.76 133.6 866L135.52 864.76ZM156.11 861.88C156.11 858.6 157.99 855.72 160.95 854.28C159.07 853.04 157.91 851 157.91 848.64C157.91 844.76 161.03 841.6 165.31 841.6C169.59 841.6 172.71 844.76 172.71 848.64C172.71 851 171.55 853.04 169.67 854.28C172.63 855.72 174.51 858.6 174.51 861.88C174.51 866.8 170.59 870.4 165.31 870.4C160.03 870.4 156.11 866.8 156.11 861.88ZM160.31 848.64C160.31 851.24 162.35 853.28 165.31 853.36C168.27 853.28 170.31 851.24 170.31 848.64C170.31 846 168.23 843.88 165.31 843.88C162.39 843.88 160.31 846 160.31 848.64ZM172.11 861.88C172.11 858.44 169.31 855.64 165.31 855.64C161.31 855.64 158.51 858.44 158.51 861.88C158.51 865.32 161.31 868.12 165.31 868.12C169.31 868.12 172.11 865.32 172.11 861.88ZM185.49 852.36C186.33 852.08 187.29 851.92 188.37 851.92C193.73 851.92 197.53 856.08 197.53 861.16C197.53 866.4 193.53 870.4 188.21 870.4C182.89 870.36 178.93 866.28 178.93 861.32C178.93 858.8 179.93 856.76 180.89 855.28L189.49 842L192.21 842L185.49 852.36ZM183.05 856.2C182.29 857.44 181.33 859 181.33 861.16C181.33 865.04 184.25 868.12 188.29 868.12C192.17 868.12 195.13 865.08 195.13 861.16C195.13 857.2 192.25 854.2 188.21 854.2C186.21 854.2 184.41 854.96 183.05 856.2Z" />
	<path id="Layer" fill-rule="evenodd" class="shp2" d="M137.2 976.88C137.2 973.6 139.08 970.72 142.04 969.28C140.16 968.04 139 966 139 963.64C139 959.76 142.12 956.6 146.4 956.6C150.68 956.6 153.8 959.76 153.8 963.64C153.8 966 152.64 968.04 150.76 969.28C153.72 970.72 155.6 973.6 155.6 976.88C155.6 981.8 151.68 985.4 146.4 985.4C141.12 985.4 137.2 981.8 137.2 976.88ZM141.4 963.64C141.4 966.24 143.44 968.28 146.4 968.36C149.36 968.28 151.4 966.24 151.4 963.64C151.4 961 149.32 958.88 146.4 958.88C143.48 958.88 141.4 961 141.4 963.64ZM153.2 976.88C153.2 973.44 150.4 970.64 146.4 970.64C142.4 970.64 139.6 973.44 139.6 976.88C139.6 980.32 142.4 983.12 146.4 983.12C150.4 983.12 153.2 980.32 153.2 976.88ZM160.01 976.88C160.01 973.6 161.89 970.72 164.85 969.28C162.97 968.04 161.81 966 161.81 963.64C161.81 959.76 164.93 956.6 169.21 956.6C173.49 956.6 176.61 959.76 176.61 963.64C176.61 966 175.45 968.04 173.57 969.28C176.53 970.72 178.41 973.6 178.41 976.88C178.41 981.8 174.49 985.4 169.21 985.4C163.93 985.4 160.01 981.8 160.01 976.88ZM164.21 963.64C164.21 966.24 166.25 968.28 169.21 968.36C172.17 968.28 174.21 966.24 174.21 963.64C174.21 961 172.13 958.88 169.21 958.88C166.29 958.88 164.21 961 164.21 963.64ZM176.01 976.88C176.01 973.44 173.21 970.64 169.21 970.64C165.21 970.64 162.41 973.44 162.41 976.88C162.41 980.32 165.21 983.12 169.21 983.12C173.21 983.12 176.01 980.32 176.01 976.88Z" />
	<path id="Layer" class="shp2" d="M136.6 1059C138.28 1061.76 141.32 1063.4 145 1063.4C150.52 1063.4 154.32 1059.04 154.32 1054C154.32 1049.08 150.64 1045.08 145.6 1044.72L152.72 1036.48L152.72 1035L137.92 1035L137.92 1037.28L149.04 1037.28L141.64 1045.8L141.64 1047.28C142 1047.16 142.96 1046.88 144.48 1046.88C148.72 1046.88 151.92 1049.92 151.92 1054C151.92 1057.8 149.2 1061.12 145 1061.12C142.08 1061.12 139.8 1059.8 138.52 1057.76L136.6 1059ZM158.33 1041.16L163.73 1038.16L163.73 1063L166.13 1063L166.13 1035L164.53 1035L158.33 1038.76L158.33 1041.16ZM175.09 1041.76C175.77 1038.84 177.81 1036.88 180.81 1036.88C184.01 1036.88 186.33 1039.28 186.33 1042.56C186.33 1044.2 185.73 1045.92 183.45 1048.64L172.73 1061.52L172.73 1063L189.13 1063L189.13 1060.72L176.45 1060.72L185.45 1049.84C187.77 1047.04 188.73 1044.96 188.73 1042.48C188.73 1037.96 185.41 1034.6 180.73 1034.6C176.65 1034.6 173.73 1037.44 172.93 1041L175.09 1041.76Z" />
	<path id="Shape 1" class="shp2" d="M588.5 586C499.74 586 428 528.11 428 456.5C428 384.89 499.74 327 588.5 327C677.26 327 749 384.89 749 456.5C749 528.11 677.26 586 588.5 586Z" />
	<path id="Shape 2" class="shp2" d="M1115 746C1055.83 746 1008 702.86 1008 649.5C1008 596.14 1055.83 553 1115 553C1174.17 553 1222 596.14 1222 649.5C1222 702.86 1174.17 746 1115 746Z" />
</svg>