<?xml version="1.0" encoding="UTF-8"?>

<svg width="365px" height="335px" viewBox="0 0 460 354" version="1.1" xmlns="http://www.w3.org/2000/svg" xmlns:xlink="http://www.w3.org/1999/xlink">
    <!-- Generator: Sketch 63.1 (92452) - https://sketch.com -->
    <g id="Article-landing-+-detail" stroke="none" stroke-width="1" fill="none" fill-rule="evenodd">
        <g id="Impact_icons_1" transform="translate(10.000000, -70.000000)" fill="#004990" fill-rule="nonzero">
            <path d="M174.967776,77.556309 C175.010741,77.2826925 175.010741,77.0040597 174.967776,76.7304432 L174.967776,76.7304432 C174.908581,66.1959014 172.735811,55.780061 168.57784,46.0983289 C168.295016,45.4495134 167.768693,44.9373476 167.111914,44.6718334 C166.464334,44.3920368 165.729749,44.3920368 165.08217,44.6718334 C163.741009,45.3007485 163.142001,46.8794263 163.729007,48.2380722 C167.306361,56.557397 169.307314,65.4673302 169.6303,74.5156212 L169.6303,74.9660935 L134.147362,74.9660935 L134.147362,74.5531606 C134.128673,74.3533857 134.128673,74.1523058 134.147362,73.9525309 L134.147362,73.4645193 C134.147362,71.9925179 132.952527,70.799225 131.478624,70.799225 C130.751119,70.8254045 130.062885,71.1353843 129.561643,71.6626302 C129.065112,72.1876553 128.806827,72.8936285 128.847474,73.6146767 L128.847474,74.1026883 C128.828994,74.2522786 128.828994,74.4035703 128.847474,74.5531606 L128.847474,74.9660935 L101.596276,74.9660935 L101.596276,46.8866554 L101.859391,46.8866554 C102.884941,46.4723432 103.554748,45.4763624 103.550845,44.3715185 C103.587975,43.2568983 102.906572,42.2436735 101.859391,41.8563817 L101.596276,41.8563817 L101.596276,5.8561395 L102.122506,5.8561395 C105.938599,7.13140077 109.314295,9.46140031 111.857762,12.5756842 C112.293971,13.135575 112.952566,13.4781508 113.661979,13.5141681 C114.361082,13.5690187 115.05263,13.3388001 115.57896,12.875999 C116.63119,11.8836078 116.745608,10.2511814 115.842075,9.12206345 C115.688755,8.9501166 115.525602,8.78717375 115.353433,8.63405183 C115.181263,8.48092991 115.01811,8.31798706 114.86479,8.1460402 L114.00027,7.17001695 L115.278257,7.4703318 L116.669008,7.77064665 L118.661164,8.22111891 C119.327371,8.42930308 120.050573,8.34753679 120.653321,7.99588278 C121.290017,7.65477703 121.763705,7.07356829 121.968896,6.38169048 C122.361343,4.94447426 121.548782,3.45394122 120.127091,3.00314846 C113.462794,1.03754532 106.552914,0.0264151728 99.6041197,0 L98.7771868,0 C77.154352,0.180588972 56.6387542,9.5782675 42.3953988,25.8270768 C29.9282713,40.1006713 23.0408701,58.3900529 23.0000318,77.3310729 C23.003709,77.3935855 23.003709,77.456257 23.0000318,77.5187697 C23.0144567,77.6183586 23.0144567,77.7194956 23.0000318,77.8190845 C22.9905607,88.3296154 25.0997926,98.7344988 29.2020604,108.413659 C31.6936888,114.254805 34.900569,119.765035 38.7493765,124.818358 L38.7493765,124.818358 C38.8271546,124.991795 38.9427305,125.145697 39.0876672,125.26883 L39.0876672,125.26883 C52.8432504,143.34612 74.0249347,154.268054 96.7474425,155 L98.8147747,155 C122.080179,154.841679 143.996741,144.070377 158.316355,125.756842 L158.316355,125.756842 C158.553744,125.58211 158.757498,125.365901 158.917761,125.118673 C158.896862,125.045045 158.896862,124.967065 158.917761,124.893437 C161.615567,121.349788 164.004845,117.582112 166.059454,113.63163 C171.57697,102.720817 174.484812,90.6804076 174.55431,78.4572536 L174.55431,78.08186 C174.568128,77.9069481 174.568128,77.7312209 174.55431,77.556309 M45.4776032,124.630661 L45.9662454,124.405425 C52.9887314,120.986254 60.4143564,118.463791 68.0679063,116.897554 L68.4437849,116.897554 L68.4437849,117.272947 C70.4343359,125.443393 73.6263955,133.274089 77.9159253,140.509809 C79.3646926,142.837189 81.0121594,145.035164 82.8399347,147.079196 L83.7420434,148.055219 L82.3512926,147.604747 C68.0828971,144.070735 55.2645994,136.200802 45.6655425,125.081133 L45.4776032,124.630661 Z M28.5630668,80.3717607 L63.8204783,80.3717607 L63.8204783,80.7846936 C63.9134677,88.7942609 64.5918523,96.7863606 65.8502226,104.697263 C66.1885133,106.837007 66.6395677,109.014289 67.090622,111.191572 L67.090622,111.566965 L66.7147434,111.566965 C58.2135691,113.284143 49.9829164,116.137795 42.2450474,120.05086 L41.9067566,120.05086 L41.7188173,119.750545 C33.4853301,108.362949 28.8987063,94.7517106 28.5630668,80.7096149 L28.5630668,80.3717607 Z M42.3953988,35.3245338 C50.1122858,39.2334556 58.3158359,42.0990995 66.7899191,43.8459675 L67.2033855,43.8459675 L67.2033855,44.2589005 C66.7147434,46.6238799 66.2636891,48.8011625 65.9253983,50.753209 C64.6955308,58.6417278 64.0297944,66.6077116 63.9332418,74.5906999 L63.9332418,75.0036328 L28.6382425,75.0036328 L28.6382425,74.5531606 C29.2462809,60.5080851 33.8201568,46.9212911 41.8315809,35.3620731 L42.0571081,35.0992977 L42.3953988,35.3245338 Z M83.7420434,7.4703318 L82.8775226,8.44635505 C81.1092635,10.4088622 79.5122296,12.5187479 78.1038645,14.7529668 C73.7024133,22.0572718 70.4566756,29.9965356 68.4813727,38.2901429 L68.4813727,38.6655364 L68.1054941,38.6655364 C60.4158185,37.0991671 52.952906,34.5769058 45.8910697,31.1576653 L45.4400154,30.9324292 L45.7783061,30.5194962 L46.0038332,30.2191814 C46.0945676,30.0748809 46.1950342,29.9369175 46.3045361,29.8062485 C55.7438462,18.862514 68.3305178,11.0895578 82.3512926,7.54541051 L83.7420434,7.4703318 Z M96.2588003,41.7062243 L95.8829217,41.7062243 C88.605484,41.5405986 81.3473192,40.8884576 74.1571394,39.7541778 L73.7060851,39.7541778 L73.7060851,39.3412449 C75.5155915,31.751202 78.4820538,24.4838851 82.501644,17.7936546 C85.3776331,12.4826951 90.0554984,8.36988828 95.6949824,6.1939937 L96.1836246,6.1939937 L96.2588003,41.7062243 Z M96.2588003,75.0787116 L69.1203663,75.0787116 L69.1203663,74.6657786 C69.2512912,66.9101563 69.9042872,59.172105 71.074935,51.5039961 C71.4508136,49.4017922 71.9394557,47.0743521 72.3529222,45.1223056 L72.3529222,44.7469121 L72.7288008,44.7469121 C80.3748421,45.992696 88.0997425,46.6951939 95.8453338,46.849116 L96.2212124,46.849116 L96.2588003,75.0787116 Z M96.2588003,108.301041 L95.8829217,108.301041 C91.1092637,108.301041 86.4483692,108.751514 82.4264683,109.201986 C79.0059732,109.57738 75.9237687,110.065391 72.7663886,110.628481 L72.39051,110.628481 L72.39051,110.253088 C71.86428,107.737951 71.4508136,105.635747 71.1501107,103.833858 C69.9594558,96.2304996 69.293833,88.5543579 69.1579542,80.8597723 L69.1579542,80.4468394 L96.333976,80.4468394 L96.2588003,108.301041 Z M96.2588003,149.594333 L95.7701581,149.594333 C89.41781,147.867522 84.7193277,141.448293 82.4640562,137.806975 C78.5504203,131.174995 75.637354,124.00292 73.8188487,116.52216 L73.8188487,116.071688 L74.2323151,116.071688 C77.3145195,115.583676 80.0584332,115.133204 83.1030498,114.79535 C86.8618356,114.382417 91.3723787,114.082102 95.9580974,113.931945 L96.3715639,113.931945 L96.2588003,149.594333 Z M101.596276,113.368854 L102.009743,113.368854 C109.314458,113.394946 116.605136,114.010088 123.810701,115.208283 L124.261755,115.208283 L124.261755,115.621216 C122.467558,123.316606 119.487671,130.687059 115.428608,137.469121 C112.548267,142.768061 107.870361,146.867593 102.23527,149.031242 L101.70904,149.031242 L101.596276,113.368854 Z M128.697122,80.1465246 L128.697122,80.5594575 C128.613171,88.2396757 127.985138,95.9043339 126.817729,103.496004 C126.479439,105.48559 126.028384,107.737951 125.614918,109.614919 L125.614918,109.990312 L125.239039,109.990312 C117.585,108.723188 109.84319,108.05795 102.084918,108.000727 L101.671452,108.000727 L101.671452,80.2216033 L128.697122,80.1465246 Z M129.937522,116.447082 C137.599217,118.12871 145.022924,120.751394 152.039183,124.255268 L152.490237,124.480504 L152.151946,124.855897 C142.46613,135.964756 129.592505,143.828372 115.278257,147.379511 L114.00027,147.717365 L114.902378,146.703802 C116.753017,144.811405 118.43809,142.764297 119.939151,140.584887 C124.37225,133.220785 127.643154,125.218677 129.636819,116.860015 L129.636819,116.484621 L129.937522,116.447082 Z M169.517537,80.1465246 L169.517537,80.5969969 C169.097802,91.1279159 166.418798,101.446055 161.661674,110.853718 C160.058579,113.984592 158.211061,116.984504 156.136259,119.825624 L155.910732,120.125938 L155.610029,120.125938 C147.90083,116.130227 139.699027,113.164223 131.215509,111.30419 L130.83963,111.30419 L130.83963,110.928796 C131.328272,108.563817 131.741739,106.536692 132.042442,104.659724 C133.256598,96.7573363 133.90975,88.7790984 133.99701,80.7846936 L133.99701,80.3717607 L169.517537,80.1465246 Z M173.276323,15.5037539 L173.276323,15.5037539 C173.353397,15.1070335 173.353397,14.699215 173.276323,14.3024946 L173.276323,14.0772584 L173.276323,14.0772584 L173.276323,14.0772584 L173.276323,14.0772584 C173.281123,13.9897322 173.281123,13.9020092 173.276323,13.8144829 L173.276323,13.8144829 C173.1015,13.6120228 172.899051,13.4351086 172.674917,13.2889319 L172.44939,13.0636958 C164.842843,8.25541749 156.003964,5.75190952 147.00241,5.8561395 C135.615386,6.3120585 125.087158,12.0271415 118.510813,21.3223541 C110.579774,32.5841608 110.316659,45.5727779 111.256356,57.923226 L111.256356,57.923226 L111.256356,57.923226 L111.256356,58.1484621 C111.268695,58.2356205 111.268695,58.3240792 111.256356,58.4112376 C111.235457,58.4848657 111.235457,58.5628456 111.256356,58.6364737 L111.256356,58.6364737 L111.256356,58.6364737 L111.519471,58.9743279 L111.519471,58.9743279 L111.519471,58.9743279 C111.519471,58.9743279 111.519471,58.9743279 111.519471,58.9743279 L111.519471,58.9743279 L111.519471,58.9743279 L111.519471,58.9743279 L111.89535,59.2371034 L111.89535,59.2371034 L111.89535,59.2371034 C117.92738,61.453433 124.267714,62.7198635 130.689279,62.991039 C135.72578,63.1473709 140.699823,61.8435323 145.010253,59.2371034 C153.166818,54.131751 155.835556,44.8219908 158.203591,36.7134899 C158.992936,33.9355776 159.857457,31.0075079 160.872329,28.4172923 C163.465892,21.8479051 166.510508,18.3942843 170.720348,17.1554856 L171.20899,16.8927101 L171.472106,16.8927101 L171.472106,16.8927101 L171.472106,16.8927101 C171.900677,16.5022539 172.201875,15.9921865 172.336626,15.4286752 M157.865301,12.3504481 L156.436962,12.763381 C152.150188,14.3366485 148.159973,16.6210815 144.634374,19.520465 L143.995381,19.9709373 L143.995381,16.7425527 C144.005586,15.9489259 143.661105,15.1920458 143.055684,14.6778881 C142.592828,14.2383611 141.962702,14.0194696 141.326643,14.0772584 C140.608788,14.0968963 139.92818,14.4006705 139.434686,14.9216918 C138.941191,15.442713 138.675276,16.1382576 138.695493,16.8551707 L138.883432,24.3630419 L138.469966,24.7384355 L137.718208,25.3390651 C136.891276,26.164931 136.064343,27.0658755 135.312585,27.8917413 L133.959423,29.3557762 L133.282841,30.069024 L133.282841,24.47566 C133.404786,23.4548871 132.92805,22.4550707 132.05768,21.9062365 C131.18731,21.3574023 130.078484,21.3574023 129.208114,21.9062365 C128.337744,22.4550707 127.861008,23.4548871 127.982953,24.47566 L128.246068,35.5497699 L128.246068,35.5497699 L125.878033,38.4403003 L124.224167,40.4674255 L124.224167,39.4914023 C124.186148,38.7899859 123.864514,38.1340689 123.333,37.6740173 C122.801485,37.2139657 122.105674,36.9892351 121.405078,37.0513442 C120.696298,37.1086188 120.039715,37.4460282 119.581021,37.9887029 C119.122327,38.5313777 118.899458,39.2344365 118.961867,39.9418745 L119.450509,46.4737225 L118.435637,47.7125212 L117.044886,49.4768709 L116.330717,50.3402761 L116.330717,49.2140954 C115.696758,40.3705607 117.880858,31.553455 122.570301,24.0251877 C128.184737,16.076755 137.193937,11.2030687 146.927234,10.8488738 C150.499701,10.6803427 154.076512,11.0730308 157.52701,12.0125938 L157.865301,12.3504481 Z M160.985093,17.3431824 L161.285796,18.3942843 C159.360957,20.9492227 157.816384,23.7688569 156.700077,26.7655607 C155.572441,29.6560911 154.670333,32.8093969 153.880988,35.5497699 C151.588128,43.5081133 149.408032,51.0159845 142.980509,55.0702349 C139.473708,57.1980093 135.430477,58.2791549 131.328272,58.1860015 C127.054421,58.0639808 122.817566,57.3566444 118.73634,56.0837975 L118.134934,56.0837975 L118.5484,55.5957859 L121.141963,52.44248 L122.607889,50.6405909 L122.833416,50.6405909 L133.207665,51.8793897 L133.508368,51.8793897 C134.870949,51.8668469 136.005232,50.8311265 136.139518,49.4768709 C136.235547,48.7647929 136.04373,48.0438335 135.606447,47.4732816 C135.169164,46.9027296 134.522407,46.5295464 133.809071,46.4361831 L126.704966,45.5727779 L127.193608,45.0096876 C128.246068,43.6958101 129.336116,42.419472 130.426164,41.255752 L131.779327,39.6415597 L144.220908,40.2797287 L144.220908,40.2797287 C145.602779,40.1173664 146.644221,38.9477314 146.644221,37.5581255 C146.644221,36.1685196 145.602779,34.9988845 144.220908,34.8365222 L136.139518,34.4611286 L136.740924,33.8229596 L137.755796,32.6967789 C138.770668,31.5705982 139.785541,30.4444175 140.875589,29.3933156 L141.664934,28.7176072 L142.228751,28.2671349 L142.228751,28.2671349 L142.228751,28.2671349 L150.009438,27.4788084 C151.490801,27.3590457 152.598292,26.0686407 152.490237,24.588278 C152.420722,23.6853888 151.896935,22.8795153 151.099486,22.4485348 L150.49808,22.1106806 L151.099486,21.735287 C154.20606,19.8458993 157.612868,18.5001693 161.173032,17.7561153 L160.985093,17.3431824 Z" id="Globe"></path>
        </g>
    </g>
    <g id="Article-landing-+-detail" stroke="none" stroke-width="1" fill="none" fill-rule="evenodd" fill-opacity="0.15">
        <g id="Impact_icons_1" transform="translate(0.000000, -57.000000)" fill="#0A9B8D" fill-rule="nonzero">
            <path d="M105.13933,57 L144.178549,137.855825 C105.332745,157.663112 84.7072657,201.171775 93.9561598,243.79804 C103.205054,286.424304 140.005395,317.462279 183.563825,319.374525 C227.122255,321.28677 266.498761,293.593012 279.444369,251.941101 L365,276.863189 C341.071863,358.942224 264.369051,414.190341 178.971893,410.857008 C93.5747352,407.523675 21.4079012,346.464684 3.94493856,262.770018 C-13.5180241,179.075352 28.2062856,94.2325871 105.13933,57" id="Path"></path>
        </g>
    </g>
    <g id="Article-landing-+-detail" stroke="none" stroke-width="1" fill="none" fill-rule="evenodd">
        <g id="Impact_icons_1" transform="translate(-70, -40) rotate(-17)" fill="#004990" fill-rule="nonzero">
            <path d="M316.386316,315.322079 L343.787692,279.575786 L348.292028,273.7182 L341.235235,271.54038 L286.845379,254.943887 C285.590829,254.588835 284.61032,253.607999 284.255386,252.353031 C283.7909,251.064956 284.064197,249.626074 284.968573,248.598169 C285.609109,247.779102 286.560529,247.262445 287.596102,247.171321 L288.159144,247.171321 L362.856048,250.663343 L365.558649,250.663343 L367.172703,248.523072 L388.643371,220.13631 C392.088929,215.342048 397.278318,212.092544 403.094782,211.087091 C405.453311,210.718782 407.860858,211.314104 409.776213,212.73923 C411.611783,214.383288 412.707769,216.697806 412.81664,219.160045 C412.963016,224.999201 410.83662,230.66699 406.885931,234.968017 L383.575993,261.852834 L381.811795,263.918009 L382.487445,266.508864 L401.255511,338.865068 C401.596692,340.069746 401.315148,341.365281 400.504789,342.319541 C399.872969,343.129595 398.936916,343.645274 397.914795,343.746389 C396.372597,343.923253 394.880661,343.132264 394.161182,341.756312 L366.684733,292.154576 L362.93112,285.696212 L358.164031,291.328506 L328.885848,325.572854 L326.971505,327.750674 L327.909908,330.529272 L335.642352,353.621678 C336.04612,354.913917 335.778581,356.322486 334.929165,357.376541 C334.279971,358.204763 333.313098,358.722417 332.2641,358.803388 C330.747372,359.001056 329.262441,358.258344 328.510486,356.925957 L314.284292,333.495614 L313.308353,331.918572 L311.506618,331.242696 L285.644223,322.193477 C284.425584,321.748193 283.493617,320.746338 283.137196,319.498448 C282.780775,318.250559 283.042961,316.907403 283.842489,315.885308 C284.516274,315.061229 285.48699,314.53525 286.54509,314.420912 L287.408421,314.420912 L311.581691,317.19951 L314.471973,317.499899 L316.386316,315.322079 Z M288.121608,309.464493 C287.473149,309.389368 286.818188,309.389368 286.169729,309.464493 C281.92521,309.910077 278.557004,313.24026 278.062001,317.480695 C277.566999,321.721131 280.077551,325.738021 284.105242,327.149896 L309.967637,336.161566 L324.193831,359.629458 C326.042978,362.644153 329.461689,364.324847 332.977286,363.94755 C335.680076,363.591767 338.083953,362.050079 339.535295,359.741677 C340.986638,357.433274 341.334579,354.598115 340.484513,352.007087 L332.752069,328.877133 L362.030253,294.632785 L389.581774,344.384716 C391.32541,347.578489 394.824486,349.402767 398.440301,349.003197 C401.050598,348.71655 403.407559,347.309406 404.898918,345.147296 C406.390277,342.985187 406.868836,340.281514 406.210281,337.738609 L387.442215,265.382405 L410.752153,238.46004 C419.347927,228.547202 420.549083,215.029696 413.004321,208.90927 C410.039219,206.620697 406.279375,205.619542 402.569276,206.130672 C395.290369,207.30058 388.792819,211.362901 384.551932,217.39526 L363.081264,245.782022 L288.421897,242.327548 L287.03306,242.327548 C282.824308,242.822834 279.523352,246.174447 279.090976,250.39151 C278.658601,254.608574 281.210705,258.5607 285.231326,259.900305 L339.621182,276.496798 L312.219805,312.243091 L288.121608,309.464493 Z" id="Plane"></path>
        </g>
    </g>
</svg>