<svg width="201" height="235" viewBox="0 0 201 235" fill="none" xmlns="http://www.w3.org/2000/svg">
<path d="M50.053 113.309C41.7765 86.706 56.753 58.5266 83.1589 50.2501C109.762 41.9737 137.941 56.9501 146.218 83.356C146.612 84.9325 147.006 86.509 147.4 88.0854L194.891 79.809C194.3 76.459 193.315 73.109 192.329 69.759C176.368 18.3266 121.585 -10.641 70.153 5.32072C18.7206 21.2825 -10.247 76.0648 5.71473 127.497C16.553 162.377 45.1265 186.812 78.4294 194.103L89.0706 147.794C71.1383 144.641 55.7677 131.832 50.053 113.309Z" fill="#0A9B8D" fill-opacity="0.15"/>
<path d="M178.338 110.55H194.891C198.044 110.55 200.409 107.988 200.409 105.032V52.6148C200.409 47.8853 198.044 43.7471 194.103 41.1853L191.541 39.6089C189.768 38.4265 188.585 36.4559 188.585 34.2883V27.5883H188.979C189.965 27.5883 190.556 26.8001 190.556 26.0118V18.1295C190.556 14.9765 187.994 12.6118 185.038 12.6118H173.215C170.062 12.6118 167.697 15.1736 167.697 18.1295V26.0118C167.697 26.9971 168.485 27.5883 169.274 27.5883H169.668V34.2883C169.668 36.4559 168.485 38.4265 166.712 39.6089L164.15 41.1853C163.756 41.3824 163.362 41.7765 162.968 41.9736L162.771 42.1706V42.3677C160.603 44.1412 159.026 46.703 158.238 49.4618V49.6589H155.479C153.706 49.6589 152.326 50.8412 151.932 52.6148C151.735 52.8118 151.735 53.0089 151.735 53.2059V59.1177C151.735 59.3148 151.735 59.7089 151.932 59.9059C151.932 59.9059 151.932 60.103 152.129 60.103C152.326 60.3001 152.524 60.4971 152.721 60.6942H152.918V64.2412C152.918 65.2265 152.326 66.2118 151.538 66.6059L151.341 66.803L149.962 67.7883C147.4 69.3648 145.824 72.1236 145.824 75.2765V105.032C145.824 108.185 148.385 110.55 151.341 110.55H167.106C170.259 110.55 172.624 107.988 172.624 105.032V84.3412H197.059V104.835C197.059 106.018 196.074 107.2 194.694 107.2H178.141C177.156 107.2 176.565 107.988 176.565 108.777C176.565 109.762 177.353 110.55 178.338 110.55ZM154.888 52.8118H163.362V57.3442H154.888V52.8118ZM169.471 105.032C169.471 106.215 168.485 107.397 167.106 107.397H151.341C150.159 107.397 148.976 106.412 148.976 105.032V92.4206H166.318C167.303 92.4206 167.894 91.6324 167.894 90.8442C167.894 90.0559 167.106 89.2677 166.318 89.2677H148.976V80.7942H169.471V105.032ZM169.471 77.2471H148.976V75.2765C148.976 73.503 149.962 71.7295 151.341 70.7442L151.538 70.5471L152.918 69.5618C154.691 68.3795 155.874 66.4089 155.874 64.2412V60.8912H161.982V64.2412C161.982 66.4089 163.165 68.5765 164.938 69.7589L166.318 70.5471H166.515C168.091 71.5324 169.076 73.3059 169.076 75.0795V77.2471H169.471ZM172.821 81.1883V75.2765C172.821 72.3206 171.244 69.5618 168.682 67.7883L167.106 66.803C166.515 66.4089 166.121 65.8177 165.924 65.0295L165.726 64.6353H190.95C191.935 64.6353 192.526 63.8471 192.526 63.0589C192.526 62.0736 191.738 61.4824 190.95 61.4824H165.726V60.8912H165.924C166.121 60.6942 166.318 60.6942 166.515 60.3001C166.515 60.3001 166.515 60.3001 166.712 60.103C166.909 59.7089 166.909 59.5118 166.909 59.3148V53.403C166.909 53.2059 166.909 53.0089 166.712 52.8118C166.318 51.2353 165.332 50.2501 163.953 50.053C163.756 49.8559 163.559 49.8559 163.165 49.8559H161.391L161.588 49.4618C162.376 47.2942 163.756 45.5206 165.726 44.3383L168.288 42.7618C171.047 40.9883 172.624 38.0324 172.624 34.6824V26.2089C172.624 25.2236 171.835 24.6324 171.047 24.6324H170.653V18.3265C170.653 17.1442 171.638 15.9618 173.018 15.9618H184.841C186.024 15.9618 187.206 16.9471 187.206 18.3265V24.6324H178.929C177.944 24.6324 177.353 25.4206 177.353 26.2089C177.353 26.9971 178.141 27.7853 178.929 27.7853H185.235V34.4853C185.235 37.8353 187.009 40.7912 189.768 42.5648L192.329 44.1412C195.285 46.1118 197.059 49.2648 197.059 52.8118V81.1883H172.821Z" fill="#004990"/>
<path d="M24.8294 223.465V216.962H39.8059C41.7765 216.962 43.1559 215.385 43.1559 213.612V177.747C43.1559 175.974 41.5794 174.397 39.8059 174.397H24.8294V167.894C24.8294 164.347 27.7853 161.391 31.5294 161.391H71.5323V184.053C65.8176 184.841 61.2853 189.768 61.2853 195.482C61.2853 201.394 65.8176 206.124 71.5323 206.912V229.574H31.3323C27.7853 229.968 24.8294 227.209 24.8294 223.465ZM24.8294 207.306H30.7412C32.7118 207.306 34.0912 205.729 34.0912 203.956V187.6C34.0912 185.827 32.5147 184.25 30.7412 184.25H24.8294V177.944H39.8059V213.809H24.8294V207.306ZM24.8294 187.797H30.7412V203.956H24.8294V187.797ZM121.585 168.091V174.594H106.609C104.638 174.594 103.259 176.171 103.259 177.944V213.809C103.259 215.582 104.835 217.159 106.609 217.159H121.585V223.662C121.585 227.209 118.629 230.165 114.885 230.165H74.8824V207.503C80.5971 206.715 85.1294 201.788 85.1294 196.074C85.1294 190.162 80.5971 185.432 74.8824 184.644V161.588H114.885C118.629 161.588 121.585 164.544 121.585 168.091ZM121.585 184.447H115.674C113.703 184.447 112.324 186.024 112.324 187.797V204.153C112.324 205.927 113.9 207.503 115.674 207.503H121.585V213.809H106.609V177.944H121.585V184.447ZM121.585 203.956H115.674V187.797H121.585V203.956ZM73.1088 187.6C77.8382 187.6 81.5824 191.344 81.5824 195.877C81.5824 200.409 77.8382 204.153 73.1088 204.153C68.3794 204.153 64.6353 200.409 64.6353 195.877C64.6353 191.344 68.5765 187.6 73.1088 187.6ZM114.885 233.318C120.403 233.318 124.935 228.982 124.935 223.465V168.091C124.935 162.574 120.403 158.238 114.885 158.238H31.3323C25.8147 158.238 21.2823 162.574 21.2823 168.091V223.465C21.2823 228.982 25.8147 233.318 31.3323 233.318H114.885Z" fill="#004990"/>
</svg>
