<svg width="27" height="15" viewBox="0 0 27 15" fill="none" xmlns="http://www.w3.org/2000/svg">
<path d="M26.5925 7.65161C26.559 7.50604 26.4266 7.40328 26.2756 7.40695L2.07253 7.40695L7.95478 1.53507C8.07733 1.41029 8.07485 1.21088 7.94983 1.08977C7.82356 0.968666 7.62177 0.969891 7.49923 1.09467L1.09189 7.49518C0.969337 7.61751 0.969337 7.81323 1.09189 7.93555L7.49923 14.3458C7.55741 14.4057 7.63911 14.44 7.72329 14.44C7.80746 14.4412 7.88916 14.4094 7.94982 14.3507C8.00924 14.2919 8.0439 14.2124 8.04514 14.1292C8.04637 14.0461 8.01295 13.9653 7.95477 13.9054L2.08235 8.0335L26.2755 8.0335C26.3721 8.03594 26.4662 7.99313 26.5281 7.9185C26.59 7.8451 26.6135 7.74602 26.5924 7.65182L26.5925 7.65161Z" fill="#00AD99" stroke="#00AD99" stroke-width="0.5"/>
</svg>
