<svg xmlns="http://www.w3.org/2000/svg" viewBox="0 0 49 48" width="49" height="48">
	<style>
		tspan { white-space:pre }
		.shp0 { fill: #ba9765 } 
		.shp1 { fill: #ffffff } 
	</style>
	<path id="Layer" class="shp0" d="M-71 24C-71 10.75 -60.25 0 -47 0C-33.75 0 -23 10.75 -23 24C-23 37.25 -33.75 48 -47 48C-60.25 48 -71 37.25 -71 24Z" />
	<path id="Layer" fill-rule="evenodd" class="shp1" d="M-56.72 12C-58.58 12 -59.8 13.22 -59.8 14.82C-59.8 16.39 -58.62 17.65 -56.79 17.65L-56.76 17.65C-54.86 17.65 -53.68 16.39 -53.68 14.82C-53.72 13.22 -54.86 12 -56.72 12ZM-59.48 19.88L-59.48 36.22L-54.04 36.22L-54.04 19.88L-59.48 19.88ZM-34.42 36.22L-34.42 26.85C-34.42 21.83 -37.11 19.49 -40.69 19.49C-43.57 19.49 -44.87 21.08 -45.59 22.19L-45.59 19.88L-51.03 19.88C-50.96 21.41 -51.03 36.22 -51.03 36.22L-45.59 36.22L-45.59 27.09C-45.59 26.61 -45.55 26.12 -45.41 25.77C-45.02 24.79 -44.12 23.78 -42.62 23.78C-40.65 23.78 -39.86 25.28 -39.86 27.48L-39.86 36.22L-34.42 36.22Z" />
	<path id="Layer" class="shp0" d="M1 24C1 10.75 11.75 0 25 0C38.25 0 49 10.75 49 24C49 37.25 38.25 48 25 48C11.75 48 1 37.25 1 24Z" />
	<path id="Layer" class="shp1" d="M24.28 19.51L24.33 20.34L23.49 20.24C20.44 19.85 17.77 18.52 15.5 16.3L14.39 15.2L14.11 16.02C13.5 17.83 13.89 19.75 15.15 21.03C15.82 21.75 15.67 21.85 14.51 21.42C14.11 21.29 13.76 21.19 13.72 21.24C13.6 21.36 14.01 22.9 14.33 23.51C14.76 24.36 15.65 25.19 16.63 25.68L17.45 26.07L16.47 26.08C15.53 26.08 15.5 26.1 15.6 26.46C15.94 27.56 17.26 28.73 18.74 29.24L19.78 29.59L18.88 30.13C17.53 30.91 15.95 31.35 14.38 31.39C13.62 31.41 13 31.47 13 31.52C13 31.69 15.05 32.64 16.24 33.02C19.82 34.12 24.06 33.64 27.25 31.76C29.52 30.42 31.78 27.76 32.84 25.19C33.41 23.81 33.98 21.3 33.98 20.1C33.98 19.32 34.03 19.22 34.97 18.29C35.53 17.75 36.05 17.15 36.15 16.98C36.32 16.66 36.3 16.66 35.44 16.95C34.02 17.46 33.82 17.39 34.52 16.63C35.04 16.08 35.66 15.1 35.66 14.81C35.66 14.76 35.41 14.85 35.13 15C34.82 15.17 34.15 15.42 33.65 15.58L32.74 15.86L31.92 15.3C31.47 15 30.83 14.66 30.49 14.56C29.64 14.32 28.33 14.36 27.55 14.63C25.46 15.39 24.13 17.36 24.28 19.51Z" />
	<path id="Layer" class="shp0" d="M145 24C145 10.75 155.75 0 169 0C182.25 0 193 10.75 193 24C193 37.25 182.25 48 169 48C155.75 48 145 37.25 145 24Z" />
	<path id="Layer" class="shp1" d="M171.5 38.11L171.5 25.05L175.11 25.05L175.58 20.55L171.5 20.55L171.51 18.3C171.51 17.13 171.62 16.5 173.31 16.5L175.56 16.5L175.56 12L171.95 12C167.62 12 166.1 14.18 166.1 17.85L166.1 20.56L163.4 20.56L163.4 25.05L166.1 25.05L166.1 38.11L171.5 38.11Z" />
	<path id="Layer" fill-rule="evenodd" class="shp0" d="M241 0C254.25 0 265 10.75 265 24C265 37.25 254.25 48 241 48C227.75 48 217 37.25 217 24C217 10.75 227.75 0 241 0ZM227.16 18.16L227.16 29.84C227.16 34.17 230.75 37.72 235.15 37.72L246.85 37.72C251.25 37.72 254.84 34.17 254.84 29.84L254.84 18.16C254.84 13.83 251.25 10.28 246.85 10.28L235.15 10.28C230.75 10.28 227.16 13.83 227.16 18.16ZM236.1 12.52L245.9 12.52C249.57 12.52 252.58 15.51 252.58 19.17L252.58 29.01C252.58 32.67 249.57 35.66 245.9 35.66L236.1 35.66C232.43 35.66 229.42 32.67 229.42 29.01L229.42 19.17C229.42 15.51 232.43 12.52 236.1 12.52ZM233.19 24.33C233.19 28.6 236.65 32.06 240.93 32.06C245.2 32.06 248.66 28.6 248.66 24.33C248.66 20.06 245.2 16.59 240.93 16.59C236.65 16.59 233.19 20.06 233.19 24.33ZM247.16 16.77C247.16 17.47 247.72 18.03 248.41 18.03C249.11 18.03 249.67 17.47 249.67 16.77C249.67 16.08 249.11 15.52 248.41 15.52C247.72 15.52 247.16 16.08 247.16 16.77ZM240.93 19.2C243.75 19.2 246.05 21.5 246.05 24.33C246.05 27.16 243.75 29.45 240.93 29.45C238.1 29.45 235.8 27.16 235.8 24.33C235.8 21.5 238.1 19.2 240.93 19.2Z" />
	<path id="Layer" class="shp0" d="M73 24C73 10.75 83.75 0 97 0C110.25 0 121 10.75 121 24C121 37.25 110.25 48 97 48C83.75 48 73 37.25 73 24Z" />
	<path id="Layer" class="shp1" d="M109.26 18.07C108.97 16.94 108.1 16.05 107 15.75C105 15.2 97 15.2 97 15.2C97 15.2 89 15.2 87 15.75C85.9 16.05 85.03 16.94 84.74 18.07C84.2 20.12 84.2 24.4 84.2 24.4C84.2 24.4 84.2 28.68 84.74 30.73C85.03 31.86 85.9 32.75 87 33.05C89 33.6 97 33.6 97 33.6C97 33.6 105 33.6 107 33.05C108.1 32.75 108.97 31.86 109.26 30.73C109.8 28.68 109.8 24.4 109.8 24.4C109.8 24.4 109.8 20.12 109.26 18.07Z" />
	<path id="Layer" class="shp0" d="M94.6 28.8L94.6 20.8L101 24.8L94.6 28.8Z" />
</svg>