<svg xmlns="http://www.w3.org/2000/svg" viewBox="0 0 48 48" width="48" height="48">
	<style>
		tspan { white-space:pre }
		.shp0 { fill: #ba9765 } 
		.shp1 { fill: #ffffff } 
	</style>
	<path id="Layer" class="shp0" d="M-288 24C-288 10.75 -277.25 0 -264 0C-250.75 0 -240 10.75 -240 24C-240 37.25 -250.75 48 -264 48C-277.25 48 -288 37.25 -288 24Z" />
	<path id="Layer" fill-rule="evenodd" class="shp1" d="M-273.72 12C-275.58 12 -276.8 13.22 -276.8 14.82C-276.8 16.39 -275.62 17.65 -273.79 17.65L-273.76 17.65C-271.86 17.65 -270.68 16.39 -270.68 14.82C-270.72 13.22 -271.86 12 -273.72 12ZM-276.48 19.88L-276.48 36.22L-271.04 36.22L-271.04 19.88L-276.48 19.88ZM-251.42 36.22L-251.42 26.85C-251.42 21.83 -254.11 19.49 -257.69 19.49C-260.57 19.49 -261.87 21.08 -262.59 22.19L-262.59 19.88L-268.03 19.88C-267.96 21.41 -268.03 36.22 -268.03 36.22L-262.59 36.22L-262.59 27.09C-262.59 26.61 -262.55 26.12 -262.41 25.77C-262.02 24.79 -261.12 23.78 -259.62 23.78C-257.65 23.78 -256.86 25.28 -256.86 27.48L-256.86 36.22L-251.42 36.22Z" />
	<path id="Layer" class="shp0" d="M-216 24C-216 10.75 -205.25 0 -192 0C-178.75 0 -168 10.75 -168 24C-168 37.25 -178.75 48 -192 48C-205.25 48 -216 37.25 -216 24Z" />
	<path id="Layer" class="shp1" d="M-192.72 19.51L-192.67 20.34L-193.51 20.24C-196.56 19.85 -199.23 18.52 -201.5 16.3L-202.61 15.2L-202.89 16.02C-203.5 17.83 -203.11 19.75 -201.85 21.03C-201.18 21.75 -201.33 21.85 -202.49 21.42C-202.89 21.29 -203.24 21.19 -203.28 21.24C-203.4 21.36 -202.99 22.9 -202.67 23.51C-202.24 24.36 -201.35 25.19 -200.37 25.68L-199.55 26.07L-200.53 26.08C-201.47 26.08 -201.5 26.1 -201.4 26.46C-201.06 27.56 -199.74 28.73 -198.26 29.24L-197.22 29.59L-198.12 30.13C-199.47 30.91 -201.05 31.35 -202.62 31.39C-203.38 31.41 -204 31.47 -204 31.52C-204 31.69 -201.95 32.64 -200.76 33.02C-197.18 34.12 -192.94 33.64 -189.75 31.76C-187.48 30.42 -185.22 27.76 -184.16 25.19C-183.59 23.81 -183.02 21.3 -183.02 20.1C-183.02 19.32 -182.97 19.22 -182.03 18.29C-181.47 17.75 -180.95 17.15 -180.85 16.98C-180.68 16.66 -180.7 16.66 -181.56 16.95C-182.98 17.46 -183.18 17.39 -182.48 16.63C-181.96 16.08 -181.34 15.1 -181.34 14.81C-181.34 14.76 -181.59 14.85 -181.87 15C-182.18 15.17 -182.85 15.42 -183.35 15.58L-184.26 15.86L-185.08 15.3C-185.53 15 -186.17 14.66 -186.51 14.56C-187.36 14.32 -188.67 14.36 -189.45 14.63C-191.54 15.39 -192.87 17.36 -192.72 19.51Z" />
	<path id="Layer" class="shp0" d="M-72 24C-72 10.75 -61.25 0 -48 0C-34.75 0 -24 10.75 -24 24C-24 37.25 -34.75 48 -48 48C-61.25 48 -72 37.25 -72 24Z" />
	<path id="Layer" class="shp1" d="M-45.5 38.11L-45.5 25.05L-41.89 25.05L-41.42 20.55L-45.5 20.55L-45.49 18.3C-45.49 17.13 -45.38 16.5 -43.69 16.5L-41.44 16.5L-41.44 12L-45.05 12C-49.38 12 -50.9 14.18 -50.9 17.85L-50.9 20.56L-53.6 20.56L-53.6 25.05L-50.9 25.05L-50.9 38.11L-45.5 38.11Z" />
	<path id="Layer" fill-rule="evenodd" class="shp0" d="M24 0C37.25 0 48 10.75 48 24C48 37.25 37.25 48 24 48C10.75 48 0 37.25 0 24C0 10.75 10.75 0 24 0ZM10.16 18.16L10.16 29.84C10.16 34.17 13.75 37.72 18.15 37.72L29.85 37.72C34.25 37.72 37.84 34.17 37.84 29.84L37.84 18.16C37.84 13.83 34.25 10.28 29.85 10.28L18.15 10.28C13.75 10.28 10.16 13.83 10.16 18.16ZM19.1 12.52L28.9 12.52C32.57 12.52 35.58 15.51 35.58 19.17L35.58 29.01C35.58 32.67 32.57 35.66 28.9 35.66L19.1 35.66C15.43 35.66 12.42 32.67 12.42 29.01L12.42 19.17C12.42 15.51 15.43 12.52 19.1 12.52ZM16.19 24.33C16.19 28.6 19.65 32.06 23.93 32.06C28.2 32.06 31.66 28.6 31.66 24.33C31.66 20.06 28.2 16.59 23.93 16.59C19.65 16.59 16.19 20.06 16.19 24.33ZM30.16 16.77C30.16 17.47 30.72 18.03 31.41 18.03C32.11 18.03 32.67 17.47 32.67 16.77C32.67 16.08 32.11 15.52 31.41 15.52C30.72 15.52 30.16 16.08 30.16 16.77ZM23.93 19.2C26.75 19.2 29.05 21.5 29.05 24.33C29.05 27.16 26.75 29.45 23.93 29.45C21.1 29.45 18.8 27.16 18.8 24.33C18.8 21.5 21.1 19.2 23.93 19.2Z" />
	<path id="Layer" class="shp0" d="M-144 24C-144 10.75 -133.25 0 -120 0C-106.75 0 -96 10.75 -96 24C-96 37.25 -106.75 48 -120 48C-133.25 48 -144 37.25 -144 24Z" />
	<path id="Layer" class="shp1" d="M-107.74 18.07C-108.03 16.94 -108.9 16.05 -110 15.75C-112 15.2 -120 15.2 -120 15.2C-120 15.2 -128 15.2 -130 15.75C-131.1 16.05 -131.97 16.94 -132.26 18.07C-132.8 20.12 -132.8 24.4 -132.8 24.4C-132.8 24.4 -132.8 28.68 -132.26 30.73C-131.97 31.86 -131.1 32.75 -130 33.05C-128 33.6 -120 33.6 -120 33.6C-120 33.6 -112 33.6 -110 33.05C-108.9 32.75 -108.03 31.86 -107.74 30.73C-107.2 28.68 -107.2 24.4 -107.2 24.4C-107.2 24.4 -107.2 20.12 -107.74 18.07Z" />
	<path id="Layer" class="shp0" d="M-122.4 28.8L-122.4 20.8L-116 24.8L-122.4 28.8Z" />
</svg>