<svg xmlns="http://www.w3.org/2000/svg" viewBox="0 0 48 48" width="48" height="48">
	<style>
		tspan { white-space:pre }
		.shp0 { fill: #ba9765 } 
		.shp1 { fill: #ffffff } 
	</style>
	<path id="Layer" class="shp0" d="M0 24C0 10.75 10.75 0 24 0C37.25 0 48 10.75 48 24C48 37.25 37.25 48 24 48C10.75 48 0 37.25 0 24Z" />
	<path id="Layer" fill-rule="evenodd" class="shp1" d="M14.28 12C12.42 12 11.2 13.22 11.2 14.82C11.2 16.39 12.38 17.65 14.21 17.65L14.24 17.65C16.14 17.65 17.32 16.39 17.32 14.82C17.28 13.22 16.14 12 14.28 12ZM11.52 19.88L11.52 36.22L16.96 36.22L16.96 19.88L11.52 19.88ZM36.58 36.22L36.58 26.85C36.58 21.83 33.89 19.49 30.31 19.49C27.43 19.49 26.13 21.08 25.41 22.19L25.41 19.88L19.97 19.88C20.04 21.41 19.97 36.22 19.97 36.22L25.41 36.22L25.41 27.09C25.41 26.61 25.45 26.12 25.59 25.77C25.98 24.79 26.88 23.78 28.38 23.78C30.35 23.78 31.14 25.28 31.14 27.48L31.14 36.22L36.58 36.22Z" />
	<path id="Layer" class="shp0" d="M72 24C72 10.75 82.75 0 96 0C109.25 0 120 10.75 120 24C120 37.25 109.25 48 96 48C82.75 48 72 37.25 72 24Z" />
	<path id="Layer" class="shp1" d="M95.28 19.51L95.33 20.34L94.49 20.24C91.44 19.85 88.77 18.52 86.5 16.3L85.39 15.2L85.11 16.02C84.5 17.83 84.89 19.75 86.15 21.03C86.82 21.75 86.67 21.85 85.51 21.42C85.11 21.29 84.76 21.19 84.72 21.24C84.6 21.36 85.01 22.9 85.33 23.51C85.76 24.36 86.65 25.19 87.63 25.68L88.45 26.07L87.47 26.08C86.53 26.08 86.5 26.1 86.6 26.46C86.94 27.56 88.26 28.73 89.74 29.24L90.78 29.59L89.88 30.13C88.53 30.91 86.95 31.35 85.38 31.39C84.62 31.41 84 31.47 84 31.52C84 31.69 86.05 32.64 87.24 33.02C90.82 34.12 95.06 33.64 98.25 31.76C100.52 30.42 102.78 27.76 103.84 25.19C104.41 23.81 104.98 21.3 104.98 20.1C104.98 19.32 105.03 19.22 105.97 18.29C106.53 17.75 107.05 17.15 107.15 16.98C107.32 16.66 107.3 16.66 106.44 16.95C105.02 17.46 104.82 17.39 105.52 16.63C106.04 16.08 106.66 15.1 106.66 14.81C106.66 14.76 106.41 14.85 106.13 15C105.82 15.17 105.15 15.42 104.65 15.58L103.74 15.86L102.92 15.3C102.47 15 101.83 14.66 101.49 14.56C100.64 14.32 99.33 14.36 98.55 14.63C96.46 15.39 95.13 17.36 95.28 19.51Z" />
	<path id="Layer" class="shp0" d="M216 24C216 10.75 226.75 0 240 0C253.25 0 264 10.75 264 24C264 37.25 253.25 48 240 48C226.75 48 216 37.25 216 24Z" />
	<path id="Layer" class="shp1" d="M242.5 38.11L242.5 25.05L246.11 25.05L246.58 20.55L242.5 20.55L242.51 18.3C242.51 17.13 242.62 16.5 244.31 16.5L246.56 16.5L246.56 12L242.95 12C238.62 12 237.1 14.18 237.1 17.85L237.1 20.56L234.4 20.56L234.4 25.05L237.1 25.05L237.1 38.11L242.5 38.11Z" />
	<path id="Layer" fill-rule="evenodd" class="shp0" d="M312 0C325.25 0 336 10.75 336 24C336 37.25 325.25 48 312 48C298.75 48 288 37.25 288 24C288 10.75 298.75 0 312 0ZM298.16 18.16L298.16 29.84C298.16 34.17 301.75 37.72 306.15 37.72L317.85 37.72C322.25 37.72 325.84 34.17 325.84 29.84L325.84 18.16C325.84 13.83 322.25 10.28 317.85 10.28L306.15 10.28C301.75 10.28 298.16 13.83 298.16 18.16ZM307.1 12.52L316.9 12.52C320.57 12.52 323.58 15.51 323.58 19.17L323.58 29.01C323.58 32.67 320.57 35.66 316.9 35.66L307.1 35.66C303.43 35.66 300.42 32.67 300.42 29.01L300.42 19.17C300.42 15.51 303.43 12.52 307.1 12.52ZM304.19 24.33C304.19 28.6 307.65 32.06 311.93 32.06C316.2 32.06 319.66 28.6 319.66 24.33C319.66 20.06 316.2 16.59 311.93 16.59C307.65 16.59 304.19 20.06 304.19 24.33ZM318.16 16.77C318.16 17.47 318.72 18.03 319.41 18.03C320.11 18.03 320.67 17.47 320.67 16.77C320.67 16.08 320.11 15.52 319.41 15.52C318.72 15.52 318.16 16.08 318.16 16.77ZM311.93 19.2C314.75 19.2 317.05 21.5 317.05 24.33C317.05 27.16 314.75 29.45 311.93 29.45C309.1 29.45 306.8 27.16 306.8 24.33C306.8 21.5 309.1 19.2 311.93 19.2Z" />
	<path id="Layer" class="shp0" d="M144 24C144 10.75 154.75 0 168 0C181.25 0 192 10.75 192 24C192 37.25 181.25 48 168 48C154.75 48 144 37.25 144 24Z" />
	<path id="Layer" class="shp1" d="M180.26 18.07C179.97 16.94 179.1 16.05 178 15.75C176 15.2 168 15.2 168 15.2C168 15.2 160 15.2 158 15.75C156.9 16.05 156.03 16.94 155.74 18.07C155.2 20.12 155.2 24.4 155.2 24.4C155.2 24.4 155.2 28.68 155.74 30.73C156.03 31.86 156.9 32.75 158 33.05C160 33.6 168 33.6 168 33.6C168 33.6 176 33.6 178 33.05C179.1 32.75 179.97 31.86 180.26 30.73C180.8 28.68 180.8 24.4 180.8 24.4C180.8 24.4 180.8 20.12 180.26 18.07Z" />
	<path id="Layer" class="shp0" d="M165.6 28.8L165.6 20.8L172 24.8L165.6 28.8Z" />
</svg>