<svg width="1393" height="1263" viewBox="0 0 1393 1263" fill="none" xmlns="http://www.w3.org/2000/svg">
<g clip-path="url(#clip0)">
<rect width="32" height="985" transform="translate(1096 172) rotate(90)" fill="#00AD99"/>
<rect width="31" height="986" transform="translate(1096 204) rotate(90)" fill="#00AD99" fill-opacity="0.3"/>
<path d="M1136.08 197.08H1143.26L1136.46 211H1139.9L1147.12 196.12V194.2H1136.08V197.08ZM1148.57 209.08C1150.03 210.544 1151.71 211.24 1153.66 211.24C1157.04 211.24 1159.85 208.744 1159.85 205.432C1159.85 203.632 1159.03 201.928 1157.71 200.872C1156.54 199.912 1155.1 199.6 1153.8 199.6C1153.35 199.6 1152.84 199.648 1152.51 199.72L1152.77 197.08H1159.01V194.2H1150.13L1149.05 203.104L1151.07 203.392C1151.79 202.792 1152.72 202.48 1153.54 202.48C1154.33 202.48 1155.05 202.696 1155.58 203.152C1156.23 203.704 1156.61 204.52 1156.61 205.432C1156.61 206.296 1156.25 207.064 1155.67 207.592C1155.12 208.096 1154.4 208.36 1153.66 208.36C1152.53 208.36 1151.5 207.784 1150.78 207.016L1148.57 209.08ZM1168.62 198.4C1168.62 199.384 1167.97 200.2 1166.94 200.2C1165.91 200.2 1165.26 199.384 1165.26 198.4C1165.26 197.416 1165.91 196.6 1166.94 196.6C1167.97 196.6 1168.62 197.416 1168.62 198.4ZM1162.38 198.4C1162.38 200.848 1164.35 202.84 1166.94 202.84C1169.53 202.84 1171.5 200.848 1171.5 198.4C1171.5 195.952 1169.53 193.96 1166.94 193.96C1164.35 193.96 1162.38 195.952 1162.38 198.4ZM1180.26 206.8C1180.26 207.784 1179.61 208.6 1178.58 208.6C1177.55 208.6 1176.9 207.784 1176.9 206.8C1176.9 205.816 1177.55 205 1178.58 205C1179.61 205 1180.26 205.816 1180.26 206.8ZM1174.02 206.8C1174.02 209.248 1175.99 211.24 1178.58 211.24C1181.17 211.24 1183.14 209.248 1183.14 206.8C1183.14 204.352 1181.17 202.36 1178.58 202.36C1175.99 202.36 1174.02 204.352 1174.02 206.8ZM1169.22 211L1179.04 194.2H1176.37L1166.56 211H1169.22Z" fill="#00AD99"/>
<path d="M149.65 220H152.05V212.8H156.65V210.52H152.05V192H150.45L135.45 211.32V212.8H149.65V220ZM139.01 210.52L149.65 196.8V210.52H139.01ZM162.702 192L160.782 205.6L162.382 205.84C163.662 204.68 165.422 203.88 167.342 203.88C171.382 203.88 174.462 207.08 174.462 211C174.462 214.84 171.582 218.12 167.502 218.12C164.982 218.12 162.822 216.84 161.542 215L159.662 216.28C161.342 218.76 164.262 220.4 167.542 220.4C172.822 220.4 176.862 216.16 176.862 211C176.862 205.8 172.782 201.6 167.462 201.6C166.022 201.6 164.702 201.96 163.542 202.52L164.702 194.28H175.902V192H162.702ZM186.198 220H188.918L197.518 206.72C198.478 205.24 199.478 203.2 199.478 200.68C199.478 195.72 195.518 191.64 190.198 191.6C184.878 191.6 180.878 195.6 180.878 200.84C180.878 205.92 184.678 210.08 190.038 210.08C191.118 210.08 192.078 209.92 192.918 209.64L186.198 220ZM190.198 207.8C186.158 207.8 183.278 204.8 183.278 200.84C183.278 196.92 186.238 193.88 190.118 193.88C194.158 193.88 197.078 196.96 197.078 200.84C197.078 203 196.118 204.56 195.358 205.8C193.998 207.04 192.198 207.8 190.198 207.8Z" fill="white"/>
</g>
<g clip-path="url(#clip1)">
<rect width="32" height="803" transform="translate(916 363) rotate(90)" fill="#00AD99"/>
<rect width="31" height="804" transform="translate(916 395) rotate(90)" fill="#00AD99" fill-opacity="0.3"/>
<path d="M966.696 386.2L962.736 392.872C961.848 394.36 961.08 395.848 961.08 397.504C961.08 401.008 964.08 403.24 967.224 403.24C970.488 403.24 973.2 400.6 973.2 397.336C973.2 393.976 970.512 391.552 967.32 391.552H967.104L970.272 386.2H966.696ZM965.208 394.84C965.832 394.552 966.408 394.432 967.008 394.432C968.808 394.432 970.008 395.824 970.008 397.432C970.008 399.04 968.832 400.36 967.176 400.36C965.544 400.36 964.2 399.088 964.2 397.504C964.2 396.376 964.752 395.464 965.208 394.84ZM981.152 403L985.112 396.328C986 394.84 986.768 393.352 986.768 391.696C986.768 388.192 983.768 385.96 980.624 385.96C977.36 385.96 974.648 388.6 974.648 391.864C974.648 395.224 977.336 397.648 980.528 397.648H980.743L977.576 403H981.152ZM982.64 394.36C982.016 394.648 981.44 394.768 980.84 394.768C979.04 394.768 977.84 393.376 977.84 391.768C977.84 390.16 979.016 388.84 980.672 388.84C982.304 388.84 983.648 390.112 983.648 391.696C983.648 392.824 983.096 393.736 982.64 394.36ZM995.284 390.4C995.284 391.384 994.636 392.2 993.604 392.2C992.572 392.2 991.924 391.384 991.924 390.4C991.924 389.416 992.572 388.6 993.604 388.6C994.636 388.6 995.284 389.416 995.284 390.4ZM989.044 390.4C989.044 392.848 991.012 394.84 993.604 394.84C996.196 394.84 998.164 392.848 998.164 390.4C998.164 387.952 996.196 385.96 993.604 385.96C991.012 385.96 989.044 387.952 989.044 390.4ZM1006.92 398.8C1006.92 399.784 1006.28 400.6 1005.24 400.6C1004.21 400.6 1003.56 399.784 1003.56 398.8C1003.56 397.816 1004.21 397 1005.24 397C1006.28 397 1006.92 397.816 1006.92 398.8ZM1000.68 398.8C1000.68 401.248 1002.65 403.24 1005.24 403.24C1007.84 403.24 1009.8 401.248 1009.8 398.8C1009.8 396.352 1007.84 394.36 1005.24 394.36C1002.65 394.36 1000.68 396.352 1000.68 398.8ZM995.884 403L1005.7 386.2H1003.04L993.22 403H995.884Z" fill="#00AD99"/>
</g>
<g clip-path="url(#clip2)">
<g clip-path="url(#clip3)">
<rect width="32" height="803" transform="translate(916.217 554) rotate(90)" fill="#00AD99"/>
</g>
<g clip-path="url(#clip4)">
<rect width="31" height="804" transform="translate(916.217 586) rotate(90)" fill="#00AD99" fill-opacity="0.3"/>
</g>
</g>
<g clip-path="url(#clip5)">
<g clip-path="url(#clip6)">
<rect width="32" height="1207" transform="translate(1319.87 252) rotate(90)" fill="#004990"/>
</g>
<g opacity="0.3" clip-path="url(#clip7)">
<rect width="31" height="1208" transform="translate(1319.87 284) rotate(90)" fill="#004990"/>
</g>
<path d="M150.48 270H147.76L139.16 283.28C138.2 284.76 137.2 286.8 137.2 289.32C137.2 294.28 141.16 298.36 146.48 298.4C151.8 298.4 155.8 294.4 155.8 289.16C155.8 284.08 152 279.92 146.64 279.92C145.56 279.92 144.6 280.08 143.76 280.36L150.48 270ZM146.48 282.2C150.52 282.2 153.4 285.2 153.4 289.16C153.4 293.08 150.44 296.12 146.56 296.12C142.52 296.12 139.6 293.04 139.6 289.16C139.6 287 140.56 285.44 141.32 284.2C142.68 282.96 144.48 282.2 146.48 282.2ZM159.427 276.16L164.827 273.16V298H167.227V270H165.627L159.427 273.76V276.16ZM175.442 276.16L180.842 273.16V298H183.242V270H181.642L175.442 273.76V276.16Z" fill="white"/>
</g>
<g clip-path="url(#clip8)">
<g clip-path="url(#clip9)">
<rect width="32" height="1207" transform="translate(1318.87 443) rotate(90)" fill="#004990"/>
</g>
<g opacity="0.3" clip-path="url(#clip10)">
<rect width="31" height="1208" transform="translate(1318.87 475) rotate(90)" fill="#004990"/>
</g>
</g>
<g clip-path="url(#clip11)">
<g clip-path="url(#clip12)">
<rect width="32" height="1207" transform="translate(1318.87 634) rotate(90)" fill="#004990"/>
</g>
<g opacity="0.3" clip-path="url(#clip13)">
<rect width="31" height="1208" transform="translate(1318.87 666) rotate(90)" fill="#004990"/>
</g>
</g>
<path d="M135.96 581.76C136.64 578.84 138.68 576.88 141.68 576.88C144.88 576.88 147.2 579.28 147.2 582.56C147.2 584.2 146.6 585.92 144.32 588.64L133.6 601.52V603H150V600.72H137.32L146.32 589.84C148.64 587.04 149.6 584.96 149.6 582.48C149.6 577.96 146.28 574.6 141.6 574.6C137.52 574.6 134.6 577.44 133.8 581L135.96 581.76ZM166.995 603H169.395V595.8H173.995V593.52H169.395V575H167.795L152.795 594.32V595.8H166.995V603ZM156.355 593.52L166.995 579.8V593.52H156.355ZM176.217 599C177.897 601.76 180.937 603.4 184.617 603.4C190.137 603.4 193.937 599.04 193.937 594C193.937 589.08 190.257 585.08 185.217 584.72L192.337 576.48V575H177.537V577.28H188.657L181.257 585.8V587.28C181.617 587.16 182.577 586.88 184.097 586.88C188.337 586.88 191.537 589.92 191.537 594C191.537 597.8 188.817 601.12 184.617 601.12C181.697 601.12 179.417 599.8 178.137 597.76L176.217 599Z" fill="white"/>
<path d="M146.8 681H149.2V673.8H153.8V671.52H149.2V653H147.6L132.6 672.32V673.8H146.8V681ZM136.16 671.52L146.8 657.8V671.52H136.16ZM158.187 659.76C158.867 656.84 160.907 654.88 163.907 654.88C167.107 654.88 169.427 657.28 169.427 660.56C169.427 662.2 168.827 663.92 166.547 666.64L155.827 679.52V681H172.227V678.72H159.547L168.547 667.84C170.867 665.04 171.827 662.96 171.827 660.48C171.827 655.96 168.507 652.6 163.827 652.6C159.747 652.6 156.827 655.44 156.027 659L158.187 659.76ZM189.222 681H191.622V673.8H196.222V671.52H191.622V653H190.022L175.022 672.32V673.8H189.222V681ZM178.582 671.52L189.222 657.8V671.52H178.582Z" fill="white"/>
<line y1="92.5" x2="1381" y2="92.5" stroke="#00AD99" stroke-width="3"/>
<line x1="12" y1="1135.5" x2="1393" y2="1135.5" stroke="#00AD99" stroke-width="3"/>
<path d="M19.64 245.72H5.36C5.92 242.44 7.28 241 12.68 237.92C15.24 236.4 16.6 235.4 17.64 234.24C19.04 232.68 19.76 230.76 19.76 228.64C19.76 224.04 16.56 221.04 11.76 221.04C6.48 221.04 3.32 224.36 3.28 230H6C6.04 225.68 7.92 223.52 11.64 223.52C15 223.52 16.96 225.48 16.96 228.8C16.96 231.88 15.72 233.44 11.2 236.08C7.24 238.4 5.68 239.6 4.48 241.32C3.32 242.92 2.68 245.04 2.68 247.2C2.68 247.32 2.68 247.64 2.72 248H19.64V245.72ZM33.5828 221.04C30.5828 221.04 28.0228 222.56 26.6228 225.12C25.4228 227.44 24.8628 230.36 24.8628 234.8C24.8628 239.2 25.3828 242.04 26.6228 244.44C27.9828 247 30.5828 248.52 33.5828 248.52C36.6228 248.52 39.2228 247 40.5828 244.44C41.7828 242.08 42.3428 239.2 42.3428 234.96C42.3428 230.32 41.8628 227.56 40.5828 225.12C39.2228 222.52 36.6628 221.04 33.5828 221.04ZM33.5828 223.32C35.6228 223.32 37.3828 224.44 38.3028 226.28C39.2228 228.24 39.6628 230.88 39.6628 234.92C39.6628 242.56 37.7028 246.24 33.6228 246.24C31.5828 246.24 29.7828 245.08 28.9028 243.28C27.9828 241.28 27.5428 238.64 27.5428 234.76C27.5428 230.92 27.9828 228.28 28.9028 226.28C29.7828 224.44 31.5828 223.32 33.5828 223.32ZM64.4056 245.72H50.1256C50.6856 242.44 52.0456 241 57.4456 237.92C60.0056 236.4 61.3656 235.4 62.4056 234.24C63.8056 232.68 64.5256 230.76 64.5256 228.64C64.5256 224.04 61.3256 221.04 56.5256 221.04C51.2456 221.04 48.0856 224.36 48.0456 230H50.7656C50.8056 225.68 52.6856 223.52 56.4056 223.52C59.7656 223.52 61.7256 225.48 61.7256 228.8C61.7256 231.88 60.4856 233.44 55.9656 236.08C52.0056 238.4 50.4456 239.6 49.2456 241.32C48.0856 242.92 47.4456 245.04 47.4456 247.2C47.4456 247.32 47.4456 247.64 47.4856 248H64.4056V245.72ZM78.3484 221.04C75.3484 221.04 72.7884 222.56 71.3884 225.12C70.1884 227.44 69.6284 230.36 69.6284 234.8C69.6284 239.2 70.1484 242.04 71.3884 244.44C72.7484 247 75.3484 248.52 78.3484 248.52C81.3884 248.52 83.9884 247 85.3484 244.44C86.5484 242.08 87.1084 239.2 87.1084 234.96C87.1084 230.32 86.6284 227.56 85.3484 225.12C83.9884 222.52 81.4284 221.04 78.3484 221.04ZM78.3484 223.32C80.3884 223.32 82.1484 224.44 83.0684 226.28C83.9884 228.24 84.4284 230.88 84.4284 234.92C84.4284 242.56 82.4684 246.24 78.3884 246.24C76.3484 246.24 74.5484 245.08 73.6684 243.28C72.7484 241.28 72.3084 238.64 72.3084 234.76C72.3084 230.92 72.7484 228.28 73.6684 226.28C74.5484 224.44 76.3484 223.32 78.3484 223.32Z" fill="#004990"/>
<path d="M19.64 436.72H5.36C5.92 433.44 7.28 432 12.68 428.92C15.24 427.4 16.6 426.4 17.64 425.24C19.04 423.68 19.76 421.76 19.76 419.64C19.76 415.04 16.56 412.04 11.76 412.04C6.48 412.04 3.32 415.36 3.28 421H6C6.04 416.68 7.92 414.52 11.64 414.52C15 414.52 16.96 416.48 16.96 419.8C16.96 422.88 15.72 424.44 11.2 427.08C7.24 429.4 5.68 430.6 4.48 432.32C3.32 433.92 2.68 436.04 2.68 438.2C2.68 438.32 2.68 438.64 2.72 439H19.64V436.72ZM33.5828 412.04C30.5828 412.04 28.0228 413.56 26.6228 416.12C25.4228 418.44 24.8628 421.36 24.8628 425.8C24.8628 430.2 25.3828 433.04 26.6228 435.44C27.9828 438 30.5828 439.52 33.5828 439.52C36.6228 439.52 39.2228 438 40.5828 435.44C41.7828 433.08 42.3428 430.2 42.3428 425.96C42.3428 421.32 41.8628 418.56 40.5828 416.12C39.2228 413.52 36.6628 412.04 33.5828 412.04ZM33.5828 414.32C35.6228 414.32 37.3828 415.44 38.3028 417.28C39.2228 419.24 39.6628 421.88 39.6628 425.92C39.6628 433.56 37.7028 437.24 33.6228 437.24C31.5828 437.24 29.7828 436.08 28.9028 434.28C27.9828 432.28 27.5428 429.64 27.5428 425.76C27.5428 421.92 27.9828 419.28 28.9028 417.28C29.7828 415.44 31.5828 414.32 33.5828 414.32ZM58.7656 412.32H56.7656C56.4056 415.84 54.4056 417.28 49.9656 417.32V419.04H56.1656V439H58.7656V412.32ZM70.0284 432.72C70.4684 436.88 73.3884 439.52 77.5484 439.52C83.6684 439.52 87.1884 434.16 87.1884 424.92C87.1884 420.56 86.3484 417.4 84.6284 415.12C83.1084 413.12 80.7484 412.04 78.0684 412.04C73.0284 412.04 69.5084 415.72 69.5084 420.92C69.5084 426 72.7884 429.48 77.5484 429.48C80.6284 429.48 82.8684 428.16 84.6284 425.32V426.16C84.6284 428.68 84.1084 431.24 83.1884 433.32C82.0684 435.88 80.1084 437.24 77.5884 437.24C74.7884 437.24 72.9884 435.64 72.6284 432.72H70.0284ZM77.9484 414.32C81.4284 414.32 83.8684 417 83.8684 420.84C83.8684 424.48 81.3484 427.2 77.9884 427.2C74.5484 427.2 72.3084 424.64 72.3084 420.76C72.3084 416.88 74.5484 414.32 77.9484 414.32Z" fill="#004990"/>
<path d="M19.64 627.72H5.36C5.92 624.44 7.28 623 12.68 619.92C15.24 618.4 16.6 617.4 17.64 616.24C19.04 614.68 19.76 612.76 19.76 610.64C19.76 606.04 16.56 603.04 11.76 603.04C6.48 603.04 3.32 606.36 3.28 612H6C6.04 607.68 7.92 605.52 11.64 605.52C15 605.52 16.96 607.48 16.96 610.8C16.96 613.88 15.72 615.44 11.2 618.08C7.24 620.4 5.68 621.6 4.48 623.32C3.32 624.92 2.68 627.04 2.68 629.2C2.68 629.32 2.68 629.64 2.72 630H19.64V627.72ZM33.5828 603.04C30.5828 603.04 28.0228 604.56 26.6228 607.12C25.4228 609.44 24.8628 612.36 24.8628 616.8C24.8628 621.2 25.3828 624.04 26.6228 626.44C27.9828 629 30.5828 630.52 33.5828 630.52C36.6228 630.52 39.2228 629 40.5828 626.44C41.7828 624.08 42.3428 621.2 42.3428 616.96C42.3428 612.32 41.8628 609.56 40.5828 607.12C39.2228 604.52 36.6628 603.04 33.5828 603.04ZM33.5828 605.32C35.6228 605.32 37.3828 606.44 38.3028 608.28C39.2228 610.24 39.6628 612.88 39.6628 616.92C39.6628 624.56 37.7028 628.24 33.6228 628.24C31.5828 628.24 29.7828 627.08 28.9028 625.28C27.9828 623.28 27.5428 620.64 27.5428 616.76C27.5428 612.92 27.9828 610.28 28.9028 608.28C29.7828 606.44 31.5828 605.32 33.5828 605.32ZM58.7656 603.32H56.7656C56.4056 606.84 54.4056 608.28 49.9656 608.32V610.04H56.1656V630H58.7656V603.32ZM82.4684 615.56C85.0284 614.28 86.1484 612.56 86.1484 610C86.1484 605.92 82.9084 603.04 78.3484 603.04C73.7884 603.04 70.5484 605.92 70.5484 610C70.5484 612.56 71.7084 614.28 74.2284 615.56C71.0684 616.92 69.4684 619.24 69.4684 622.56C69.4684 627.28 73.0684 630.52 78.3484 630.52C83.6284 630.52 87.2284 627.28 87.2284 622.6C87.2284 619.24 85.6284 616.92 82.4684 615.56ZM78.3484 605.32C81.4284 605.32 83.6284 607.32 83.6284 610.04C83.6284 612.68 81.3484 614.68 78.3484 614.68C75.3084 614.68 73.0684 612.68 73.0684 610C73.0684 607.32 75.3084 605.32 78.3484 605.32ZM78.3484 616.76C81.9884 616.76 84.5484 619.16 84.5484 622.56C84.5484 625.8 81.9084 628.24 78.3484 628.24C74.7884 628.24 72.1484 625.8 72.1484 622.48C72.1484 619.2 74.7484 616.76 78.3484 616.76Z" fill="#004990"/>
<path d="M839.96 592.08C841.424 593.544 843.104 594.24 845.048 594.24C848.432 594.24 851.24 591.744 851.24 588.432C851.24 586.632 850.424 584.928 849.104 583.872C847.928 582.912 846.488 582.6 845.192 582.6C844.736 582.6 844.232 582.648 843.896 582.72L844.16 580.08H850.4V577.2H841.52L840.44 586.104L842.456 586.392C843.176 585.792 844.112 585.48 844.928 585.48C845.72 585.48 846.44 585.696 846.968 586.152C847.616 586.704 848 587.52 848 588.432C848 589.296 847.64 590.064 847.064 590.592C846.512 591.096 845.792 591.36 845.048 591.36C843.92 591.36 842.888 590.784 842.168 590.016L839.96 592.08ZM853.416 580.08H860.592L853.8 594H857.232L864.456 579.12V577.2H853.416V580.08ZM872.62 581.4C872.62 582.384 871.972 583.2 870.94 583.2C869.908 583.2 869.26 582.384 869.26 581.4C869.26 580.416 869.908 579.6 870.94 579.6C871.972 579.6 872.62 580.416 872.62 581.4ZM866.38 581.4C866.38 583.848 868.348 585.84 870.94 585.84C873.532 585.84 875.5 583.848 875.5 581.4C875.5 578.952 873.532 576.96 870.94 576.96C868.348 576.96 866.38 578.952 866.38 581.4ZM884.26 589.8C884.26 590.784 883.612 591.6 882.58 591.6C881.548 591.6 880.9 590.784 880.9 589.8C880.9 588.816 881.548 588 882.58 588C883.612 588 884.26 588.816 884.26 589.8ZM878.02 589.8C878.02 592.248 879.988 594.24 882.58 594.24C885.172 594.24 887.14 592.248 887.14 589.8C887.14 587.352 885.172 585.36 882.58 585.36C879.988 585.36 878.02 587.352 878.02 589.8ZM873.22 594L883.036 577.2H880.372L870.556 594H873.22Z" fill="#00AD99"/>
<g clip-path="url(#clip14)">
<rect width="32" height="803" transform="translate(930 745) rotate(90)" fill="#00AD99"/>
<rect width="31" height="804" transform="translate(930 777) rotate(90)" fill="#00AD99" fill-opacity="0.15"/>
</g>
<g clip-path="url(#clip15)">
<g clip-path="url(#clip16)">
<rect width="32" height="1207" transform="translate(1332.87 825) rotate(90)" fill="#004990"/>
</g>
<g opacity="0.15" clip-path="url(#clip17)">
<rect width="31" height="1208" transform="translate(1332.87 857) rotate(90)" fill="#004990"/>
</g>
</g>
<path d="M19.64 818.72H5.36C5.92 815.44 7.28 814 12.68 810.92C15.24 809.4 16.6 808.4 17.64 807.24C19.04 805.68 19.76 803.76 19.76 801.64C19.76 797.04 16.56 794.04 11.76 794.04C6.48 794.04 3.32 797.36 3.28 803H6C6.04 798.68 7.92 796.52 11.64 796.52C15 796.52 16.96 798.48 16.96 801.8C16.96 804.88 15.72 806.44 11.2 809.08C7.24 811.4 5.68 812.6 4.48 814.32C3.32 815.92 2.68 818.04 2.68 820.2C2.68 820.32 2.68 820.64 2.72 821H19.64V818.72ZM33.5828 794.04C30.5828 794.04 28.0228 795.56 26.6228 798.12C25.4228 800.44 24.8628 803.36 24.8628 807.8C24.8628 812.2 25.3828 815.04 26.6228 817.44C27.9828 820 30.5828 821.52 33.5828 821.52C36.6228 821.52 39.2228 820 40.5828 817.44C41.7828 815.08 42.3428 812.2 42.3428 807.96C42.3428 803.32 41.8628 800.56 40.5828 798.12C39.2228 795.52 36.6628 794.04 33.5828 794.04ZM33.5828 796.32C35.6228 796.32 37.3828 797.44 38.3028 799.28C39.2228 801.24 39.6628 803.88 39.6628 807.92C39.6628 815.56 37.7028 819.24 33.6228 819.24C31.5828 819.24 29.7828 818.08 28.9028 816.28C27.9828 814.28 27.5428 811.64 27.5428 807.76C27.5428 803.92 27.9828 801.28 28.9028 799.28C29.7828 797.44 31.5828 796.32 33.5828 796.32ZM58.7656 794.32H56.7656C56.4056 797.84 54.4056 799.28 49.9656 799.32V801.04H56.1656V821H58.7656V794.32ZM86.9484 794.6H70.1084V797.12H84.1084C78.7884 803.48 75.1484 811.76 73.7084 821H76.5884C77.5484 812.32 82.0284 801.88 86.9484 796.88V794.6Z" fill="#004990"/>
<path d="M490.6 778.624C492.088 780.304 494.08 781.24 496.168 781.24C499.648 781.24 502.432 778.864 502.432 775.312C502.432 772.768 500.848 770.752 498.544 769.864L501.592 766.12V764.2H491.392V767.08H497.008L493.864 770.8V772.72C494.488 772.408 495.208 772.24 495.88 772.24C497.752 772.24 499.192 773.56 499.192 775.312C499.192 777.112 497.632 778.36 496.048 778.36C494.776 778.36 493.624 777.664 492.928 776.68L490.6 778.624ZM504.358 778.624C505.846 780.304 507.838 781.24 509.926 781.24C513.406 781.24 516.19 778.864 516.19 775.312C516.19 772.768 514.606 770.752 512.302 769.864L515.35 766.12V764.2H505.15V767.08H510.766L507.622 770.8V772.72C508.246 772.408 508.966 772.24 509.638 772.24C511.51 772.24 512.95 773.56 512.95 775.312C512.95 777.112 511.39 778.36 509.806 778.36C508.534 778.36 507.382 777.664 506.686 776.68L504.358 778.624ZM524.956 768.4C524.956 769.384 524.308 770.2 523.276 770.2C522.244 770.2 521.596 769.384 521.596 768.4C521.596 767.416 522.244 766.6 523.276 766.6C524.308 766.6 524.956 767.416 524.956 768.4ZM518.716 768.4C518.716 770.848 520.684 772.84 523.276 772.84C525.868 772.84 527.836 770.848 527.836 768.4C527.836 765.952 525.868 763.96 523.276 763.96C520.684 763.96 518.716 765.952 518.716 768.4ZM536.596 776.8C536.596 777.784 535.948 778.6 534.916 778.6C533.884 778.6 533.236 777.784 533.236 776.8C533.236 775.816 533.884 775 534.916 775C535.948 775 536.596 775.816 536.596 776.8ZM530.356 776.8C530.356 779.248 532.324 781.24 534.916 781.24C537.508 781.24 539.476 779.248 539.476 776.8C539.476 774.352 537.508 772.36 534.916 772.36C532.324 772.36 530.356 774.352 530.356 776.8ZM525.556 781L535.372 764.2H532.708L522.892 781H525.556Z" fill="#00AD99"/>
<g clip-path="url(#clip18)">
<g clip-path="url(#clip19)">
<rect width="32" height="803" transform="translate(915.598 745) rotate(90)" fill="#00AD99"/>
</g>
<g clip-path="url(#clip20)">
<rect width="31" height="804" transform="translate(915.598 777) rotate(90)" fill="#00AD99" fill-opacity="0.3"/>
</g>
</g>
<g clip-path="url(#clip21)">
<g clip-path="url(#clip22)">
<rect width="32" height="1207" transform="translate(1318.58 825) rotate(90)" fill="#004990"/>
</g>
<g opacity="0.3" clip-path="url(#clip23)">
<rect width="31" height="1208" transform="translate(1318.58 857) rotate(90)" fill="#004990"/>
</g>
</g>

<g clip-path="url(#clip24)">
<g clip-path="url(#clip25)">
<rect width="32" height="803" transform="translate(916.014 936) rotate(90)" fill="#00AD99"/>
</g>
<g clip-path="url(#clip26)">
<rect width="31" height="804" transform="translate(916.014 968) rotate(90)" fill="#00AD99" fill-opacity="0.3"/>
</g>
</g>
<g clip-path="url(#clip27)">
<g clip-path="url(#clip28)">
<rect width="32" height="1207" transform="translate(1318.87 1016) rotate(90)" fill="#004990"/>
</g>
<g opacity="0.3" clip-path="url(#clip29)">
<rect width="31" height="1208" transform="translate(1318.87 1048) rotate(90)" fill="#004990"/>
</g>
</g>
<path d="M19.64 1009.72H5.36C5.92 1006.44 7.28 1005 12.68 1001.92C15.24 1000.4 16.6 999.4 17.64 998.24C19.04 996.68 19.76 994.76 19.76 992.64C19.76 988.04 16.56 985.04 11.76 985.04C6.48 985.04 3.32 988.36 3.28 994H6C6.04 989.68 7.92 987.52 11.64 987.52C15 987.52 16.96 989.48 16.96 992.8C16.96 995.88 15.72 997.44 11.2 1000.08C7.24 1002.4 5.68 1003.6 4.48 1005.32C3.32 1006.92 2.68 1009.04 2.68 1011.2C2.68 1011.32 2.68 1011.64 2.72 1012H19.64V1009.72ZM33.5828 985.04C30.5828 985.04 28.0228 986.56 26.6228 989.12C25.4228 991.44 24.8628 994.36 24.8628 998.8C24.8628 1003.2 25.3828 1006.04 26.6228 1008.44C27.9828 1011 30.5828 1012.52 33.5828 1012.52C36.6228 1012.52 39.2228 1011 40.5828 1008.44C41.7828 1006.08 42.3428 1003.2 42.3428 998.96C42.3428 994.32 41.8628 991.56 40.5828 989.12C39.2228 986.52 36.6628 985.04 33.5828 985.04ZM33.5828 987.32C35.6228 987.32 37.3828 988.44 38.3028 990.28C39.2228 992.24 39.6628 994.88 39.6628 998.92C39.6628 1006.56 37.7028 1010.24 33.6228 1010.24C31.5828 1010.24 29.7828 1009.08 28.9028 1007.28C27.9828 1005.28 27.5428 1002.64 27.5428 998.76C27.5428 994.92 27.9828 992.28 28.9028 990.28C29.7828 988.44 31.5828 987.32 33.5828 987.32ZM58.7656 985.32H56.7656C56.4056 988.84 54.4056 990.28 49.9656 990.32V992.04H56.1656V1012H58.7656V985.32ZM86.6684 991.88C86.2284 987.72 83.3084 985.04 79.1484 985.04C73.0284 985.04 69.5084 990.4 69.5084 999.64C69.5084 1004 70.3484 1007.2 72.0684 1009.44C73.5884 1011.4 75.9484 1012.52 78.6284 1012.52C83.6684 1012.52 87.1884 1008.84 87.1884 1003.64C87.1884 998.6 83.9084 995.12 79.1484 995.12C76.0284 995.12 73.8284 996.44 72.0684 999.28V998.44C72.0684 995.92 72.5884 993.32 73.5084 991.28C74.6284 988.68 76.5884 987.32 79.1084 987.32C81.9084 987.32 83.6684 988.96 84.0284 991.88H86.6684ZM78.7084 997.4C82.1484 997.4 84.3884 999.96 84.3884 1003.8C84.3884 1007.68 82.1484 1010.24 78.7484 1010.24C75.2684 1010.24 72.8284 1007.56 72.8284 1003.76C72.8284 1000.08 75.3484 997.4 78.7084 997.4Z" fill="#004990"/>
<path d="M443.056 962.736C443.392 961.608 444.208 960.84 445.336 960.84C446.608 960.84 447.52 961.92 447.52 963.096C447.52 963.96 447.16 964.92 445.864 966.384L439.96 973.08V975H450.88V972.12H445.024L448.6 967.968C449.728 966.672 450.76 965.184 450.76 963.144C450.76 960.12 448.264 957.96 445.384 957.96C442.912 957.96 440.8 959.544 440.08 961.848L443.056 962.736ZM459.161 964.32C458.153 964.32 457.481 963.552 457.481 962.592C457.481 961.632 458.153 960.84 459.161 960.84C460.169 960.84 460.841 961.632 460.841 962.592C460.841 963.552 460.169 964.32 459.161 964.32ZM459.161 972.36C457.577 972.36 456.401 971.232 456.401 969.792C456.401 968.352 457.577 967.2 459.161 967.2C460.745 967.2 461.921 968.352 461.921 969.792C461.921 971.232 460.745 972.36 459.161 972.36ZM459.161 975.24C462.521 975.24 465.161 972.84 465.161 969.792C465.161 967.824 464.129 966.456 462.737 965.544C463.457 964.896 464.081 963.96 464.081 962.592C464.081 960.024 461.993 957.96 459.161 957.96C456.329 957.96 454.241 960.024 454.241 962.592C454.241 963.96 454.865 964.896 455.585 965.544C454.193 966.456 453.161 967.824 453.161 969.792C453.161 972.84 455.801 975.24 459.161 975.24ZM473.792 962.4C473.792 963.384 473.144 964.2 472.112 964.2C471.08 964.2 470.432 963.384 470.432 962.4C470.432 961.416 471.08 960.6 472.112 960.6C473.144 960.6 473.792 961.416 473.792 962.4ZM467.552 962.4C467.552 964.848 469.52 966.84 472.112 966.84C474.704 966.84 476.672 964.848 476.672 962.4C476.672 959.952 474.704 957.96 472.112 957.96C469.52 957.96 467.552 959.952 467.552 962.4ZM485.432 970.8C485.432 971.784 484.784 972.6 483.752 972.6C482.72 972.6 482.072 971.784 482.072 970.8C482.072 969.816 482.72 969 483.752 969C484.784 969 485.432 969.816 485.432 970.8ZM479.192 970.8C479.192 973.248 481.16 975.24 483.752 975.24C486.344 975.24 488.312 973.248 488.312 970.8C488.312 968.352 486.344 966.36 483.752 966.36C481.16 966.36 479.192 968.352 479.192 970.8ZM474.392 975L484.208 958.2H481.544L471.728 975H474.392Z" fill="#00AD99"/>
<rect x="136" y="1181" width="50" height="50" fill="#00AD99" fill-opacity="0.3"/>
<rect x="136" y="1181" width="50" height="25" fill="#00AD99"/>
<rect x="628" y="1181" width="50" height="50" fill="#004990" fill-opacity="0.15"/>
<rect x="628" y="1181" width="50" height="25" fill="#004990"/>
<path d="M210.48 1219.2V1220.57H215.28V1236H216.72V1220.57H221.52V1219.2H210.48ZM231.305 1230.53C231.305 1232.98 229.505 1234.94 227.033 1234.94C224.561 1234.94 222.761 1232.98 222.761 1230.53C222.761 1228.08 224.561 1226.11 227.033 1226.11C229.505 1226.11 231.305 1228.08 231.305 1230.53ZM232.673 1230.53C232.673 1227.38 230.297 1224.82 227.033 1224.82C223.769 1224.82 221.393 1227.38 221.393 1230.53C221.393 1233.67 223.769 1236.24 227.033 1236.24C230.297 1236.24 232.673 1233.67 232.673 1230.53ZM241.905 1225.06H238.185V1222.08H236.817V1225.06H233.745V1226.35H236.817V1232.3C236.817 1233.6 237.081 1234.39 237.561 1234.99C238.305 1235.93 239.481 1236.24 240.489 1236.24C240.921 1236.24 241.545 1236.17 241.905 1236.05L241.665 1234.8C241.257 1234.92 240.801 1234.94 240.489 1234.94C239.673 1234.94 239.049 1234.66 238.665 1234.18C238.377 1233.82 238.185 1233.34 238.185 1232.35V1226.35H241.905V1225.06ZM254.811 1236V1225.06H253.491V1226.57C252.507 1225.46 251.067 1224.82 249.483 1224.82C248.163 1224.82 246.915 1225.3 246.003 1226.04C244.755 1227.1 243.963 1228.7 243.963 1230.53C243.963 1232.5 244.851 1234.2 246.291 1235.21C247.371 1235.98 248.523 1236.24 249.555 1236.24C251.259 1236.24 252.675 1235.5 253.491 1234.39V1236H254.811ZM253.443 1232.54C252.579 1234.03 251.139 1234.94 249.531 1234.94C248.595 1234.94 247.755 1234.61 247.059 1234.13C246.003 1233.38 245.331 1232.04 245.331 1230.53C245.331 1229.11 245.907 1227.84 246.867 1227.05C247.635 1226.42 248.595 1226.11 249.507 1226.11C251.523 1226.11 252.963 1227.5 253.443 1228.32V1232.54ZM258.892 1236H260.26V1218.96H258.892V1236ZM283.398 1236L276.918 1227.41C278.31 1227.36 279.222 1226.98 279.918 1226.33C280.734 1225.58 281.238 1224.5 281.238 1223.3C281.238 1222.1 280.734 1221.02 279.918 1220.28C279.174 1219.61 278.19 1219.2 276.654 1219.2H270.918V1236H272.358V1227.41H275.19L281.67 1236H283.398ZM272.358 1226.04V1220.57H276.582C277.782 1220.57 278.43 1220.83 278.91 1221.29C279.462 1221.79 279.798 1222.51 279.798 1223.3C279.798 1224.1 279.462 1224.82 278.91 1225.32C278.43 1225.78 277.782 1226.04 276.582 1226.04H272.358ZM289.484 1226.11C291.38 1226.11 292.868 1227.48 293.156 1229.4H285.692C286.1 1227.5 287.54 1226.11 289.484 1226.11ZM293.252 1233.31C292.388 1234.37 291.188 1234.94 289.748 1234.94C287.228 1234.94 285.716 1232.98 285.62 1230.65H294.548C294.572 1230.43 294.572 1230.26 294.572 1230.17C294.572 1227.12 292.412 1224.82 289.484 1224.82C286.388 1224.82 284.252 1227.38 284.252 1230.53C284.252 1233.94 286.676 1236.24 289.748 1236.24C291.836 1236.24 293.396 1235.26 294.212 1234.22L293.252 1233.31ZM299.001 1225.06H297.681V1236H299.049V1228.39C299.889 1226.95 301.257 1226.11 302.841 1226.11C304.041 1226.11 305.073 1226.66 305.697 1227.58C306.081 1228.13 306.321 1228.82 306.321 1230.26V1236H307.689V1230.17C307.689 1228.37 307.353 1227.46 306.753 1226.66C305.865 1225.46 304.449 1224.82 302.865 1224.82C301.329 1224.82 299.889 1225.42 299.001 1226.59V1225.06ZM315.804 1226.11C317.7 1226.11 319.188 1227.48 319.476 1229.4H312.012C312.42 1227.5 313.86 1226.11 315.804 1226.11ZM319.572 1233.31C318.708 1234.37 317.508 1234.94 316.068 1234.94C313.548 1234.94 312.036 1232.98 311.94 1230.65H320.868C320.892 1230.43 320.892 1230.26 320.892 1230.17C320.892 1227.12 318.732 1224.82 315.804 1224.82C312.708 1224.82 310.572 1227.38 310.572 1230.53C310.572 1233.94 312.996 1236.24 316.068 1236.24C318.156 1236.24 319.716 1235.26 320.532 1234.22L319.572 1233.31ZM331.105 1227.29L334.657 1236H335.545L339.769 1225.06H338.353L335.041 1233.65L331.537 1225.06H330.673L327.169 1233.65L323.857 1225.06H322.441L326.665 1236H327.553L331.105 1227.29ZM352.17 1236V1225.06H350.85V1226.57C349.866 1225.46 348.426 1224.82 346.842 1224.82C345.522 1224.82 344.274 1225.3 343.362 1226.04C342.114 1227.1 341.322 1228.7 341.322 1230.53C341.322 1232.5 342.21 1234.2 343.65 1235.21C344.73 1235.98 345.882 1236.24 346.914 1236.24C348.618 1236.24 350.034 1235.5 350.85 1234.39V1236H352.17ZM350.802 1232.54C349.938 1234.03 348.498 1234.94 346.89 1234.94C345.954 1234.94 345.114 1234.61 344.418 1234.13C343.362 1233.38 342.69 1232.04 342.69 1230.53C342.69 1229.11 343.266 1227.84 344.226 1227.05C344.994 1226.42 345.954 1226.11 346.866 1226.11C348.882 1226.11 350.322 1227.5 350.802 1228.32V1232.54ZM357.619 1228.32C358.099 1227.5 359.539 1226.11 361.555 1226.11C362.467 1226.11 363.427 1226.42 364.195 1227.05C365.155 1227.84 365.731 1229.11 365.731 1230.53C365.731 1232.04 365.059 1233.38 364.003 1234.13C363.307 1234.61 362.467 1234.94 361.531 1234.94C359.923 1234.94 358.483 1234.03 357.619 1232.54V1228.32ZM361.507 1236.24C362.539 1236.24 363.691 1235.98 364.771 1235.21C366.211 1234.2 367.099 1232.5 367.099 1230.53C367.099 1228.7 366.307 1227.1 365.059 1226.04C364.147 1225.3 362.899 1224.82 361.579 1224.82C360.067 1224.82 358.651 1225.42 357.619 1226.52V1218.96H356.251V1236H357.571V1234.39C358.387 1235.5 359.803 1236.24 361.507 1236.24ZM370.22 1236H371.588V1218.96H370.22V1236ZM379.929 1226.11C381.825 1226.11 383.313 1227.48 383.601 1229.4H376.137C376.545 1227.5 377.985 1226.11 379.929 1226.11ZM383.697 1233.31C382.833 1234.37 381.633 1234.94 380.193 1234.94C377.673 1234.94 376.161 1232.98 376.065 1230.65H384.993C385.017 1230.43 385.017 1230.26 385.017 1230.17C385.017 1227.12 382.857 1224.82 379.929 1224.82C376.833 1224.82 374.697 1227.38 374.697 1230.53C374.697 1233.94 377.121 1236.24 380.193 1236.24C382.281 1236.24 383.841 1235.26 384.657 1234.22L383.697 1233.31ZM403.835 1220.57V1219.2H394.715V1236H404.075V1234.63H396.155V1227.41H402.155V1226.04H396.155V1220.57H403.835ZM408.383 1225.06H407.063V1236H408.431V1228.39C409.271 1226.95 410.639 1226.11 412.223 1226.11C413.423 1226.11 414.455 1226.66 415.079 1227.58C415.463 1228.13 415.703 1228.82 415.703 1230.26V1236H417.071V1230.17C417.071 1228.37 416.735 1227.46 416.135 1226.66C415.247 1225.46 413.831 1224.82 412.247 1224.82C410.711 1224.82 409.271 1225.42 408.383 1226.59V1225.06ZM425.187 1226.11C427.083 1226.11 428.571 1227.48 428.859 1229.4H421.395C421.803 1227.5 423.243 1226.11 425.187 1226.11ZM428.955 1233.31C428.091 1234.37 426.891 1234.94 425.451 1234.94C422.931 1234.94 421.419 1232.98 421.323 1230.65H430.251C430.275 1230.43 430.275 1230.26 430.275 1230.17C430.275 1227.12 428.115 1224.82 425.187 1224.82C422.091 1224.82 419.955 1227.38 419.955 1230.53C419.955 1233.94 422.379 1236.24 425.451 1236.24C427.539 1236.24 429.099 1235.26 429.915 1234.22L428.955 1233.31ZM439.024 1224.86C438.88 1224.84 438.4 1224.82 438.208 1224.82C436.504 1224.82 435.256 1225.73 434.752 1226.5V1225.06H433.384V1236H434.752V1228.54C435.328 1227.12 436.696 1226.11 438.184 1226.11C438.256 1226.11 438.688 1226.11 438.832 1226.14L439.024 1224.86ZM451.311 1235.95V1225.06H449.991V1226.57C449.007 1225.46 447.567 1224.82 445.983 1224.82C444.663 1224.82 443.415 1225.3 442.503 1226.04C441.255 1227.1 440.463 1228.7 440.463 1230.53C440.463 1232.5 441.351 1234.2 442.791 1235.21C443.871 1235.98 445.023 1236.24 446.055 1236.24C447.759 1236.24 449.127 1235.5 449.943 1234.44V1236C449.943 1237.37 449.847 1238.16 449.511 1238.83C448.959 1239.91 447.831 1240.7 445.983 1240.7C444.231 1240.7 442.887 1239.89 442.071 1238.59L440.991 1239.38C442.095 1241.04 443.871 1242 445.959 1242C448.359 1242 449.919 1240.97 450.711 1239.48C451.167 1238.62 451.311 1237.56 451.311 1235.95ZM449.943 1232.54C449.079 1234.03 447.639 1234.94 446.031 1234.94C445.095 1234.94 444.255 1234.61 443.559 1234.13C442.503 1233.38 441.831 1232.04 441.831 1230.53C441.831 1229.11 442.407 1227.84 443.367 1227.05C444.135 1226.42 445.095 1226.11 446.007 1226.11C448.023 1226.11 449.463 1227.5 449.943 1228.32V1232.54ZM457.096 1241.76L464.68 1225.06H463.216L459.352 1233.55L455.248 1225.06H453.712L458.656 1235.11L455.656 1241.76H457.096ZM485.567 1232.76C484.343 1234.03 482.495 1234.87 480.455 1234.87C476.279 1234.87 473.327 1231.68 473.327 1227.6C473.327 1223.57 476.279 1220.33 480.311 1220.33C482.399 1220.33 484.247 1221.22 485.423 1222.51L486.407 1221.53C484.943 1219.92 482.711 1218.96 480.311 1218.96C475.463 1218.96 471.887 1222.75 471.887 1227.6C471.887 1232.57 475.511 1236.24 480.527 1236.24C483.119 1236.24 485.567 1234.97 487.007 1233.12V1226.04H480.047V1227.41H485.567V1232.76ZM499.168 1219.2L494.68 1233.1L490.168 1219.2H488.704L494.224 1236H495.184L499.648 1222.2L504.112 1236H505.072L510.592 1219.2H509.128L504.616 1233.1L500.128 1219.2H499.168ZM514.369 1218.96H513.001V1236H514.369V1228.39C515.209 1226.95 516.577 1226.11 518.161 1226.11C519.361 1226.11 520.393 1226.66 521.017 1227.58C521.401 1228.13 521.641 1228.82 521.641 1230.26V1236H523.009V1230.17C523.009 1228.37 522.673 1227.46 522.073 1226.66C521.185 1225.46 519.769 1224.82 518.185 1224.82C516.721 1224.82 515.233 1225.37 514.369 1226.52V1218.96Z" fill="#00AD99"/>
<path d="M211.92 1204H215.16V1193.06L224.52 1204H226.8V1187.2H223.56V1198.14L214.2 1187.2H211.92V1204ZM229.687 1204H242.647V1201.12H233.983L242.167 1189.12V1187.2H230.407V1190.08H237.847L229.687 1202.08V1204ZM255.492 1190.08V1187.2H245.412V1204H255.732V1201.12H248.652V1196.44H253.812V1193.56H248.652V1190.08H255.492ZM270.596 1191.4C270.596 1192.38 269.948 1193.2 268.916 1193.2C267.884 1193.2 267.236 1192.38 267.236 1191.4C267.236 1190.42 267.884 1189.6 268.916 1189.6C269.948 1189.6 270.596 1190.42 270.596 1191.4ZM264.356 1191.4C264.356 1193.85 266.324 1195.84 268.916 1195.84C271.508 1195.84 273.476 1193.85 273.476 1191.4C273.476 1188.95 271.508 1186.96 268.916 1186.96C266.324 1186.96 264.356 1188.95 264.356 1191.4ZM282.236 1199.8C282.236 1200.78 281.588 1201.6 280.556 1201.6C279.524 1201.6 278.876 1200.78 278.876 1199.8C278.876 1198.82 279.524 1198 280.556 1198C281.588 1198 282.236 1198.82 282.236 1199.8ZM275.996 1199.8C275.996 1202.25 277.964 1204.24 280.556 1204.24C283.148 1204.24 285.116 1202.25 285.116 1199.8C285.116 1197.35 283.148 1195.36 280.556 1195.36C277.964 1195.36 275.996 1197.35 275.996 1199.8ZM271.196 1204L281.012 1187.2H278.348L268.532 1204H271.196Z" fill="#00AD99"/>
<path d="M698.48 1195.2V1196.57H703.28V1212H704.72V1196.57H709.52V1195.2H698.48ZM719.305 1206.53C719.305 1208.98 717.505 1210.94 715.033 1210.94C712.561 1210.94 710.761 1208.98 710.761 1206.53C710.761 1204.08 712.561 1202.11 715.033 1202.11C717.505 1202.11 719.305 1204.08 719.305 1206.53ZM720.673 1206.53C720.673 1203.38 718.297 1200.82 715.033 1200.82C711.769 1200.82 709.393 1203.38 709.393 1206.53C709.393 1209.67 711.769 1212.24 715.033 1212.24C718.297 1212.24 720.673 1209.67 720.673 1206.53ZM729.905 1201.06H726.185V1198.08H724.817V1201.06H721.745V1202.35H724.817V1208.3C724.817 1209.6 725.081 1210.39 725.561 1210.99C726.305 1211.93 727.481 1212.24 728.489 1212.24C728.921 1212.24 729.545 1212.17 729.905 1212.05L729.665 1210.8C729.257 1210.92 728.801 1210.94 728.489 1210.94C727.673 1210.94 727.049 1210.66 726.665 1210.18C726.377 1209.82 726.185 1209.34 726.185 1208.35V1202.35H729.905V1201.06ZM742.811 1212V1201.06H741.491V1202.57C740.507 1201.46 739.067 1200.82 737.483 1200.82C736.163 1200.82 734.915 1201.3 734.003 1202.04C732.755 1203.1 731.963 1204.7 731.963 1206.53C731.963 1208.5 732.851 1210.2 734.291 1211.21C735.371 1211.98 736.523 1212.24 737.555 1212.24C739.259 1212.24 740.675 1211.5 741.491 1210.39V1212H742.811ZM741.443 1208.54C740.579 1210.03 739.139 1210.94 737.531 1210.94C736.595 1210.94 735.755 1210.61 735.059 1210.13C734.003 1209.38 733.331 1208.04 733.331 1206.53C733.331 1205.11 733.907 1203.84 734.867 1203.05C735.635 1202.42 736.595 1202.11 737.507 1202.11C739.523 1202.11 740.963 1203.5 741.443 1204.32V1208.54ZM746.892 1212H748.26V1194.96H746.892V1212ZM768.038 1196.57V1195.2H758.918V1212H768.278V1210.63H760.358V1203.41H766.358V1202.04H760.358V1196.57H768.038ZM772.587 1201.06H771.267V1212H772.635V1204.39C773.475 1202.95 774.843 1202.11 776.427 1202.11C777.627 1202.11 778.659 1202.66 779.283 1203.58C779.667 1204.13 779.907 1204.82 779.907 1206.26V1212H781.275V1206.17C781.275 1204.37 780.939 1203.46 780.339 1202.66C779.451 1201.46 778.035 1200.82 776.451 1200.82C774.915 1200.82 773.475 1201.42 772.587 1202.59V1201.06ZM789.39 1202.11C791.286 1202.11 792.774 1203.48 793.062 1205.4H785.598C786.006 1203.5 787.446 1202.11 789.39 1202.11ZM793.158 1209.31C792.294 1210.37 791.094 1210.94 789.654 1210.94C787.134 1210.94 785.622 1208.98 785.526 1206.65H794.454C794.478 1206.43 794.478 1206.26 794.478 1206.17C794.478 1203.12 792.318 1200.82 789.39 1200.82C786.294 1200.82 784.158 1203.38 784.158 1206.53C784.158 1209.94 786.582 1212.24 789.654 1212.24C791.742 1212.24 793.302 1211.26 794.118 1210.22L793.158 1209.31ZM803.227 1200.86C803.083 1200.84 802.603 1200.82 802.411 1200.82C800.707 1200.82 799.459 1201.73 798.955 1202.5V1201.06H797.587V1212H798.955V1204.54C799.531 1203.12 800.899 1202.11 802.387 1202.11C802.459 1202.11 802.891 1202.11 803.035 1202.14L803.227 1200.86ZM815.514 1211.95V1201.06H814.194V1202.57C813.21 1201.46 811.77 1200.82 810.186 1200.82C808.866 1200.82 807.618 1201.3 806.706 1202.04C805.458 1203.1 804.666 1204.7 804.666 1206.53C804.666 1208.5 805.554 1210.2 806.994 1211.21C808.074 1211.98 809.226 1212.24 810.258 1212.24C811.962 1212.24 813.33 1211.5 814.146 1210.44V1212C814.146 1213.37 814.05 1214.16 813.714 1214.83C813.162 1215.91 812.034 1216.7 810.186 1216.7C808.434 1216.7 807.09 1215.89 806.274 1214.59L805.194 1215.38C806.298 1217.04 808.074 1218 810.162 1218C812.562 1218 814.122 1216.97 814.914 1215.48C815.37 1214.62 815.514 1213.56 815.514 1211.95ZM814.146 1208.54C813.282 1210.03 811.842 1210.94 810.234 1210.94C809.298 1210.94 808.458 1210.61 807.762 1210.13C806.706 1209.38 806.034 1208.04 806.034 1206.53C806.034 1205.11 806.61 1203.84 807.57 1203.05C808.338 1202.42 809.298 1202.11 810.21 1202.11C812.226 1202.11 813.666 1203.5 814.146 1204.32V1208.54ZM821.299 1217.76L828.883 1201.06H827.419L823.555 1209.55L819.451 1201.06H817.915L822.859 1211.11L819.859 1217.76H821.299ZM843.89 1212.24C846.314 1212.24 848.45 1211.04 849.626 1209.19C850.25 1208.21 850.61 1207.06 850.61 1205.28V1195.2H849.17V1205.35C849.17 1206.82 848.906 1207.7 848.426 1208.47C847.49 1209.94 845.81 1210.87 843.89 1210.87C841.97 1210.87 840.29 1209.94 839.354 1208.47C838.874 1207.7 838.61 1206.82 838.61 1205.35V1195.2H837.17V1205.28C837.17 1207.06 837.53 1208.21 838.154 1209.19C839.33 1211.04 841.466 1212.24 843.89 1212.24ZM853.483 1210.68C854.443 1211.57 855.907 1212.24 857.731 1212.24C859.795 1212.24 861.523 1210.99 861.523 1208.95C861.523 1205.11 855.211 1206.41 855.211 1203.98C855.211 1202.71 856.483 1202.11 857.635 1202.11C858.763 1202.11 859.435 1202.4 860.371 1203L861.091 1201.87C860.275 1201.32 859.051 1200.82 857.563 1200.82C855.715 1200.82 853.843 1202.02 853.843 1204.01C853.843 1207.75 860.155 1206.22 860.155 1209.02C860.155 1210.18 859.003 1210.94 857.635 1210.94C856.411 1210.94 855.259 1210.42 854.323 1209.62L853.483 1210.68ZM869.031 1202.11C870.927 1202.11 872.415 1203.48 872.703 1205.4H865.239C865.647 1203.5 867.087 1202.11 869.031 1202.11ZM872.799 1209.31C871.935 1210.37 870.735 1210.94 869.295 1210.94C866.775 1210.94 865.263 1208.98 865.167 1206.65H874.095C874.119 1206.43 874.119 1206.26 874.119 1206.17C874.119 1203.12 871.959 1200.82 869.031 1200.82C865.935 1200.82 863.799 1203.38 863.799 1206.53C863.799 1209.94 866.223 1212.24 869.295 1212.24C871.383 1212.24 872.943 1211.26 873.759 1210.22L872.799 1209.31ZM896.176 1208.76C894.952 1210.03 893.104 1210.87 891.064 1210.87C886.888 1210.87 883.936 1207.68 883.936 1203.6C883.936 1199.57 886.888 1196.33 890.92 1196.33C893.008 1196.33 894.856 1197.22 896.032 1198.51L897.016 1197.53C895.552 1195.92 893.32 1194.96 890.92 1194.96C886.072 1194.96 882.496 1198.75 882.496 1203.6C882.496 1208.57 886.12 1212.24 891.136 1212.24C893.728 1212.24 896.176 1210.97 897.616 1209.12V1202.04H890.656V1203.41H896.176V1208.76ZM909.777 1195.2L905.289 1209.1L900.777 1195.2H899.313L904.833 1212H905.793L910.257 1198.2L914.721 1212H915.681L921.201 1195.2H919.737L915.225 1209.1L910.737 1195.2H909.777ZM924.978 1194.96H923.61V1212H924.978V1204.39C925.818 1202.95 927.186 1202.11 928.77 1202.11C929.97 1202.11 931.002 1202.66 931.626 1203.58C932.01 1204.13 932.25 1204.82 932.25 1206.26V1212H933.618V1206.17C933.618 1204.37 933.282 1203.46 932.682 1202.66C931.794 1201.46 930.378 1200.82 928.794 1200.82C927.33 1200.82 925.842 1201.37 924.978 1202.52V1194.96Z" fill="#004990"/>
<path d="M136.6 405C138.28 407.76 141.32 409.4 145 409.4C150.52 409.4 154.32 405.04 154.32 400C154.32 395.08 150.64 391.08 145.6 390.72L152.72 382.48V381H137.92V383.28H149.04L141.64 391.8V393.28C142 393.16 142.96 392.88 144.48 392.88C148.72 392.88 151.92 395.92 151.92 400C151.92 403.8 149.2 407.12 145 407.12C142.08 407.12 139.8 405.8 138.52 403.76L136.6 405ZM160.483 387.76C161.163 384.84 163.203 382.88 166.203 382.88C169.403 382.88 171.723 385.28 171.723 388.56C171.723 390.2 171.123 391.92 168.843 394.64L158.123 407.52V409H174.523V406.72H161.843L170.843 395.84C173.163 393.04 174.123 390.96 174.123 388.48C174.123 383.96 170.803 380.6 166.123 380.6C162.043 380.6 159.123 383.44 158.323 387L160.483 387.76ZM188.314 409.4C193.594 409.4 197.514 405.8 197.514 400.88C197.514 397.6 195.634 394.72 192.674 393.28C194.554 392.04 195.714 390 195.714 387.64C195.714 383.76 192.594 380.6 188.314 380.6C184.034 380.6 180.914 383.76 180.914 387.64C180.914 390 182.074 392.04 183.954 393.28C180.994 394.72 179.114 397.6 179.114 400.88C179.114 405.8 183.034 409.4 188.314 409.4ZM188.314 382.88C191.234 382.88 193.314 385 193.314 387.64C193.314 390.24 191.274 392.28 188.314 392.36C185.354 392.28 183.314 390.24 183.314 387.64C183.314 385 185.394 382.88 188.314 382.88ZM188.314 407.12C184.314 407.12 181.514 404.32 181.514 400.88C181.514 397.44 184.314 394.64 188.314 394.64C192.314 394.64 195.114 397.44 195.114 400.88C195.114 404.32 192.314 407.12 188.314 407.12Z" fill="white"/>
<path d="M149.8 487H152.2V479.8H156.8V477.52H152.2V459H150.6L135.6 478.32V479.8H149.8V487ZM139.16 477.52L149.8 463.8V477.52H139.16ZM159.031 461.28H173.351L161.031 487H163.551L176.231 460.48V459H159.031V461.28ZM182.267 459L180.347 472.6L181.947 472.84C183.227 471.68 184.987 470.88 186.907 470.88C190.947 470.88 194.027 474.08 194.027 478C194.027 481.84 191.147 485.12 187.067 485.12C184.547 485.12 182.387 483.84 181.107 482L179.227 483.28C180.907 485.76 183.827 487.4 187.107 487.4C192.387 487.4 196.427 483.16 196.427 478C196.427 472.8 192.347 468.6 187.027 468.6C185.587 468.6 184.267 468.96 183.107 469.52L184.267 461.28H195.467V459H182.267Z" fill="white"/>
<path d="M134.2 770.16L139.6 767.16V792H142V764H140.4L134.2 767.76V770.16ZM150.96 770.76C151.64 767.84 153.68 765.88 156.68 765.88C159.88 765.88 162.2 768.28 162.2 771.56C162.2 773.2 161.6 774.92 159.32 777.64L148.6 790.52V792H165V789.72H152.32L161.32 778.84C163.64 776.04 164.6 773.96 164.6 771.48C164.6 766.96 161.28 763.6 156.6 763.6C152.52 763.6 149.6 766.44 148.8 770L150.96 770.76ZM182.48 764H179.76L171.16 777.28C170.2 778.76 169.2 780.8 169.2 783.32C169.2 788.28 173.16 792.36 178.48 792.4C183.8 792.4 187.8 788.4 187.8 783.16C187.8 778.08 184 773.92 178.64 773.92C177.56 773.92 176.6 774.08 175.76 774.36L182.48 764ZM178.48 776.2C182.52 776.2 185.4 779.2 185.4 783.16C185.4 787.08 182.44 790.12 178.56 790.12C174.52 790.12 171.6 787.04 171.6 783.16C171.6 781 172.56 779.44 173.32 778.2C174.68 776.96 176.48 776.2 178.48 776.2Z" fill="white"/>
<path d="M133.6 866C135.28 868.76 138.32 870.4 142 870.4C147.52 870.4 151.32 866.04 151.32 861C151.32 856.08 147.64 852.08 142.6 851.72L149.72 843.48V842H134.92V844.28H146.04L138.64 852.8V854.28C139 854.16 139.96 853.88 141.48 853.88C145.72 853.88 148.92 856.92 148.92 861C148.92 864.8 146.2 868.12 142 868.12C139.08 868.12 136.8 866.8 135.52 864.76L133.6 866ZM165.314 870.4C170.594 870.4 174.514 866.8 174.514 861.88C174.514 858.6 172.634 855.72 169.674 854.28C171.554 853.04 172.714 851 172.714 848.64C172.714 844.76 169.594 841.6 165.314 841.6C161.034 841.6 157.914 844.76 157.914 848.64C157.914 851 159.074 853.04 160.954 854.28C157.994 855.72 156.114 858.6 156.114 861.88C156.114 866.8 160.034 870.4 165.314 870.4ZM165.314 843.88C168.234 843.88 170.314 846 170.314 848.64C170.314 851.24 168.274 853.28 165.314 853.36C162.354 853.28 160.314 851.24 160.314 848.64C160.314 846 162.394 843.88 165.314 843.88ZM165.314 868.12C161.314 868.12 158.514 865.32 158.514 861.88C158.514 858.44 161.314 855.64 165.314 855.64C169.314 855.64 172.114 858.44 172.114 861.88C172.114 865.32 169.314 868.12 165.314 868.12ZM192.207 842H189.487L180.887 855.28C179.927 856.76 178.927 858.8 178.927 861.32C178.927 866.28 182.887 870.36 188.207 870.4C193.527 870.4 197.527 866.4 197.527 861.16C197.527 856.08 193.727 851.92 188.367 851.92C187.287 851.92 186.327 852.08 185.487 852.36L192.207 842ZM188.207 854.2C192.247 854.2 195.127 857.2 195.127 861.16C195.127 865.08 192.167 868.12 188.287 868.12C184.247 868.12 181.327 865.04 181.327 861.16C181.327 859 182.287 857.44 183.047 856.2C184.407 854.96 186.207 854.2 188.207 854.2Z" fill="white"/>
<path d="M146.4 985.4C151.68 985.4 155.6 981.8 155.6 976.88C155.6 973.6 153.72 970.72 150.76 969.28C152.64 968.04 153.8 966 153.8 963.64C153.8 959.76 150.68 956.6 146.4 956.6C142.12 956.6 139 959.76 139 963.64C139 966 140.16 968.04 142.04 969.28C139.08 970.72 137.2 973.6 137.2 976.88C137.2 981.8 141.12 985.4 146.4 985.4ZM146.4 958.88C149.32 958.88 151.4 961 151.4 963.64C151.4 966.24 149.36 968.28 146.4 968.36C143.44 968.28 141.4 966.24 141.4 963.64C141.4 961 143.48 958.88 146.4 958.88ZM146.4 983.12C142.4 983.12 139.6 980.32 139.6 976.88C139.6 973.44 142.4 970.64 146.4 970.64C150.4 970.64 153.2 973.44 153.2 976.88C153.2 980.32 150.4 983.12 146.4 983.12ZM169.213 985.4C174.493 985.4 178.413 981.8 178.413 976.88C178.413 973.6 176.533 970.72 173.573 969.28C175.453 968.04 176.613 966 176.613 963.64C176.613 959.76 173.493 956.6 169.213 956.6C164.933 956.6 161.813 959.76 161.813 963.64C161.813 966 162.973 968.04 164.853 969.28C161.893 970.72 160.013 973.6 160.013 976.88C160.013 981.8 163.933 985.4 169.213 985.4ZM169.213 958.88C172.133 958.88 174.213 961 174.213 963.64C174.213 966.24 172.173 968.28 169.213 968.36C166.253 968.28 164.213 966.24 164.213 963.64C164.213 961 166.293 958.88 169.213 958.88ZM169.213 983.12C165.213 983.12 162.413 980.32 162.413 976.88C162.413 973.44 165.213 970.64 169.213 970.64C173.213 970.64 176.013 973.44 176.013 976.88C176.013 980.32 173.213 983.12 169.213 983.12Z" fill="white"/>
<path d="M136.6 1059C138.28 1061.76 141.32 1063.4 145 1063.4C150.52 1063.4 154.32 1059.04 154.32 1054C154.32 1049.08 150.64 1045.08 145.6 1044.72L152.72 1036.48V1035H137.92V1037.28H149.04L141.64 1045.8V1047.28C142 1047.16 142.96 1046.88 144.48 1046.88C148.72 1046.88 151.92 1049.92 151.92 1054C151.92 1057.8 149.2 1061.12 145 1061.12C142.08 1061.12 139.8 1059.8 138.52 1057.76L136.6 1059ZM158.333 1041.16L163.733 1038.16V1063H166.133V1035H164.533L158.333 1038.76V1041.16ZM175.093 1041.76C175.773 1038.84 177.813 1036.88 180.813 1036.88C184.013 1036.88 186.333 1039.28 186.333 1042.56C186.333 1044.2 185.733 1045.92 183.453 1048.64L172.733 1061.52V1063H189.133V1060.72H176.453L185.453 1049.84C187.773 1047.04 188.733 1044.96 188.733 1042.48C188.733 1037.96 185.413 1034.6 180.733 1034.6C176.653 1034.6 173.733 1037.44 172.933 1041L175.093 1041.76Z" fill="white"/>
<defs>
<clipPath id="clip0">
<rect width="80" height="1240" fill="white" transform="translate(1351 155) rotate(90)"/>
</clipPath>
<clipPath id="clip1">
<rect width="80" height="1237.14" fill="white" transform="translate(1350 346) rotate(90)"/>
</clipPath>
<clipPath id="clip2">
<rect width="80" height="686.358" fill="white" transform="translate(799.217 537) rotate(90)"/>
</clipPath>
<clipPath id="clip3">
<rect width="32" height="803" fill="white" transform="translate(916.217 554) rotate(90)"/>
</clipPath>
<clipPath id="clip4">
<rect width="31" height="804" fill="white" transform="translate(916.217 586) rotate(90)"/>
</clipPath>
<clipPath id="clip5">
<rect width="80" height="1268" fill="white" transform="translate(1381 235) rotate(90)"/>
</clipPath>
<clipPath id="clip6">
<rect width="32" height="1207" fill="white" transform="translate(1319.87 252) rotate(90)"/>
</clipPath>
<clipPath id="clip7">
<rect width="31" height="1208" fill="white" transform="translate(1319.87 284) rotate(90)"/>
</clipPath>
<clipPath id="clip8">
<rect width="80" height="1092" fill="white" transform="translate(1204 426) rotate(90)"/>
</clipPath>
<clipPath id="clip9">
<rect width="32" height="1207" fill="white" transform="translate(1318.87 443) rotate(90)"/>
</clipPath>
<clipPath id="clip10">
<rect width="31" height="1208" fill="white" transform="translate(1318.87 475) rotate(90)"/>
</clipPath>
<clipPath id="clip11">
<rect width="80" height="996" fill="white" transform="translate(1108 617) rotate(90)"/>
</clipPath>
<clipPath id="clip12">
<rect width="32" height="1207" fill="white" transform="translate(1318.87 634) rotate(90)"/>
</clipPath>
<clipPath id="clip13">
<rect width="31" height="1208" fill="white" transform="translate(1318.87 666) rotate(90)"/>
</clipPath>
<clipPath id="clip14">
<rect width="80" height="338.15" fill="white" transform="translate(465 728) rotate(90)"/>
</clipPath>
<clipPath id="clip15">
<rect width="80" height="915" fill="white" transform="translate(1041 808) rotate(90)"/>
</clipPath>
<clipPath id="clip16">
<rect width="32" height="1207" fill="white" transform="translate(1332.87 825) rotate(90)"/>
</clipPath>
<clipPath id="clip17">
<rect width="31" height="1208" fill="white" transform="translate(1332.87 857) rotate(90)"/>
</clipPath>
<clipPath id="clip18">
<rect width="80" height="341.739" fill="white" transform="translate(454.598 728) rotate(90)"/>
</clipPath>
<clipPath id="clip19">
<rect width="32" height="803" fill="white" transform="translate(915.598 745) rotate(90)"/>
</clipPath>
<clipPath id="clip20">
<rect width="31" height="804" fill="white" transform="translate(915.598 777) rotate(90)"/>
</clipPath>
<clipPath id="clip21">
<rect width="80" height="924.71" fill="white" transform="translate(1036.71 808) rotate(90)"/>
</clipPath>
<clipPath id="clip22">
<rect width="32" height="1207" fill="white" transform="translate(1318.58 825) rotate(90)"/>
</clipPath>
<clipPath id="clip23">
<rect width="31" height="1208" fill="white" transform="translate(1318.58 857) rotate(90)"/>
</clipPath>
<clipPath id="clip24">
<rect width="80" height="286.155" fill="white" transform="translate(399.014 919) rotate(90)"/>
</clipPath>
<clipPath id="clip25">
<rect width="32" height="803" fill="white" transform="translate(916.014 936) rotate(90)"/>
</clipPath>
<clipPath id="clip26">
<rect width="31" height="804" fill="white" transform="translate(916.014 968) rotate(90)"/>
</clipPath>
<clipPath id="clip27">
<rect width="80" height="925" fill="white" transform="translate(1037 999) rotate(90)"/>
</clipPath>
<clipPath id="clip28">
<rect width="32" height="1207" fill="white" transform="translate(1318.87 1016) rotate(90)"/>
</clipPath>
<clipPath id="clip29">
<rect width="31" height="1208" fill="white" transform="translate(1318.87 1048) rotate(90)"/>
</clipPath>
</defs>
</svg>
